<svg version="1.1" id="Layer_1" xmlns="http://www.w3.org/2000/svg" x="0" y="0" viewBox="0 0 160.7 65" xml:space="preserve"><style>.st5{fill:#9e9e9e}.st6{fill:#ffc200}</style><path d="M26.6 5l.4-2.9c.1-.5-.1-.9-.4-1.3-.3-.3-.7-.5-1.2-.5H8.1c-.8 0-1.4.6-1.5 1.3L1.8 31.3c-.1.5.1.9.4 1.3.3.3.7.6 1.2.6h4c.8 0 1.4-.6 1.5-1.3l1.8-11.5h10c.8 0 1.4-.6 1.5-1.3l.4-2.5c.1-.5-.1-.9-.4-1.3-.3-.4-.7-.6-1.2-.6h-9.4l1.2-8.3h12.1c1-.1 1.6-.6 1.7-1.4zm91.7 9.9h-.1c-1.1-.3-2.3-.5-3.7-.5-2.2 0-4 .9-5.1 2.7-1.1 1.8-1.7 3.8-1.7 5.9 0 1.4.2 2.5.7 3.4.5.9 1.2 1.4 2.1 1.4 1 0 2.1-.6 3.4-1.9 1.2-1.2 2.4-2.7 3.4-4.3l1-6.7zm7.3-3.4l-3.2 20.4c-.1.8-.8 1.3-1.5 1.3h-2.4c-.4 0-.8-.2-1.1-.5-.3-.3-.5-.7-.4-1.1l.1-2.5-.3.3s-.9 1-2 1.8c-1.6 1.2-3.3 1.9-3.5 2-1 .4-2 .5-3.1.5-2.4 0-4.2-.9-5.5-2.6-1.3-1.7-1.9-4.1-1.9-6.9 0-1.5.1-2.9.4-4.3.3-1.4.8-2.8 1.5-4.1.7-1.4 1.6-2.6 2.7-3.6s2.5-1.9 4.2-2.5c1.7-.6 3.7-1 5.8-1 2.6 0 5.6.3 9 1 .8.2 1.3 1 1.2 1.8zM142.7 9c-1.6.4-3.2 1.4-4.2 2.1-1.2.9-2.9 2.7-2.9 2.7l-.3.3.1-3.2c0-.4-.1-.8-.4-1.2-.3-.3-.7-.5-1.1-.5h-2.4c-.8 0-1.4.5-1.5 1.3l-3.3 20.8c-.1.5.1.9.4 1.3.3.3.7.5 1.2.5h3.7c.8 0 1.4-.6 1.5-1.3l1.7-11.1c1-1.4 2.3-2.6 3.8-3.6 1.2-.7 2.3-1.2 3.5-1.4.6-.1 1.2-.6 1.3-1.3l.7-3.8c.1-.5-.1-1-.5-1.4-.3-.2-.8-.3-1.3-.2zM68.3 19.4c0-1.4-.2-2.5-.7-3.4-.5-.9-1.2-1.4-2.1-1.4-1 0-2.1.6-3.4 1.9-1.3 1.2-2.4 2.7-3.4 4.3l-1.1 6.7h.1c1.1.3 2.3.5 3.7.5 2.3 0 4-.9 5.1-2.7 1.2-1.7 1.8-3.7 1.8-5.9zm5-8c1.3 1.7 1.9 4.1 1.9 6.8 0 1.8-.3 3.7-.8 5.4-.5 1.7-1.3 3.4-2.4 5-1.1 1.6-2.6 2.8-4.5 3.8-2 1-4.3 1.4-6.9 1.4-1 0-2.3-.1-3.9-.3h-.2l-.3 2.8v.1l-.8 5c-.1.8-.8 1.3-1.5 1.3h-3.7c-.5 0-.9-.2-1.2-.5-.3-.3-.4-.8-.4-1.3l4.8-30.2c.1-.8.8-1.3 1.5-1.3h2.4c.4 0 .8.2 1.1.5.3.3.5.7.4 1.1l.2 2.4.3-.4s2.3-2.8 5.8-3.9c1-.3 1.9-.5 2.8-.5 2.3.2 4.1 1 5.4 2.8zm85.8-2.2h-2.9l.6-4.1c.1-.5-.1-.9-.4-1.3-.3-.3-.7-.5-1.2-.5h-2.9c-.7 0-1.3.5-1.5 1.1l-1.4 4.8h-1.6c-.8 0-1.4.5-1.5 1.3l-.4 2.2c-.1.5 0 .9.4 1.3.3.3.7.5 1.2.5h1l-1.7 11.1c-.1.7-.2 1.4-.2 2.2 0 2 .5 3.4 1.6 4.4 1.1 1 2.7 1.5 4.8 1.5 1.3 0 3.1-.5 3.3-.6.2-.1.5-.2.5-.2.1 0 .1-.1.2-.1.5-.2.7-.7.8-1.2l.3-2.3c0-.5-.1-1-.5-1.3l-.3-.3c-.1 0-.2-.1-.2-.1H155.4c-.2 0-.8-.2-1-.4-.1-.1-.5-.5-.5-1.8v-.6l1.6-10.2h3.3c.7 0 1.4-.5 1.5-1.3l.4-2.2c.1-.5 0-.9-.3-1.3-.4-.3-.8-.6-1.3-.6zm-58.9.7c-.3-.4-.8-.6-1.3-.6H95c-.7 0-1.3.5-1.5 1.1-.3 1.1-.9 2.4-1.9 3.9-1.3 2-2.3 3.3-3.2 3.9l-.1.1c-.3.2-.8.4-2.5.7h-.2l2.7-16.8c.1-.5-.1-.9-.4-1.3-.3-.3-.7-.6-1.2-.6H83c-.8 0-1.4.6-1.5 1.3l-4.7 29.7c-.1.5.1.9.3 1.3.3.3.7.6 1.2.6H82c.8 0 1.4-.6 1.5-1.3l1.2-7.8H87l3.2 8.1c.2.6.8 1 1.4 1h4c.9 0 1.6-.7 1.6-1.6 0-.2 0-.4-.1-.6l-3.7-9.4.1-.1c1.5-1.4 3.1-3.3 4.6-5.7 1-1.6 1.7-3.1 2.1-4.5.3-.5.2-1 0-1.4zM46.5 7.2c1.5 0 2.7-.4 3.4-1.2.8-.8 1.1-1.8 1.1-3.1 0-1-.3-1.7-.8-2.2-.6-.5-1.4-.7-2.5-.7-1.5 0-2.7.4-3.4 1.2-.8.8-1.2 1.8-1.2 3.1 0 1 .3 1.7.8 2.2.6.5 1.4.7 2.6.7zm1.2 2H44c-.8 0-1.4.5-1.5 1.3l-3.3 20.8c-.1.5.1.9.4 1.3.3.3.7.5 1.2.5h3.7c.8 0 1.4-.6 1.5-1.3L49.3 11c.1-.5-.1-.9-.4-1.3-.3-.2-.7-.5-1.2-.5zM37.1.9c.3.3.4.8.4 1.3l-3.6 23.1v.8c0 .8.2 1.3.4 1.6.3.3.9.4 1 .4.3 0 .6.2.9.5.3.3.5.8.4 1.2l-.2 2.1c0 .4-.2.8-.5 1-.3.2-.6.3-1 .5s-1.5.5-2.3.5c-1.9 0-3.5-.5-4.5-1.3-1-.9-1.5-2.2-1.5-3.8 0-.5 0-.9.1-1.5 0-.2 3.9-25.1 4-25.4.1-.8.8-1.3 1.5-1.3h3.7c.5-.3.9-.1 1.2.3z" fill="#2a55e5"/><linearGradient id="SVGID_1_" gradientUnits="userSpaceOnUse" x1="138.044" y1="126.697" x2="147.335" y2="117.439" gradientTransform="matrix(1 0 0 -1 0 171.789)"><stop offset=".041" stop-color="#fff300"/><stop offset=".273" stop-color="#fff300"/><stop offset=".502" stop-color="#ffe500"/><stop offset=".813" stop-color="#f2a930"/></linearGradient><path d="M143.9 49.7s2.3 1.2 3.5 1.6c1.1.5 1.2 2.3 0 2.9-1.2.6-1.6.7-1.6.7s.2-.5.2-1c-.1-.9-2.6-1.6-4.3-2 0 0-1.3-4.1-1.9-5.2-.6-1.1-1.8-1.6-1.8-1.6h2.8s1 0 1.4 1c.4 1.1 1.7 3.6 1.7 3.6z" fill="url(#SVGID_1_)"/><linearGradient id="SVGID_2_" gradientUnits="userSpaceOnUse" x1="139.024" y1="109.699" x2="148.332" y2="118.973" gradientTransform="matrix(1 0 0 -1 0 171.789)"><stop offset=".187" stop-color="#f2a930"/><stop offset=".498" stop-color="#ffe500"/><stop offset=".727" stop-color="#fff300"/><stop offset=".959" stop-color="#fff300"/></linearGradient><path d="M143.7 58.6s-1.1 2.3-1.6 3.5c-.5 1.1-2.3 1.2-2.9 0-.6-1.2-.7-1.5-.7-1.5s.4.1.9 0c.9-.1 1.6-2.6 2-4.3 0 0 4-1.3 5.2-1.9 1.1-.6 1.6-1.8 1.6-1.8v3.2s0 .6-1 1c-1 .6-3.5 1.8-3.5 1.8z" fill="url(#SVGID_2_)"/><linearGradient id="SVGID_3_" gradientUnits="userSpaceOnUse" x1="131.248" y1="117.979" x2="140.523" y2="108.737" gradientTransform="matrix(1 0 0 -1 0 171.789)"><stop offset=".187" stop-color="#f2a930"/><stop offset=".498" stop-color="#ffe500"/><stop offset=".727" stop-color="#fff300"/><stop offset=".959" stop-color="#fff300"/></linearGradient><path d="M134.7 58.4s-2.3-1.1-3.5-1.6c-1.1-.5-1.2-2.3 0-2.9 1.2-.6 1.7-.7 1.7-.7s-.3.5-.2 1.1c.1.9 2.5 1.5 4.2 1.9 0 0 1.3 4 1.9 5.2.7 1.4 1.7 1.6 1.7 1.6h-3.2s-.6 0-1-1c-.3-1.1-1.6-3.6-1.6-3.6z" fill="url(#SVGID_3_)"/><linearGradient id="SVGID_4_" gradientUnits="userSpaceOnUse" x1="130.31" y1="116.483" x2="139.595" y2="125.735" gradientTransform="matrix(1 0 0 -1 0 171.789)"><stop offset=".041" stop-color="#fff300"/><stop offset=".273" stop-color="#fff300"/><stop offset=".502" stop-color="#ffe500"/><stop offset=".813" stop-color="#f2a930"/></linearGradient><path d="M134.9 49.5s1.1-2.3 1.6-3.5c.5-1.1 2.3-1.2 2.9 0 .6 1.2.7 1.5.7 1.5h-.9c-.9.1-1.6 2.5-2 4.2 0 0-4 1.3-5.2 1.9-1.6.8-1.6 1.7-1.6 1.7l.1-3.2s0-.6 1-1 3.4-1.6 3.4-1.6z" fill="url(#SVGID_4_)"/><path class="st5" d="M10.6 60.7H0L2.3 46H13l-.4 2.9H5.3L4.8 52h6.3l-.4 2.7H4.4l-.5 3.2h7.2l-.5 2.8zM23.1 60.7h-3.7l-1.5-3.1-2.6 3.1h-3.5l4.7-5.5-2.8-5.5h3.7l1.5 3.2 2.7-3.2H25l-4.7 5.4 2.8 5.6zM32.6 49.5c1.1 0 1.9.4 2.5 1.2.6.8.9 1.9.9 3.1 0 .8-.1 1.7-.4 2.5-.2.8-.6 1.5-1.1 2.3-.5.7-1.2 1.3-2.1 1.8-.9.4-2 .6-3.2.6-.5 0-1.1 0-1.8-.1l-.1 1.2L27 65h-3.2l2.4-15.2h2.5l-.1 2.3c1.1-1.7 2.4-2.6 4-2.6zm-1 2.8c-.4 0-.9.3-1.5.8-.6.6-1.1 1.2-1.5 2l-.5 2.9c.5.2 1 .2 1.7.2 1 0 1.7-.4 2.2-1.2.5-.8.8-1.7.8-2.7 0-.6-.1-1.1-.3-1.5-.2-.3-.5-.5-.9-.5zM42.8 58.1l-.3 2.5c-.7.2-1.5.4-2.3.4-.9 0-1.6-.2-2.1-.6-.5-.4-.7-1-.7-1.8 0-.2 0-.4.1-.7l1.9-12.4h3.3L40.9 57v.4c0 .3.1.6.2.7.1.1.4.2.7.2.2-.1.6-.1 1-.2zM49 61c-1.5 0-2.7-.4-3.5-1.2-.8-.8-1.3-1.9-1.3-3.3 0-2.1.6-3.7 1.8-5 1.2-1.3 2.8-1.9 4.7-1.9 1.6 0 2.8.4 3.6 1.2.9.8 1.3 1.9 1.3 3.3 0 2.1-.6 3.8-1.8 5.1-1.1 1.1-2.7 1.8-4.8 1.8zm.3-2.8c.9 0 1.6-.3 2.2-1 .5-.7.8-1.6.8-2.8 0-1.4-.6-2.2-1.9-2.2-.9 0-1.6.3-2.2 1-.6.7-.8 1.6-.8 2.9 0 .7.2 1.3.5 1.6.3.4.8.5 1.4.5zM56.6 60.7l1.7-11h2.6l-.1 2.6c1.1-1.9 2.5-2.9 4.2-2.9h.2l-.6 3.3c-.7 0-1.4.2-2.1.7-.7.4-1.3 1-1.7 1.6l-.9 5.6h-3.3zM75.9 52.8c-.1 2.6-2 3.8-5.7 3.8-.5 0-1 0-1.5-.1.1.6.3 1.1.7 1.4.4.3 1 .4 2 .4 1.1 0 2.2-.2 3.4-.6l-.5 2.6c-1.3.5-2.5.7-3.8.7-1.9 0-3.2-.4-4-1.2-.8-.8-1.2-1.9-1.2-3.4 0-1.9.6-3.5 1.7-4.8 1.2-1.3 2.7-2 4.6-2 1.5 0 2.5.3 3.2.9.8.6 1.1 1.3 1.1 2.3zm-7.1 1.8h.7c2.1 0 3.2-.5 3.2-1.5 0-.3-.1-.6-.3-.8-.2-.2-.5-.3-.9-.3-.7 0-1.2.2-1.7.7-.5.5-.8 1.1-1 1.9z"/><path class="st6" d="M85.1 60.7h-3.4L84 46h6c1.8 0 3.1.3 3.9 1 .8.7 1.1 1.6 1.1 2.9 0 .6-.1 1.2-.2 1.8-.1.5-.3 1.1-.6 1.6s-.7 1-1.2 1.4c-.5.4-1.1.7-1.9.9-.8.2-1.7.4-2.7.4h-2.6l-.7 4.7zm1.2-7.4h2.4c2 0 3-.9 3-2.8 0-.6-.2-1-.5-1.3-.3-.3-.9-.5-1.7-.5H87l-.7 4.6zM100.9 58.1l-.2 2.5c-.8.3-1.6.5-2.4.5-.9 0-1.6-.2-2.1-.6-.5-.4-.7-1-.7-1.8 0-.2 0-.4.1-.7l1.9-12.4h3.3L99 57.1v.4c0 .3.1.6.2.7.1.1.4.2.7.2.2-.2.6-.2 1-.3zM113.9 49.8l-1.8 11h-2.5l.1-2.3c-1.2 1.7-2.6 2.6-4.4 2.6-1 0-1.7-.3-2.2-.8-.5-.5-.7-1.3-.7-2.2 0-.4 0-.7.1-1l1.2-7.2h3.2l-1 6.4c0 .2-.1.4-.1.7 0 .8.3 1.2.9 1.2.5 0 1-.3 1.5-.8.6-.5 1.1-1.2 1.6-1.9l.9-5.6h3.2zM114.4 60.4l.6-2.7c.1.1.5.3 1.3.4.8.2 1.5.2 2.2.2 1.4 0 2.1-.3 2.1-1 0-.3-.2-.5-.5-.6-.3-.2-.8-.3-1.3-.4-.5-.1-1-.3-1.5-.4-.5-.2-.9-.5-1.3-.9-.3-.4-.5-1-.5-1.6 0-1.3.5-2.2 1.4-2.9.9-.7 2.3-1 4.1-1 .6 0 1.2 0 1.8.1.6.1 1 .1 1.3.2.3.1.5.2.6.2l-.5 2.6c-.2-.2-.7-.3-1.3-.4-.6-.1-1.2-.2-1.8-.2-1.4 0-2.2.3-2.2 1 0 .2.2.4.5.6.4.1.8.3 1.3.4.5.1 1 .2 1.5.4s.9.5 1.3.9.5 1 .5 1.6c0 1.3-.5 2.3-1.5 3-1 .6-2.3 1-4 1-.6 0-1.3 0-1.9-.1-.7-.1-1.1-.2-1.5-.2-.5-.1-.6-.1-.7-.2z"/></svg>