<svg width="847" height="180" fill="none" xmlns="http://www.w3.org/2000/svg"><path d="M223.833 67.106c2.813-10.537 1.651-18.6-3.488-24.187-5.138-5.588-14.121-8.4-26.947-8.438h-49.151l-29.63 111.169h23.797l11.983-45h15.715c2.875-.144 5.74.443 8.326 1.706a7.686 7.686 0 013.601 6.132l4.294 37.162h25.504l-4.163-34.519c-.825-7.706-4.369-12.243-10.52-13.612a45.2 45.2 0 0019.728-11.4 41.02 41.02 0 0010.951-19.013zm-22.784.394a17.643 17.643 0 01-7.764 11.025c-3.751 2.363-9.226 3.525-16.184 3.525h-22.09l7.763-29.044h22.11c6.938 0 11.702 1.182 14.327 3.525 2.625 2.344 3.188 6.057 1.838 10.97zM292.544 66.188l-3.02 11.25a17.55 17.55 0 00-7.501-9.675 25.112 25.112 0 00-13.858-3.563 39.233 39.233 0 00-19.465 5.175 51.447 51.447 0 00-16.334 14.813 64.743 64.743 0 00-10.258 21.768 46.24 46.24 0 00-1.313 21.525c.966 5.67 4 10.78 8.514 14.344a26.9 26.9 0 0016.878 4.988 37.328 37.328 0 0028.354-12.957l-3.113 11.738h23.197l21.153-79.406h-23.234zm-10.539 39.375a35.955 35.955 0 01-9.227 17.175 20.918 20.918 0 01-15.002 5.962c-5.907 0-9.883-1.875-12.021-5.869-2.137-3.993-2.194-9.562-.243-16.875a36.599 36.599 0 019.376-17.325 21.191 21.191 0 0115.171-6.243c5.776 0 9.714 2.006 11.739 6 2.026 3.993 2.232 9.637.244 17.156l-.037.019zM398.534 66.244h-66.816l-4.932 18.525h38.893l-51.139 44.606-4.369 16.369h69.01l4.932-18.525h-41.725l51.983-45.244 4.163-15.731zM471.614 69.15a38.094 38.094 0 00-20.422-4.987 54.914 54.914 0 00-23.347 4.987 50.964 50.964 0 00-18.284 14.381 58.26 58.26 0 00-10.858 21.863 42.014 42.014 0 00-.788 21.862 23.793 23.793 0 0010.633 14.4c5.376 3.313 12.252 4.969 20.628 4.969a53.908 53.908 0 0023.085-4.969 50.424 50.424 0 0018.19-14.4 58.127 58.127 0 0010.877-21.862 41.796 41.796 0 00.769-21.863 23.534 23.534 0 00-10.483-14.38zm-13.54 36.206c-2.081 7.8-5.138 13.65-9.264 17.513a20.875 20.875 0 01-14.796 5.756c-12.126 0-16.121-7.756-11.983-23.269 2.038-7.7 5.164-13.506 9.377-17.418a21.172 21.172 0 0115.002-5.87c5.776 0 9.714 1.876 11.739 5.87 2.026 3.993 1.969 9.712-.075 17.418zM724.213 66.188l-3.019 11.25a17.55 17.55 0 00-7.501-9.675 25.056 25.056 0 00-13.858-3.62 39.215 39.215 0 00-19.484 5.232 51.514 51.514 0 00-16.353 14.813 65.116 65.116 0 00-10.258 21.768 46.736 46.736 0 00-1.312 21.525 23.248 23.248 0 008.514 14.344 27.12 27.12 0 0017.083 4.988 37.134 37.134 0 0015.246-3.338 36.61 36.61 0 0012.846-9.619l-3.113 11.738h23.197l21.172-79.406h-23.16zm-10.595 39.375a35.923 35.923 0 01-9.208 17.175 21.044 21.044 0 01-15.002 5.962c-5.926 0-9.901-1.875-12.039-5.869-2.138-3.993-2.175-9.562-.244-16.875a36.76 36.76 0 019.377-17.325 21.265 21.265 0 0115.189-6.243c5.776 0 9.689 2 11.74 6 2.175 3.88 2.231 9.637.187 17.156v.019zM554.182 87.563l5.926-21.619a17.646 17.646 0 00-7.97-1.556 31.32 31.32 0 00-15.302 4.012 33.32 33.32 0 00-10.839 9.488l3.056-11.644h-23.178l-21.341 79.406h23.516l11.046-41.456A26.637 26.637 0 01527.741 90a24.043 24.043 0 0115.602-5.08 23.142 23.142 0 0110.839 2.643zM636.132 69.544a25.769 25.769 0 00-16.765-5.269 37.055 37.055 0 00-16.877 4.087 35.165 35.165 0 00-13.127 11.157l.094-.544 3.956-12.731h-23.065l-5.889 22.069c0 .243-.131.506-.187.75L540.081 180h23.628l12.208-45.825a16.275 16.275 0 007.501 9.581 26.088 26.088 0 0013.934 3.45 40.892 40.892 0 0019.615-4.95 48.76 48.76 0 0016.184-14.419 64.605 64.605 0 0010.07-21.618 48.223 48.223 0 001.425-21.844 24.768 24.768 0 00-8.514-14.831zm-16.708 36.3a35.364 35.364 0 01-9.171 16.875 21.113 21.113 0 01-15.002 5.85c-5.813 0-9.751-2.007-11.833-5.963-2.081-3.956-2.194-9.656-.15-17.175a35.946 35.946 0 019.377-17.269 21.088 21.088 0 0115.002-6c5.626 0 9.545 2.1 11.589 6.244 2.044 4.144 2.175 10.013.188 17.438zM846.013 63.6h-24.379l-3.75 7.837c-.3.394-.582.788-.919 1.275l-.394.638-30.005 41.962-6.225-49.068h-24.604l12.508 75.262L740.585 180h23.684l6.845-9.769c.207-.3.413-.544.6-.862l8.008-11.419.262-.3 35.762-51.019L846.013 63.6z" fill="#0C2651"/><path d="M54.383 47.175l-7.126 25.95 40.206-26.081-26.254 98.606h26.647L126.656 0 54.383 47.175z" fill="#3395FF"/><path d="M11.064 104.175L0 145.65h54.664l22.372-84.375-65.972 42.9z" fill="#0C2651"/></svg>