<svg xmlns="http://www.w3.org/2000/svg" viewBox="0 0 155.8 52.3"><path d="M7.7 31.8V0H0v32.2c0 12.1 8.5 20.1 19.5 20.1 5.4 0 10.1-2.1 13.6-5.7v4.8h7.6V0H33v31.8c0 8.2-5.5 13.7-12.6 13.7-7.2-.1-12.7-5.4-12.7-13.7zm40.6 19.7h7.3v-4.7c3.4 3.5 8.2 5.6 13.4 5.6 11 0 19.7-8.7 19.7-19.6 0-10.9-8.7-19.6-19.7-19.6-5.2 0-9.9 2.1-13.3 5.6V0h-7.4v51.5zm7.3-18.7c0-7.3 5.8-13 12.9-13 7.1 0 12.9 5.7 12.9 13 0 7.2-5.8 13-12.9 13-7.2 0-12.9-5.8-12.9-13zm37.5-.1c0 11.2 8.7 19.6 19.9 19.6 6.8 0 12.4-3 16.2-8l-5.4-4c-2.8 3.7-6.5 5.5-10.8 5.5-6.3 0-11.4-4.6-12.4-10.7h30.5v-2.4c0-11.2-7.9-19.5-18.7-19.5-11 0-19.3 8.9-19.3 19.5zm19.1-13c5.5 0 10.1 3.8 11.4 9.6h-22.9c1.4-5.8 6-9.6 11.5-9.6zm43.6.9v-6.9h-2.6c-4.1 0-7.1 1.9-9 4.9V14H137v37.5h7.4V30.1c0-5.8 3.5-9.6 8.4-9.6h3z"/></svg>