<svg width="22" height="40" viewBox="0 0 22 40" fill="none" xmlns="http://www.w3.org/2000/svg">
<g clip-path="url(#clip0_1073_14661)">
<path fill-rule="evenodd" clip-rule="evenodd" d="M15.1326 1.41602C15.6726 2.62343 15.9855 3.62178 16.1225 4.5707C16.2037 5.12482 16.1989 6.44274 16.1146 6.95403C16.0079 7.63597 15.7521 8.34121 15.4844 8.71398C15.3682 8.87455 15.3227 8.91076 15.2103 8.92555C14.939 8.96113 14.6154 8.5934 14.3514 7.94766C14.1686 7.50091 13.9968 6.78811 14.0192 6.57969C14.0334 6.47989 14.03 6.4632 14.0019 6.5183C13.9769 6.57308 13.97 6.56489 13.9845 6.47768C13.9866 6.30704 13.9803 6.13661 13.9655 5.96638C13.9037 5.23879 13.9725 4.44257 14.1793 3.54276C14.3015 2.99651 14.5759 2.08789 14.7919 1.50323L14.9605 1.03601L15.1326 1.41602ZM10.9266 5.58197C11.6564 5.79417 11.9513 5.90562 12.3719 6.12538C13.5491 6.75317 14.2722 7.65675 14.5481 8.84244C14.6334 9.2215 14.7199 10.1128 14.6795 10.2394C14.647 10.3486 14.6403 10.3754 14.634 10.4585C14.629 10.5983 14.4496 10.8095 14.2939 10.8656C14.1203 10.9286 13.5658 10.9531 13.4493 10.9037C13.4085 10.8879 13.3741 10.8794 13.3744 10.8883C13.3744 10.8968 13.5494 11.0466 13.759 11.2217C14.9596 12.2071 15.6078 13.1721 15.8784 14.3682C15.9274 14.5958 15.9467 14.8187 15.9511 15.3341C15.9542 15.7034 15.9444 16.0648 15.9312 16.1401C15.9148 16.2383 15.9154 16.2553 15.9419 16.2037C15.9656 16.1527 15.9694 16.209 15.9571 16.3967C15.9084 17.0537 15.6981 17.3088 15.2374 17.1951C15.7711 18.1935 16.0126 19.1616 15.9811 20.1467L15.9703 20.556C15.9662 20.7144 15.9621 20.8655 15.9602 20.9656C15.9457 21.5562 15.7875 22.2136 15.6119 22.3871C15.3884 22.6151 15.1272 22.5474 14.7003 22.1573C14.2961 21.7817 14.0028 21.3349 13.8099 20.7896C13.6687 20.3873 13.5522 19.8659 13.5342 19.5287C13.5251 19.3876 13.4976 19.0438 13.473 18.7633C13.4256 18.2501 13.4281 17.5232 13.4818 16.8932C13.5134 16.5453 13.5525 16.1982 13.5989 15.852C13.4357 15.5324 13.2551 15.1008 13.161 14.7853C13.0378 14.3773 12.8768 13.5096 12.903 13.3749C12.9156 13.2993 12.9093 13.2791 12.8818 13.3087C12.8512 13.3349 12.8484 13.3138 12.8607 13.2338C12.8743 13.1752 12.8582 12.9127 12.8285 12.6567C12.7904 12.2718 12.7643 11.8861 12.7502 11.4997C12.7189 10.7312 12.7 10.5252 12.6595 10.5482C12.6021 10.5734 12.1764 10.1978 11.9254 9.89809C11.5054 9.39592 11.1897 8.78388 10.8613 7.83117C10.6134 7.10956 10.471 6.47831 10.5742 6.54663C10.608 6.56332 10.4804 5.96922 10.3819 5.6399C10.3226 5.43525 10.3222 5.43053 10.3532 5.42675C10.3699 5.42423 10.6257 5.4935 10.9266 5.5826V5.58197ZM18.2429 6.37064C18.456 7.21692 18.5189 7.48674 18.5978 7.90925C18.7598 8.78702 18.8157 9.38805 18.8021 10.11C18.7952 10.4613 18.7914 10.8004 18.792 10.8606C18.7971 11.3265 18.6644 12.1023 18.4968 12.5922C18.3168 13.1085 17.9852 13.7092 17.7178 14.0058C17.523 14.2199 17.3676 14.2706 17.193 14.178C17.0749 14.1125 16.9069 13.8046 16.7841 13.4356C16.581 12.8289 16.5318 12.436 16.5157 11.3331C16.5068 10.7947 16.5166 10.6049 16.57 10.3112C16.7484 9.33201 17.1282 8.32641 17.7992 7.07178L17.8927 6.89768C18.1447 6.42699 18.2037 6.31743 18.2252 6.32404C18.2318 6.32624 18.235 6.33915 18.2391 6.35584L18.2429 6.37064ZM20.7529 12.6684C20.7381 13.0005 20.7273 13.4026 20.7286 13.5628C20.7302 13.7199 20.7242 13.838 20.7138 13.8178C20.703 13.8015 20.6939 13.9161 20.6917 14.0732C20.6875 14.4648 20.5448 15.4459 20.4024 16.0318C20.2351 16.7303 20.0054 17.3379 19.7134 17.8547C20.1402 17.6472 20.5799 17.4674 21.0298 17.3163C21.2486 17.2471 21.4657 17.1733 21.6813 17.095C21.7283 17.0792 21.7634 17.0742 21.7637 17.0874C21.7637 17.0962 21.6993 17.2741 21.6172 17.481C21.4498 17.9277 21.3964 18.0993 21.4391 18.0622C21.4934 18.0099 21.5038 18.2265 21.4618 18.4456C21.3513 18.9988 20.5161 20.6596 19.9903 21.356C19.548 21.9473 18.9862 22.4847 18.6209 22.6657C18.4923 22.7281 18.4456 22.7618 18.5135 22.7391C18.5817 22.7155 18.7926 22.6456 18.9793 22.5842C19.398 22.4488 20.2426 22.2489 20.6866 22.1859L21.0197 22.1384L20.8303 22.53C20.5739 23.0637 20.5739 23.0637 20.62 23.0218C20.6844 22.9639 20.7134 23.1906 20.6673 23.3883C20.5783 23.774 19.7352 25.1911 19.2246 25.8236C18.8848 26.2407 18.4305 26.6831 18.1371 26.8884C17.7866 27.1298 17.4431 27.3118 17.2713 27.3411L17.1068 27.3688L17.2672 27.3811C17.3575 27.3908 17.7124 27.4116 18.0556 27.4292C18.3998 27.4472 18.6897 27.468 18.7001 27.4752C18.7074 27.4834 18.7004 27.5064 18.6828 27.5268C18.5861 27.6251 18.1892 28.2365 18.2429 28.2066C18.3076 28.171 18.3433 28.2368 18.3439 28.4012C18.3439 28.5702 18.1551 28.9087 17.84 29.3038C16.5927 30.8717 15.5842 31.6238 14.4812 31.7939C14.2554 31.8253 14.012 31.8515 13.9444 31.8386C13.8759 31.8304 14.0694 31.8968 14.3738 31.9824C15.2198 32.2264 15.485 32.313 15.4847 32.3442C15.485 32.3577 15.3811 32.4834 15.2529 32.6172C15.0556 32.8228 14.8882 33.0425 15.0129 32.9266C15.0597 32.8845 15.1282 33.017 15.1282 33.1505C15.1288 33.5903 13.3905 35.0011 12.3024 35.4444C12.0362 35.5537 11.6718 35.6314 11.3318 35.6613C11.4126 35.7265 11.4628 35.7706 11.4637 35.78C11.4631 35.7992 11.3567 35.871 11.2238 35.951C10.973 36.1002 10.8739 36.1896 10.9768 36.1758C11.0147 36.1698 11.0488 36.2214 11.0646 36.3049C11.1183 36.6043 10.8941 36.825 10.2054 37.1543C8.02885 38.1952 6.46771 38.1243 5.36916 36.9238C5.08276 36.6156 4.9833 36.36 5.05908 36.1456C5.09318 36.0417 5.08213 35.9957 4.94856 35.7977C4.86804 35.672 4.79921 35.559 4.79952 35.5448C4.79952 35.531 4.89457 35.418 5.00856 35.2977C5.53778 34.743 6.08279 34.357 6.63759 34.1441C6.58959 34.0906 6.54433 34.0164 6.50181 33.9215C6.37866 33.641 6.24446 33.0743 6.2271 32.7412C6.22173 32.6124 6.20404 32.2752 6.18605 31.9935C6.14815 31.4183 6.17689 31.0789 6.30098 30.52C6.5056 29.5982 6.92873 28.6899 7.67646 27.5615C8.15231 26.8436 8.46682 26.4359 8.48797 26.5102C8.49492 26.5395 8.53849 26.8392 8.58618 27.1767C8.65691 27.6962 8.6708 27.9739 8.68848 29.0123C8.71437 30.3387 8.69038 30.7369 8.55776 31.417C8.3544 32.4427 7.9117 33.3533 7.31206 33.959L7.29785 33.9732C7.43824 33.954 7.57994 33.9458 7.72161 33.9489C8.17505 33.9574 8.69985 34.089 9.24297 34.3258C9.22865 34.3098 9.22118 34.2985 9.22055 34.2918C9.22055 34.2738 9.31338 34.1007 9.42737 33.9064C10.0065 32.9222 10.7428 32.2623 11.6017 31.9582C11.9203 31.8464 12.9194 31.7444 13.2993 31.7838C13.7682 31.8326 13.826 31.8247 13.5108 31.7668C13.3277 31.7353 13.1446 31.6682 13.0732 31.6068C12.9374 31.4976 12.8544 31.2646 12.89 31.0867C12.9077 31.0039 12.8856 30.9715 12.7997 30.9262C12.7391 30.8991 12.6886 30.8575 12.6892 30.8396C12.6889 30.8216 12.7461 30.6626 12.8133 30.4889C13.3953 28.9981 14.3287 28.0476 15.6059 27.6569C16.0111 27.5331 16.0606 27.5083 15.9318 27.4774C15.749 27.4415 15.6309 27.2633 15.6126 26.9989C15.6085 26.9101 15.58 26.8566 15.5406 26.8443L15.5387 26.844C15.5197 26.8396 15.5058 26.8364 15.4964 26.8279C15.4654 26.7996 15.4869 26.7146 15.5785 26.3494L15.5829 26.332C15.9669 24.8155 16.6713 23.8048 17.8693 23.0659C18.0162 22.9777 18.0809 22.9245 18.0124 22.9522C17.9445 22.9837 17.719 23.0291 17.5113 23.0587C17.2211 23.1002 17.1065 23.0983 17.0029 23.0511C16.8624 22.9822 16.7408 22.7507 16.7689 22.6084C16.78 22.554 16.7623 22.5206 16.7193 22.5137C16.6366 22.4986 16.6363 22.4321 16.7035 21.9649C16.8501 20.9807 17.2056 20.1137 17.7478 19.4028C17.6303 19.2841 17.5627 19.0451 17.5384 18.6811C17.518 18.3176 17.5083 17.9534 17.5094 17.5893C17.5034 16.8721 17.5065 16.8365 17.6126 16.4215C17.9151 15.2226 18.558 14.1767 19.6866 13.0543C19.979 12.7619 20.7273 12.0758 20.7551 12.0714C20.7684 12.0695 20.7633 12.3406 20.7529 12.6684ZM13.4038 20.6993C14.4253 22.3125 14.8989 23.7453 14.8532 25.0796L14.8506 25.1917L14.8481 25.2937C14.8427 25.5024 14.8371 25.7395 14.8348 25.896C14.8273 26.3815 14.7527 26.7813 14.5863 27.1849C14.4487 27.5202 14.3091 27.7271 14.1796 27.7872C13.8503 27.9424 13.0618 27.0011 12.7761 26.1173C12.6595 25.7603 12.5414 25.1419 12.5689 25.0396C12.5784 25 12.5689 24.8721 12.5474 24.7509C12.5294 24.6335 12.5064 24.2554 12.501 23.9131C12.4865 23.2504 12.5288 22.6922 12.6529 21.9432C12.7502 21.3431 13.0034 20.1612 13.0325 20.1571C13.0489 20.1549 13.2159 20.3986 13.4038 20.6993ZM11.2086 24.0479C11.8493 25.6101 12.0779 26.6371 12.083 27.9579C12.083 28.3262 12.0757 28.6055 12.0624 28.5812C12.0454 28.5535 12.046 28.5916 12.0571 28.6631C12.1265 29.073 11.837 30.2061 11.5121 30.8185C11.274 31.2602 11.0662 31.3902 10.8404 31.236C10.6112 31.0823 10.1922 30.2946 10.0396 29.7373C9.96986 29.477 9.87544 28.9162 9.89376 28.8712C9.90355 28.8523 9.88965 28.6401 9.86534 28.3996C9.76177 27.314 9.98691 26.0178 10.5676 24.3634C10.6637 24.0861 10.7642 23.8103 10.8692 23.5363L10.9342 23.3782L11.2086 24.0479ZM5.1977 30.4397C5.00951 31.0452 4.94793 31.2775 4.98456 31.2451C5.00603 31.2243 5.02087 31.2942 5.02087 31.429C5.02087 31.7778 4.60438 32.8904 4.10831 33.8617C3.57972 34.9001 2.8863 35.7045 2.15215 36.1638C2.3827 36.1214 2.6178 36.1089 2.85157 36.1267C3.89991 36.194 5.08213 36.8782 6.4055 38.1675L6.61075 38.3734L6.33004 38.5216C6.17436 38.6048 6.07553 38.6756 6.10995 38.6803C6.1971 38.6961 6.23909 38.8875 6.18636 39.0361C6.12542 39.2093 5.90154 39.3638 5.47273 39.5332C3.31606 40.3808 1.79723 40.23 0.724579 39.0644C0.462494 38.777 0.305874 38.5122 0.290718 38.3217C0.271772 38.1268 0.290719 38.011 0.336189 38.0374C0.381028 38.0686 0.381659 38.0642 0.187464 37.7147C0.119259 37.5885 0.0621045 37.4695 0.0617887 37.4414C0.0617887 37.3706 0.247142 37.1977 0.619429 36.915C0.782277 36.7895 0.952228 36.6735 1.12844 36.5674L1.09118 36.5731C0.641534 36.637 0.48965 36.5375 0.438496 36.1644C0.434707 36.115 0.409131 36.065 0.384186 36.0511C0.347873 36.025 0.343767 35.9356 0.376291 35.6132C0.614378 33.1366 1.82881 31.6594 4.59585 30.4766C4.81409 30.3798 5.03411 30.2871 5.2558 30.1986C5.26686 30.1973 5.2378 30.3088 5.1977 30.4397Z" fill="url(#paint0_radial_1073_14661)"/>
<mask id="mask0_1073_14661" style="mask-type:luminance" maskUnits="userSpaceOnUse" x="0" y="1" width="22" height="40">
<path fill-rule="evenodd" clip-rule="evenodd" d="M15.1326 1.42408C15.6726 2.63148 15.9855 3.62984 16.1225 4.57876C16.2037 5.13288 16.1989 6.45079 16.1146 6.96209C16.0079 7.64403 15.7521 8.34927 15.4844 8.72204C15.3682 8.88261 15.3227 8.91881 15.2103 8.93361C14.939 8.96919 14.6154 8.60145 14.3514 7.95572C14.1686 7.50896 13.9968 6.79617 14.0192 6.58775C14.0334 6.48794 14.03 6.47126 14.0019 6.52635C13.9769 6.58113 13.97 6.57295 13.9845 6.48574C13.9866 6.3151 13.9803 6.14466 13.9655 5.97444C13.9037 5.24685 13.9725 4.45062 14.1793 3.55081C14.3015 3.00457 14.5759 2.09594 14.7919 1.51129L14.9605 1.04407L15.1326 1.42408ZM10.9266 5.59002C11.6564 5.80222 11.9513 5.91368 12.3719 6.13343C13.5491 6.76122 14.2722 7.66481 14.5481 8.85049C14.6334 9.22956 14.7199 10.1209 14.6795 10.2474C14.647 10.3567 14.6403 10.3834 14.634 10.4666C14.629 10.6063 14.4496 10.8176 14.2939 10.8736C14.1203 10.9366 13.5658 10.9612 13.4493 10.9117C13.4085 10.896 13.3741 10.8875 13.3744 10.8963C13.3744 10.9048 13.5494 11.0547 13.759 11.2297C14.9596 12.2152 15.6078 13.1802 15.8784 14.3762C15.9274 14.6039 15.9467 14.8268 15.9511 15.3421C15.9542 15.7115 15.9444 16.0729 15.9312 16.1481C15.9148 16.2464 15.9154 16.2634 15.9419 16.2117C15.9656 16.1607 15.9694 16.2171 15.9571 16.4047C15.9084 17.0618 15.6981 17.3168 15.2374 17.2032C15.7711 18.2015 16.0126 19.1696 15.9811 20.1548L15.9703 20.5641C15.9662 20.7224 15.9621 20.8735 15.9602 20.9737C15.9457 21.5643 15.7875 22.2217 15.6119 22.3952C15.3884 22.6231 15.1272 22.5554 14.7003 22.1653C14.2961 21.7897 14.0028 21.343 13.8099 20.7977C13.6687 20.3953 13.5522 19.8739 13.5342 19.5367C13.5251 19.3957 13.4976 19.0519 13.473 18.7714C13.4256 18.2582 13.4281 17.5312 13.4818 16.9012C13.5134 16.5534 13.5525 16.2062 13.5989 15.8601C13.4357 15.5405 13.2551 15.1089 13.161 14.7934C13.0378 14.3854 12.8768 13.5177 12.903 13.3829C12.9156 13.3073 12.9093 13.2872 12.8818 13.3168C12.8512 13.3429 12.8484 13.3218 12.8607 13.2419C12.8743 13.1833 12.8582 12.9207 12.8285 12.6648C12.7904 12.2798 12.7643 11.8941 12.7502 11.5077C12.7189 10.7392 12.7 10.5333 12.6595 10.5563C12.6021 10.5815 12.1764 10.2059 11.9254 9.90615C11.5054 9.40398 11.1897 8.79193 10.8613 7.83923C10.6134 7.11762 10.471 6.48637 10.5742 6.55469C10.608 6.57137 10.4804 5.97727 10.3819 5.64795C10.3226 5.44331 10.3222 5.43859 10.3532 5.43481C10.3699 5.43229 10.6257 5.50155 10.9266 5.59065V5.59002ZM18.2429 6.37869C18.456 7.22498 18.5189 7.4948 18.5978 7.91731C18.7598 8.79508 18.8157 9.39611 18.8021 10.118C18.7952 10.4694 18.7914 10.8085 18.792 10.8686C18.7971 11.3346 18.6644 12.1103 18.4968 12.6002C18.3168 13.1166 17.9852 13.7173 17.7178 14.0138C17.523 14.2279 17.3676 14.2786 17.193 14.1861C17.0749 14.1206 16.9069 13.8127 16.7841 13.4437C16.581 12.837 16.5318 12.4441 16.5157 11.3412C16.5068 10.8028 16.5166 10.613 16.57 10.3192C16.7484 9.34007 17.1282 8.33447 17.7992 7.07984L17.8927 6.90573C18.1447 6.43505 18.2037 6.32549 18.2252 6.3321C18.2318 6.3343 18.235 6.34721 18.2391 6.3639L18.2429 6.37869ZM20.7529 12.6764C20.7381 13.0086 20.7273 13.4106 20.7286 13.5709C20.7302 13.728 20.7242 13.846 20.7138 13.8259C20.703 13.8095 20.6939 13.9241 20.6917 14.0812C20.6875 14.4729 20.5448 15.4539 20.4024 16.0398C20.2351 16.7384 20.0054 17.346 19.7134 17.8627C20.1402 17.6553 20.5799 17.4755 21.0298 17.3244C21.2486 17.2551 21.4657 17.1813 21.6813 17.103C21.7283 17.0873 21.7634 17.0823 21.7637 17.0955C21.7637 17.1043 21.6993 17.2822 21.6172 17.489C21.4498 17.9358 21.3964 18.1074 21.4391 18.0702C21.4934 18.018 21.5038 18.2346 21.4618 18.4537C21.3513 19.0069 20.5161 20.6676 19.9903 21.3641C19.548 21.9553 18.9862 22.4928 18.6209 22.6738C18.4923 22.7361 18.4456 22.7698 18.5135 22.7472C18.5817 22.7235 18.7926 22.6536 18.9793 22.5923C19.398 22.4569 20.2426 22.257 20.6866 22.194L21.0197 22.1464L20.8303 22.5381C20.5739 23.0718 20.5739 23.0718 20.62 23.0299C20.6844 22.9719 20.7134 23.1986 20.6673 23.3964C20.5783 23.782 19.7352 25.1991 19.2246 25.8316C18.8848 26.2488 18.4305 26.6911 18.1371 26.8964C17.7866 27.1379 17.4431 27.3199 17.2713 27.3492L17.1068 27.3769L17.2672 27.3891C17.3575 27.3989 17.7124 27.4197 18.0556 27.4373C18.3998 27.4553 18.6897 27.476 18.7001 27.4833C18.7074 27.4915 18.7004 27.5144 18.6828 27.5349C18.5861 27.6331 18.1892 28.2446 18.2429 28.2146C18.3076 28.1791 18.3433 28.2449 18.3439 28.4092C18.3439 28.5783 18.1551 28.9167 17.84 29.3119C16.5927 30.8798 15.5842 31.6319 14.4812 31.8019C14.2554 31.8334 14.012 31.8595 13.9444 31.8466C13.8759 31.8384 14.0694 31.9049 14.3738 31.9905C15.2198 32.2345 15.485 32.3211 15.4847 32.3523C15.485 32.3658 15.3811 32.4914 15.2529 32.6252C15.0556 32.8308 14.8882 33.0506 15.0129 32.9347C15.0597 32.8925 15.1282 33.0251 15.1282 33.1586C15.1288 33.5984 13.3905 35.0092 12.3024 35.4525C12.0362 35.5617 11.6718 35.6395 11.3318 35.6694C11.4126 35.7346 11.4628 35.7786 11.4637 35.7881C11.4631 35.8073 11.3567 35.8791 11.2238 35.959C10.973 36.1083 10.8739 36.1977 10.9768 36.1838C11.0147 36.1779 11.0488 36.2295 11.0646 36.3129C11.1183 36.6123 10.8941 36.833 10.2054 37.1624C8.02885 38.2032 6.46771 38.1324 5.36916 36.9319C5.08276 36.6237 4.9833 36.368 5.05908 36.1536C5.09318 36.0497 5.08213 36.0038 4.94856 35.8057C4.86804 35.6801 4.79921 35.5671 4.79952 35.5529C4.79952 35.539 4.89457 35.426 5.00856 35.3058C5.53778 34.751 6.08279 34.365 6.63759 34.1522C6.58959 34.0987 6.54433 34.0245 6.50181 33.9296C6.37866 33.6491 6.24446 33.0824 6.2271 32.7493C6.22173 32.6205 6.20404 32.2833 6.18605 32.0015C6.14815 31.4263 6.17689 31.0869 6.30098 30.5281C6.5056 29.6062 6.92873 28.6979 7.67646 27.5695C8.15231 26.8517 8.46682 26.444 8.48797 26.5183C8.49492 26.5476 8.53849 26.8473 8.58618 27.1848C8.65691 27.7043 8.6708 27.982 8.68848 29.0203C8.71437 30.3467 8.69038 30.745 8.55776 31.4251C8.3544 32.4508 7.9117 33.3613 7.31206 33.9671L7.29785 33.9812C7.43824 33.962 7.57994 33.9539 7.72161 33.957C8.17505 33.9655 8.69985 34.0971 9.24297 34.3338C9.22865 34.3179 9.22118 34.3066 9.22055 34.2998C9.22055 34.2819 9.31338 34.1087 9.42737 33.9145C10.0065 32.9303 10.7428 32.2704 11.6017 31.9663C11.9203 31.8545 12.9194 31.7525 13.2993 31.7918C13.7682 31.8406 13.826 31.8328 13.5108 31.7748C13.3277 31.7434 13.1446 31.6763 13.0732 31.6149C12.9374 31.5057 12.8544 31.2727 12.89 31.0948C12.9077 31.012 12.8856 30.9796 12.7997 30.9342C12.7391 30.9071 12.6886 30.8656 12.6892 30.8476C12.6889 30.8297 12.7461 30.6707 12.8133 30.4969C13.3953 29.0061 14.3287 28.0556 15.6059 27.6649C16.0111 27.5412 16.0606 27.5163 15.9318 27.4855C15.749 27.4496 15.6309 27.2714 15.6126 27.0069C15.6085 26.9181 15.58 26.8646 15.5406 26.8523L15.5387 26.852C15.5197 26.8476 15.5058 26.8445 15.4964 26.836C15.4654 26.8076 15.4869 26.7226 15.5785 26.3574L15.5829 26.3401C15.9669 24.8235 16.6713 23.8129 17.8693 23.074C18.0162 22.9858 18.0809 22.9326 18.0124 22.9603C17.9445 22.9918 17.719 23.0371 17.5113 23.0667C17.2211 23.1083 17.1065 23.1064 17.0029 23.0592C16.8624 22.9902 16.7408 22.7588 16.7689 22.6165C16.78 22.562 16.7623 22.5287 16.7193 22.5217C16.6366 22.5066 16.6363 22.4402 16.7035 21.973C16.8501 20.9888 17.2056 20.1217 17.7478 19.4108C17.6303 19.2921 17.5627 19.0532 17.5384 18.6892C17.518 18.3256 17.5083 17.9615 17.5094 17.5973C17.5034 16.8801 17.5065 16.8446 17.6126 16.4296C17.9151 15.2307 18.558 14.1848 19.6866 13.0624C19.979 12.7699 20.7273 12.0839 20.7551 12.0795C20.7684 12.0776 20.7633 12.3487 20.7529 12.6764ZM13.4038 20.7073C14.4253 22.3205 14.8989 23.7534 14.8532 25.0877L14.8506 25.1997L14.8481 25.3018C14.8427 25.5105 14.8371 25.7476 14.8348 25.904C14.8273 26.3895 14.7527 26.7894 14.5863 27.193C14.4487 27.5283 14.3091 27.7351 14.1796 27.7953C13.8503 27.9505 13.0618 27.0091 12.7761 26.1254C12.6595 25.7683 12.5414 25.15 12.5689 25.0477C12.5784 25.008 12.5689 24.8802 12.5474 24.759C12.5294 24.6415 12.5064 24.2634 12.501 23.9212C12.4865 23.2585 12.5288 22.7002 12.6529 21.9512C12.7502 21.3512 13.0034 20.1693 13.0325 20.1652C13.0489 20.163 13.2159 20.4066 13.4038 20.7073ZM11.2086 24.0559C11.8493 25.6182 12.0779 26.6452 12.083 27.9659C12.083 28.3343 12.0757 28.6135 12.0624 28.5893C12.0454 28.5616 12.046 28.5997 12.0571 28.6712C12.1265 29.0811 11.837 30.2142 11.5121 30.8265C11.274 31.2683 11.0662 31.3983 10.8404 31.244C10.6112 31.0904 10.1922 30.3027 10.0396 29.7454C9.96986 29.485 9.87544 28.9243 9.89376 28.8793C9.90355 28.8604 9.88965 28.6482 9.86534 28.4076C9.76177 27.3221 9.98691 26.0259 10.5676 24.3714C10.6637 24.0941 10.7642 23.8184 10.8692 23.5443L10.9342 23.3863L11.2086 24.0559ZM5.1977 30.4478C5.00951 31.0532 4.94793 31.2856 4.98456 31.2532C5.00603 31.2324 5.02087 31.3023 5.02087 31.437C5.02087 31.7859 4.60438 32.8985 4.10831 33.8698C3.57972 34.9081 2.8863 35.7125 2.15215 36.1719C2.3827 36.1294 2.6178 36.117 2.85157 36.1347C3.89991 36.2021 5.08213 36.8862 6.4055 38.1755L6.61075 38.3814L6.33004 38.5297C6.17436 38.6128 6.07553 38.6837 6.10995 38.6884C6.1971 38.7041 6.23909 38.8955 6.18636 39.0441C6.12542 39.2173 5.90154 39.3719 5.47273 39.5413C3.31606 40.3888 1.79723 40.238 0.724579 39.0725C0.462494 38.785 0.305874 38.5203 0.290718 38.3298C0.271772 38.1349 0.290719 38.019 0.336189 38.0455C0.381028 38.0766 0.381659 38.0722 0.187464 37.7228C0.119259 37.5965 0.0621045 37.4775 0.0617887 37.4495C0.0617887 37.3787 0.247142 37.2058 0.619429 36.9231C0.782277 36.7976 0.952228 36.6815 1.12844 36.5755L1.09118 36.5812C0.641534 36.6451 0.48965 36.5456 0.438496 36.1725C0.434707 36.1231 0.409131 36.073 0.384186 36.0592C0.347873 36.033 0.343767 35.9436 0.376291 35.6212C0.614378 33.1447 1.82881 31.6675 4.59585 30.4846C4.81409 30.3879 5.03411 30.2952 5.2558 30.2066C5.26686 30.2054 5.2378 30.3168 5.1977 30.4478Z" fill="white"/>
</mask>
<g mask="url(#mask0_1073_14661)">
<path d="M16.1209 4.57407L15.8083 4.61941V4.61878L16.1209 4.57407ZM15.1313 1.41939L15.419 1.28967L15.4196 1.29093L15.1313 1.41939ZM16.1133 6.9574L15.801 6.90891L15.8017 6.90671L16.1133 6.9574ZM15.4827 8.71735L15.7398 8.90058L15.7388 8.90184L15.4827 8.71735ZM14.0176 6.58306L13.7037 6.54937L13.7044 6.54402L13.705 6.53898L14.0176 6.58306ZM14.0002 6.52166L13.7129 6.39163L13.7154 6.38534L13.7186 6.37967L14.0002 6.52166ZM13.9829 6.48105L14.2986 6.48546L14.2983 6.50938L14.2942 6.533L13.9829 6.48105ZM13.9639 5.96975L13.6494 5.99746V5.99651L13.9639 5.96975ZM14.1777 3.54612L14.4859 3.61444L14.4856 3.61633L14.1777 3.54612ZM14.7903 1.5066L15.0871 1.61364L15.0865 1.61553L14.7903 1.5066ZM14.9589 1.03938L14.6621 0.93233L14.9264 0.201904L15.2469 0.909977L14.9589 1.03938ZM12.3696 6.12874L12.5165 5.8498L12.519 5.85106L12.3696 6.12874ZM10.9247 5.58533L10.6206 5.67065L10.4659 5.12409L11.0128 5.28309L10.9247 5.58533ZM14.5465 8.84612L14.8541 8.77496L14.8544 8.77685L14.5465 8.84612ZM14.6779 10.2427L14.3754 10.153L14.376 10.1502L14.3769 10.1477L14.6779 10.2427ZM14.6324 10.4619L14.3166 10.4502L14.3173 10.4446V10.4389L14.6324 10.4619ZM14.2923 10.869L14.184 10.573H14.1846L14.2923 10.869ZM13.4476 10.907L13.5638 10.6142L13.5673 10.6158L13.5708 10.6174L13.4476 10.907ZM13.3728 10.8916L13.6886 10.8878V10.8935L13.3728 10.8916ZM13.7574 11.225L13.5566 11.4681L13.5544 11.4662L13.7574 11.225ZM15.8768 14.3715L16.1847 14.3023L16.1853 14.3051L15.8768 14.3715ZM15.9296 16.1434L15.6182 16.0918V16.0899L15.9296 16.1434ZM15.9403 16.207L16.2267 16.3393L16.2242 16.3449L16.2216 16.3503L15.9403 16.207ZM15.9554 16.4L16.2706 16.4205V16.4237L15.9554 16.4ZM15.2358 17.1985L14.9573 17.3464L14.6239 16.7234L15.3116 16.8931L15.2358 17.1985ZM15.9794 20.1501L15.6637 20.1428V20.1397L15.9794 20.1501ZM15.9586 20.969L16.2744 20.9753V20.9765L15.9586 20.969ZM15.6103 22.3905L15.3849 22.1704L15.3864 22.1688L15.388 22.1673L15.6103 22.3905ZM14.6987 22.1606L14.4852 22.393L14.4834 22.3911L14.6987 22.1606ZM13.8082 20.793L13.5102 20.8978L13.5098 20.8966L13.8082 20.793ZM13.5326 19.5321L13.8477 19.5119V19.5154L13.5326 19.5321ZM13.4713 18.7667L13.7858 18.738V18.7396L13.4713 18.7667ZM13.4802 16.8965L13.795 16.9211V16.923L13.4802 16.8965ZM13.5973 15.8554L13.8787 15.7124L13.9229 15.7993L13.9102 15.896L13.5973 15.8554ZM13.1593 14.7887L13.4615 14.698L13.4619 14.6987L13.1593 14.7887ZM12.9014 13.3782L13.2127 13.4299L13.2121 13.4336L13.2115 13.4377L12.9014 13.3782ZM12.8802 13.3121L13.1139 13.5243L13.1 13.5394L13.0845 13.5523L12.8802 13.3121ZM12.8591 13.2372L12.5471 13.189L12.5487 13.177L12.5518 13.1651L12.8591 13.2372ZM12.8268 12.6601L12.5133 12.696L12.513 12.6934V12.6912L12.8268 12.6601ZM12.7485 11.503L13.0643 11.4904V11.4917L12.7485 11.503ZM12.6579 10.5516L12.8126 10.8258L12.7991 10.8337L12.7845 10.84L12.6579 10.5516ZM11.9238 9.90146L11.6813 10.1036V10.1026L11.9238 9.90146ZM10.5726 6.55L10.4315 6.83146L10.4141 6.82296L10.3977 6.81226L10.5726 6.55ZM10.3803 5.64326L10.0778 5.73299L10.0772 5.7311L10.3803 5.64326ZM10.3516 5.43012L10.3951 5.74181L10.391 5.74244L10.3516 5.43012ZM10.925 5.58596L11.2291 5.50033L11.3841 6.04972L10.8353 5.88789L10.925 5.58596ZM18.5965 7.91262L18.9069 7.855V7.85563L18.5965 7.91262ZM18.2413 6.374L18.5463 6.29246L18.5469 6.29498L18.5476 6.2975L18.2413 6.374ZM18.4951 12.5955L18.7939 12.6972L18.7932 12.6988L18.4951 12.5955ZM17.7162 14.0092L17.9514 14.2198L17.9498 14.221L17.7162 14.0092ZM17.1913 14.1814L17.0429 14.4594L17.0404 14.4578L17.0379 14.4565L17.1913 14.1814ZM16.514 11.3365L16.8298 11.3311V11.3321L16.514 11.3365ZM17.8911 6.90104L17.6126 6.75275L17.6183 6.74173L17.6249 6.73134L17.8911 6.90104ZM17.8911 6.90104L18.1696 7.04933L18.1636 7.06035L18.157 7.07074L17.8911 6.90104ZM20.7273 13.5659L20.4115 13.569V13.5684L20.7273 13.5659ZM20.7516 12.6714L21.0674 12.6815L21.067 12.6853L20.7516 12.6714ZM20.7124 13.8206L20.9764 13.6484L20.9853 13.6616L20.9925 13.6757L20.7124 13.8206ZM20.6903 14.0762L20.3746 14.0731V14.0721L20.6903 14.0762ZM20.4011 16.0348L20.0942 15.9615V15.9608L20.4011 16.0348ZM19.7121 17.8577L19.8517 18.1402L18.935 18.591L19.4371 17.7032L19.7121 17.8577ZM21.0285 17.3194L20.9272 17.0212L20.9303 17.02L20.9332 17.019L21.0285 17.3194ZM21.6799 17.098L21.5716 16.8021L21.5761 16.8005L21.5802 16.7993L21.6799 17.098ZM21.7624 17.0905L21.4466 17.0943V17.0924L21.7624 17.0905ZM21.6158 17.484L21.3203 17.3738L21.3212 17.3713L21.3222 17.3685L21.6158 17.484ZM21.4378 18.0652L21.6575 18.2913L21.6518 18.2969L21.6455 18.3026L21.4378 18.0652ZM21.4605 18.4487L21.7706 18.5076L21.7703 18.5104L21.4605 18.4487ZM19.989 21.3591L19.7361 21.1708L19.7367 21.1698L19.989 21.3591ZM18.6196 22.6688L18.7601 22.9509L18.7579 22.9518L18.6196 22.6688ZM18.5122 22.7422L18.6148 23.0397L18.6123 23.0406L18.5122 22.7422ZM18.9779 22.5873L18.8791 22.2882L18.8804 22.2878L18.9779 22.5873ZM21.0184 22.1414L20.9736 21.8297L21.5603 21.746L21.3029 22.2781L21.0184 22.1414ZM20.829 22.5331L20.5445 22.3968V22.3961L20.829 22.5331ZM20.666 23.3913L20.3585 23.3208V23.3202L20.666 23.3913ZM19.2233 25.8266L19.4696 26.024L19.4683 26.025L19.2233 25.8266ZM18.1358 26.8914L18.3174 27.1489L18.3152 27.1505L18.1358 26.8914ZM17.1055 27.3719L17.0811 27.6857L17.0527 27.0614L17.1055 27.3719ZM17.2659 27.3841L17.2902 27.0702L17.2952 27.0706L17.3003 27.0712L17.2659 27.3841ZM18.0543 27.4323L18.0708 27.1178H18.0711L18.0543 27.4323ZM18.6988 27.4783L18.8782 27.2192L18.911 27.2415L18.9369 27.2714L18.6988 27.4783ZM18.6814 27.5299L18.9208 27.7355L18.9142 27.743L18.9069 27.7503L18.6814 27.5299ZM18.2416 28.2096L18.0869 27.9348L18.0894 27.9335L18.2416 28.2096ZM18.3426 28.4042L18.6584 28.4033V28.4039L18.3426 28.4042ZM14.4799 31.7969L14.5279 32.108L14.5238 32.1086L14.4799 31.7969ZM13.9431 31.8416L13.981 31.529L13.9911 31.5302L14.0018 31.5324L13.9431 31.8416ZM14.3725 31.9855L14.4581 31.6823L14.4603 31.6829L14.3725 31.9855ZM15.4834 32.3473L15.1676 32.3526V32.3447L15.4834 32.3473ZM15.2516 32.6202L15.4802 32.8375L15.4796 32.8381L15.2516 32.6202ZM15.0116 32.9297L14.7969 32.6992L14.7991 32.6974L15.0116 32.9297ZM12.3011 35.4475L12.1811 35.1562L12.1817 35.1559L12.3011 35.4475ZM11.3304 35.6644L11.1321 35.9093L10.5246 35.4198L11.3027 35.3508L11.3304 35.6644ZM11.4624 35.7831L11.776 35.745L11.7791 35.7689L11.7782 35.7925L11.4624 35.7831ZM11.2224 35.954L11.3851 36.2239L11.3844 36.2242L11.2224 35.954ZM10.9755 36.1788L11.0241 36.4899L11.021 36.4905L11.0178 36.4908L10.9755 36.1788ZM11.0633 36.3079L11.3737 36.2497L11.374 36.2522L11.0633 36.3079ZM5.36785 36.9269L5.59931 36.7128L5.60089 36.7147L5.36785 36.9269ZM5.05777 36.1486L5.35806 36.2462L5.3568 36.2497L5.35554 36.2535L5.05777 36.1486ZM4.94725 35.8007L4.68517 35.9761L4.68327 35.9732L4.6817 35.9704L4.94725 35.8007ZM4.79821 35.5479L4.48245 35.5444V35.5407L4.79821 35.5479ZM5.00725 35.3008L4.77737 35.0848L4.77832 35.0835L5.00725 35.3008ZM6.63628 34.1472L6.87121 33.9366L7.1775 34.2766L6.74964 34.4409L6.63628 34.1472ZM6.5005 33.9246L6.21252 34.0543L6.21094 34.0505L6.5005 33.9246ZM6.22579 32.7443L5.91065 32.7609V32.7581L6.22579 32.7443ZM8.48666 26.5133L8.79043 26.428L8.79201 26.434L8.79359 26.4396L8.48666 26.5133ZM8.58486 27.1798L8.89747 27.1357L8.89779 27.1376L8.58486 27.1798ZM8.68717 29.0153L8.37141 29.0216V29.0207L8.68717 29.0153ZM8.55645 31.4201L8.86653 31.4799V31.4811L8.55645 31.4201ZM7.31075 33.9621L7.0853 33.7414L7.08593 33.7407L7.31075 33.9621ZM7.29654 33.9762L7.33917 34.2879L6.41398 34.4132L7.07298 33.754L7.29654 33.9762ZM7.7203 33.952L7.7143 34.2668L7.71367 34.2665L7.7203 33.952ZM9.24165 34.3288L9.47532 34.1166L9.11535 34.6172L9.24165 34.3288ZM11.6004 31.9613L11.4946 31.6644H11.4956L11.6004 31.9613ZM13.5095 31.7698L13.5635 31.4597L13.5667 31.4603L13.5095 31.7698ZM13.0719 31.6099L13.2702 31.365L13.2737 31.3681L13.2774 31.3709L13.0719 31.6099ZM12.8887 31.0898L12.579 31.0284L12.5799 31.0243L12.8887 31.0898ZM12.7984 30.9292L12.9279 30.6418L12.9371 30.6462L12.9462 30.6509L12.7984 30.9292ZM12.6879 30.8426L13.0037 30.8385V30.8483L12.6879 30.8426ZM12.812 30.4919L12.5174 30.3786L12.5177 30.3776L12.812 30.4919ZM15.9305 27.4805L15.9918 27.1719L15.9981 27.1729L16.0044 27.1745L15.9305 27.4805ZM15.6113 27.0019L15.2961 27.024V27.0196L15.2958 27.0155L15.6113 27.0019ZM15.5393 26.8473L15.6087 26.5401L15.6204 26.5429L15.6321 26.5463L15.5393 26.8473ZM15.5374 26.847L15.6046 26.5394L15.6065 26.5397L15.5374 26.847ZM15.5374 26.847L15.4698 27.1546L15.4673 27.154L15.5374 26.847ZM15.5772 26.3524L15.8872 26.4113L15.8857 26.4201L15.8835 26.4286L15.5772 26.3524ZM15.5772 26.3524L15.2671 26.2929L15.2687 26.2844L15.2709 26.2759L15.5772 26.3524ZM15.5816 26.3351L15.2753 26.2586V26.258L15.5816 26.3351ZM17.868 23.069L17.7019 22.8013L17.7054 22.7988L17.868 23.069ZM18.0111 22.9553L17.8772 22.6701L17.8848 22.6666L17.8927 22.6634L18.0111 22.9553ZM17.0016 23.0542L16.8702 23.3407L16.8658 23.3385L16.8617 23.3366L17.0016 23.0542ZM16.7676 22.6115L16.4578 22.551L16.4581 22.5485L16.7676 22.6115ZM16.718 22.5167L16.6669 22.8275L16.6637 22.8268L16.6612 22.8265L16.718 22.5167ZM16.7022 21.968L16.3896 21.9233V21.9217L16.7022 21.968ZM17.7465 19.4058L17.9713 19.1845L18.1639 19.379L17.9978 19.5963L17.7465 19.4058ZM17.5371 18.6842L17.222 18.7053V18.7021L17.5371 18.6842ZM17.5081 17.5923L17.8238 17.5898V17.593L17.5081 17.5923ZM17.6113 16.4246L17.9176 16.5014V16.5024L17.6113 16.4246ZM19.6853 13.0574L19.9091 13.2797L19.9085 13.2803L19.6853 13.0574ZM20.7538 12.0745L20.7064 11.7634L20.7077 11.7631L20.7538 12.0745ZM14.8522 25.0827L14.5364 25.0751V25.072L14.8522 25.0827ZM13.4025 20.7023L13.1354 20.8704L13.1344 20.8685L13.4025 20.7023ZM14.8335 25.899L15.1493 25.9031V25.9041L14.8335 25.899ZM14.1783 27.7903L14.0432 27.5057L14.0448 27.505L14.1783 27.7903ZM12.7747 26.1204L13.075 26.0228L13.0754 26.024L12.7747 26.1204ZM12.5676 25.0427L12.8748 25.1145L12.8739 25.1192L12.8726 25.1236L12.5676 25.0427ZM12.5461 24.754L12.2354 24.8091L12.2348 24.8053L12.2342 24.8018L12.5461 24.754ZM12.4997 23.9162L12.8155 23.9093V23.9111L12.4997 23.9162ZM12.6516 21.9462L12.9636 21.9966L12.9633 21.9976L12.6516 21.9462ZM13.0311 20.1602L12.9882 19.8485L12.9892 19.8482L13.0311 20.1602ZM12.0816 27.9609L12.3974 27.9597V27.9606L12.0816 27.9609ZM12.0611 28.5843L12.3308 28.4206L12.3339 28.4259L12.3371 28.4316L12.0611 28.5843ZM12.0558 28.6662L11.7444 28.7187L11.7438 28.715L12.0558 28.6662ZM11.5107 30.8215L11.7899 30.9686L11.7889 30.9705L11.5107 30.8215ZM10.8391 31.239L11.0153 30.9777L11.0175 30.9793L10.8391 31.239ZM10.0383 29.7404L9.73362 29.8232L9.7333 29.8216L10.0383 29.7404ZM9.89245 28.8743L9.60036 28.7546L9.60542 28.742L9.61173 28.7301L9.89245 28.8743ZM9.86403 28.4026L9.55016 28.4338V28.4325L9.86403 28.4026ZM10.5663 24.3664L10.8647 24.4694L10.8641 24.4706L10.5663 24.3664ZM10.8678 23.5393L10.5729 23.4269L10.5742 23.4235L10.5758 23.4197L10.8678 23.5393ZM10.9329 23.3813L10.6408 23.2616L10.9335 22.5501L11.2253 23.2619L10.9329 23.3813ZM4.98325 31.2481L5.20523 31.4723L5.19892 31.4783L5.1926 31.484L4.98325 31.2481ZM5.19639 30.4428L5.49826 30.535V30.536L5.19639 30.4428ZM4.107 33.8648L3.82503 33.7225L3.82534 33.7218L4.107 33.8648ZM2.15084 36.1669L2.20926 36.4764L1.98317 35.9002L2.15084 36.1669ZM2.85026 36.1297L2.87331 35.8155L3.09435 35.8316L3.15434 36.0444L2.85026 36.1297ZM2.85026 36.1297L2.83037 36.4442L2.60712 36.4301L2.5465 36.2157L2.85026 36.1297ZM6.40419 38.1705L6.62523 37.9451L6.62681 37.947L6.6287 37.9489L6.40419 38.1705ZM6.60944 38.3764L6.83363 38.1548L7.13298 38.4561L6.75722 38.6547L6.60944 38.3764ZM6.32873 38.5247L6.17968 38.2473L6.18095 38.2464L6.32873 38.5247ZM6.10864 38.6834L6.15095 38.3714L6.15758 38.3723L6.16421 38.3736L6.10864 38.6834ZM6.18505 39.0391L5.88697 38.9349L5.88729 38.9343L6.18505 39.0391ZM5.47142 39.5363L5.58763 39.8291H5.58699L5.47142 39.5363ZM0.723269 39.0675L0.49055 39.2803L0.489919 39.2794L0.723269 39.0675ZM0.289408 38.3248L0.60391 38.2946V38.2971L0.604226 38.2999L0.289408 38.3248ZM0.334879 38.0405L0.494655 37.7691L0.504759 37.7751L0.514234 37.7817L0.334879 38.0405ZM0.186154 37.7178L-0.0901402 37.8702L-0.0917206 37.867L0.186154 37.7178ZM0.0604788 37.4445L-0.255286 37.4454V37.4445H0.0604788ZM0.618119 36.9181L0.810736 37.1677L0.809473 37.1687L0.618119 36.9181ZM1.12713 36.5705L1.07693 36.2594L1.28912 36.8406L1.12713 36.5705ZM0.437186 36.1675L0.12458 36.21L0.123 36.2002L0.122368 36.1905L0.437186 36.1675ZM0.382876 36.0542L0.229414 36.3293L0.212994 36.3202L0.197836 36.3092L0.382876 36.0542ZM0.374981 35.6162L0.689166 35.6464V35.648L0.374981 35.6162ZM4.59423 30.4796L4.72275 30.7674L4.71864 30.769L4.59423 30.4796ZM5.25418 30.2016L5.13671 29.9095L5.17524 29.894L5.21629 29.889L5.25418 30.2016ZM15.8083 4.61878C15.6763 3.70732 15.3748 2.73762 14.8427 1.54752L15.4196 1.29093C15.9671 2.51565 16.2911 3.54297 16.4335 4.52905L15.8083 4.61878ZM15.8017 6.90671C15.8396 6.67719 15.8617 6.24114 15.8632 5.78053C15.8648 5.32118 15.8452 4.87222 15.8083 4.61941L16.4335 4.5281C16.4777 4.8294 16.4967 5.31677 16.4948 5.78274C16.4932 6.24775 16.4711 6.72631 16.4247 7.00872L15.8017 6.90671ZM15.226 8.53443C15.455 8.21518 15.6987 7.56252 15.801 6.90891L16.425 7.0062C16.3138 7.71616 16.0461 8.47366 15.7398 8.90058L15.226 8.53443ZM15.1673 8.61691C15.1825 8.61471 15.1818 8.61377 15.1742 8.6166C15.1641 8.62006 15.1553 8.62541 15.1506 8.62919C15.1474 8.6314 15.1521 8.62856 15.1663 8.61188C15.1876 8.58644 15.2078 8.56019 15.227 8.53317L15.7385 8.90153C15.682 8.98024 15.6182 9.0643 15.538 9.12632C15.4395 9.20283 15.3407 9.22896 15.25 9.24092L15.1673 8.61691ZM14.6425 7.83234C14.7669 8.13678 14.8976 8.3556 15.0142 8.48783C15.142 8.6336 15.1938 8.61345 15.1673 8.61691L15.25 9.24092C14.9526 9.27996 14.7066 9.09389 14.5392 8.90279C14.3599 8.69909 14.197 8.41101 14.0574 8.07004L14.6425 7.83234ZM14.3315 6.61706C14.3315 6.61611 14.3305 6.62902 14.333 6.66114C14.3349 6.69052 14.3395 6.7283 14.3466 6.77448C14.3605 6.86641 14.3836 6.97975 14.4136 7.1038C14.4723 7.35165 14.5487 7.59501 14.6422 7.83202L14.0574 8.07004C13.9043 7.68248 13.7921 7.28018 13.722 6.86956C13.7063 6.76409 13.6933 6.64539 13.7037 6.54937L14.3315 6.61706ZM13.7186 6.37967C13.7236 6.36959 13.7451 6.32552 13.7792 6.28648C13.8107 6.24999 13.8501 6.22109 13.8944 6.20195C13.9387 6.18281 13.9867 6.17393 14.035 6.17597C14.1031 6.17888 14.1686 6.20351 14.2216 6.24624C14.2747 6.28897 14.3127 6.34754 14.3299 6.41336C14.3378 6.44314 14.3418 6.47384 14.3416 6.50466C14.3416 6.52166 14.3406 6.5374 14.3394 6.54937C14.3373 6.57393 14.3342 6.59985 14.3302 6.62713L13.705 6.53898L13.71 6.49805V6.50592C13.71 6.50781 13.7094 6.5374 13.7195 6.57518C13.7346 6.62909 13.7638 6.67797 13.8043 6.71675C13.8447 6.75552 13.8949 6.78276 13.9495 6.79563C14.0041 6.80849 14.0612 6.80651 14.1148 6.78989C14.1683 6.77326 14.2165 6.74261 14.2541 6.70112C14.2803 6.67152 14.2911 6.64602 14.2822 6.66334L13.7186 6.37967ZM14.2942 6.53268C14.2911 6.55157 14.2904 6.55818 14.2907 6.55724C14.2914 6.5497 14.2914 6.54211 14.2907 6.53457C14.2907 6.53457 14.291 6.47695 14.2585 6.41273C14.2344 6.36503 14.1984 6.32431 14.154 6.29447C14.1096 6.26463 14.0583 6.24667 14.0049 6.24231C13.9515 6.23794 13.8979 6.24733 13.8492 6.26956C13.8005 6.2918 13.7583 6.32613 13.7268 6.36928C13.7123 6.39006 13.7069 6.40423 13.7129 6.39163L14.2876 6.65169C14.2813 6.66649 14.2655 6.70018 14.2431 6.73197C14.2399 6.73638 14.1988 6.79998 14.1177 6.83902C14.0425 6.87547 13.956 6.88095 13.8768 6.85425C13.7976 6.82756 13.7321 6.77085 13.6946 6.6964C13.6608 6.62934 13.6598 6.56637 13.6598 6.5585C13.6588 6.54107 13.6592 6.52359 13.6611 6.50623C13.6634 6.4804 13.6668 6.45466 13.6712 6.4291L14.2942 6.53268ZM14.2784 5.94204C14.2944 6.12272 14.3011 6.30409 14.2986 6.48546L13.6671 6.47664C13.6692 6.3167 13.6633 6.15687 13.6494 5.99714L14.2784 5.94204ZM14.4856 3.61633C14.2844 4.49221 14.22 5.25475 14.2784 5.94299L13.6491 5.99651C13.5841 5.22956 13.6576 4.40028 13.8701 3.4756L14.4856 3.61633ZM15.0865 1.61553C14.8749 2.18885 14.6046 3.08394 14.4859 3.61444L13.8695 3.47749C13.9952 2.91581 14.2737 1.99334 14.4938 1.39798L15.0865 1.61553ZM15.2563 1.14642L15.0871 1.61364L14.4931 1.39955L14.6621 0.932645L15.2563 1.14642ZM14.8433 1.54878L14.6715 1.16909L15.2469 0.909977L15.419 1.28967L14.8433 1.54878ZM12.2237 6.40769C11.829 6.20147 11.5565 6.09694 10.8366 5.88758L11.0134 5.28309C11.7532 5.49812 12.0703 5.61681 12.5165 5.8498L12.2237 6.40769ZM14.2389 8.91695C13.9854 7.82856 13.3264 6.99581 12.2212 6.40643L12.519 5.85106C13.7678 6.51725 14.5553 7.49168 14.8541 8.77496L14.2389 8.91695ZM14.3769 10.1477C14.3675 10.1769 14.3706 10.1889 14.3719 10.1511C14.373 10.1126 14.3727 10.0741 14.3709 10.0356C14.3675 9.9364 14.3583 9.80795 14.345 9.66879C14.3182 9.38701 14.2765 9.08508 14.2383 8.91507L14.8544 8.77685C14.9017 8.9859 14.9459 9.319 14.9737 9.60929C14.9876 9.756 14.9977 9.89768 15.0022 10.0135C15.0042 10.0667 15.0045 10.12 15.0031 10.1732C15.0015 10.2097 14.9984 10.2767 14.9791 10.3378L14.3769 10.1477ZM14.3173 10.4389C14.3258 10.323 14.34 10.2711 14.3754 10.153L14.9807 10.3325C14.9636 10.3895 14.9576 10.4112 14.9542 10.4276C14.9519 10.4386 14.9497 10.4502 14.9472 10.4849L14.3173 10.4389ZM14.1846 10.573C14.1838 10.5736 14.1866 10.5722 14.1932 10.5686C14.2014 10.5635 14.2094 10.558 14.2172 10.5522C14.257 10.5203 14.2905 10.4812 14.316 10.437C14.3242 10.42 14.3176 10.4253 14.3166 10.4502L14.9478 10.4738C14.9415 10.6486 14.8411 10.8035 14.7609 10.8989C14.6747 11.0015 14.5478 11.1114 14.4 11.1649L14.1846 10.573ZM13.5708 10.6174C13.5481 10.608 13.5376 10.608 13.5566 10.6108C13.5701 10.6129 13.5914 10.6148 13.6207 10.6165C13.768 10.6219 13.9156 10.6153 14.0618 10.5966C14.0995 10.5915 14.1369 10.5847 14.1739 10.5762L14.1815 10.574L14.184 10.5733L14.4006 11.1649C14.2629 11.2146 14.0362 11.237 13.8629 11.2446C13.7681 11.249 13.6718 11.2496 13.5882 11.2452C13.5467 11.2434 13.5054 11.2397 13.4644 11.2339C13.4296 11.2285 13.3766 11.2191 13.3245 11.197L13.5708 10.6174ZM13.057 10.8957C13.056 10.8134 13.0869 10.7339 13.1434 10.6739C13.1998 10.6139 13.2774 10.5781 13.3599 10.574C13.4082 10.5708 13.4483 10.5796 13.4619 10.5825C13.4967 10.5902 13.5308 10.6008 13.5638 10.6142L13.3318 11.1998C13.3191 11.1951 13.3179 11.1954 13.328 11.1976C13.328 11.1976 13.3567 11.2049 13.3974 11.2024C13.4771 11.1968 13.5516 11.1611 13.6057 11.1026C13.6599 11.0441 13.6895 10.9675 13.6886 10.8878L13.057 10.8957ZM13.5544 11.4662C13.4492 11.3784 13.3516 11.2962 13.2797 11.2339C13.2443 11.2033 13.2133 11.1759 13.1903 11.1551C13.1792 11.1451 13.1669 11.1334 13.1562 11.1224C13.1374 11.1034 13.1204 11.0826 13.1057 11.0604C13.0734 11.0094 13.0566 10.9503 13.057 10.89L13.6886 10.8935C13.6886 10.8146 13.6588 10.7382 13.6052 10.6801L13.6166 10.6904C13.6332 10.7058 13.6588 10.7282 13.6933 10.7578C13.7612 10.8167 13.8559 10.8963 13.9601 10.9836L13.5544 11.4662ZM15.5686 14.4405C15.3173 13.3291 14.7173 12.4205 13.5566 11.4681L13.9579 10.982C15.1989 11.9999 15.8955 13.0221 16.1847 14.3023L15.5686 14.4405ZM15.6337 15.3406C15.6293 14.8299 15.6103 14.6329 15.568 14.4377L16.1853 14.3051C16.2415 14.5652 16.2605 14.8148 16.2652 15.3346L15.6337 15.3406ZM15.6185 16.0899C15.6182 16.0921 15.6204 16.0732 15.6233 16.0207C15.6263 15.9614 15.6285 15.9021 15.6299 15.8428C15.6339 15.6754 15.6352 15.508 15.6337 15.3406L16.2652 15.3346C16.2668 15.5229 16.2652 15.709 16.2614 15.8588C16.2579 15.9958 16.2519 16.1318 16.2406 16.1973L15.6185 16.0899ZM16.2216 16.3503C16.2178 16.3572 16.1973 16.3997 16.1657 16.4366C16.1262 16.4839 16.0737 16.5187 16.0146 16.5368C15.9555 16.5548 15.8924 16.5553 15.833 16.5381C15.7737 16.521 15.7206 16.487 15.6803 16.4403C15.64 16.3936 15.6143 16.3361 15.6062 16.275C15.5986 16.2215 15.6065 16.1689 15.6072 16.163C15.6104 16.1392 15.6141 16.1155 15.6182 16.0918L16.2412 16.1957C16.2371 16.2193 16.2349 16.2335 16.234 16.2414C16.2308 16.2643 16.2377 16.2316 16.2314 16.1878C16.2225 16.1288 16.1968 16.0735 16.1574 16.0286C16.1179 15.9836 16.0664 15.9508 16.0089 15.9341C15.9514 15.9174 15.8903 15.9174 15.8328 15.9342C15.7754 15.951 15.7239 15.9838 15.6845 16.0288C15.6602 16.0572 15.6495 16.0827 15.6593 16.0641L16.2216 16.3503ZM15.6406 16.3796C15.6436 16.3349 15.6454 16.2995 15.646 16.2735C15.6469 16.2451 15.6463 16.236 15.6466 16.2382L15.6479 16.2499C15.6543 16.2887 15.6683 16.3258 15.6893 16.3591C15.7159 16.4008 15.752 16.4357 15.7948 16.4607C15.8376 16.4858 15.8857 16.5003 15.9352 16.5031C15.9847 16.506 16.0342 16.497 16.0796 16.477C16.1249 16.457 16.1649 16.4265 16.1961 16.3881C16.2077 16.3729 16.218 16.3566 16.2267 16.3396L15.6539 16.0748C15.6662 16.0475 15.6818 16.0217 15.7003 15.998C15.7366 15.9506 15.7855 15.9144 15.8414 15.8934C15.8973 15.8724 15.9581 15.8675 16.0167 15.8792C16.0753 15.891 16.1294 15.9189 16.1728 15.9598C16.2162 16.0008 16.2473 16.053 16.2624 16.1107C16.2725 16.1453 16.275 16.1756 16.2763 16.19C16.2807 16.2477 16.2763 16.3317 16.2706 16.4205L15.6406 16.3796ZM15.3116 16.8931C15.4749 16.9337 15.5023 16.8924 15.5131 16.8802C15.5566 16.8311 15.6173 16.6944 15.6406 16.3767L16.2706 16.4237C16.2453 16.763 16.1758 17.0823 15.987 17.2964C15.7654 17.5476 15.4575 17.5775 15.1597 17.5042L15.3116 16.8931ZM15.6637 20.1397C15.6937 19.2172 15.4685 18.3026 14.9573 17.3464L15.5143 17.0508C16.0707 18.0907 16.329 19.113 16.2949 20.1602L15.6637 20.1397ZM15.6529 20.5509L15.6637 20.1428L16.2952 20.1573L16.2845 20.5679L15.6529 20.5509ZM15.6428 20.9627C15.6447 20.8613 15.6488 20.7089 15.6529 20.5509L16.2845 20.5679C16.2801 20.7266 16.2763 20.8764 16.2741 20.9753L15.6428 20.9627ZM15.388 22.1673C15.3871 22.1682 15.4104 22.1408 15.4452 22.0574C15.4767 21.9815 15.509 21.8811 15.538 21.7617C15.6004 21.4993 15.6355 21.2311 15.6428 20.9614L16.2744 20.9765C16.2665 21.2945 16.2204 21.6289 16.1519 21.9103C16.1174 22.0511 16.0761 22.1846 16.0287 22.2992C15.9839 22.4062 15.9213 22.5262 15.8329 22.614L15.388 22.1673ZM14.9118 21.9286C15.119 22.1175 15.2424 22.1855 15.3088 22.2025C15.3168 22.2047 15.3251 22.2059 15.3334 22.206L15.3391 22.2054C15.3403 22.2047 15.3558 22.1997 15.3849 22.1704L15.8364 22.6109C15.7534 22.6949 15.6523 22.7673 15.5282 22.8061C15.4022 22.8454 15.275 22.8435 15.1531 22.8124C14.9257 22.7547 14.7053 22.5935 14.4852 22.393L14.9118 21.9286ZM14.1057 20.6881C14.2825 21.1872 14.5478 21.5905 14.9141 21.9302L14.4834 22.3911C14.0406 21.9799 13.7201 21.4894 13.5102 20.8978L14.1057 20.6881ZM13.848 19.5154C13.8638 19.8145 13.9718 20.3056 14.106 20.6891L13.5098 20.8966C13.3624 20.4753 13.2373 19.924 13.2171 19.5487L13.848 19.5154ZM13.7858 18.7396C13.8105 19.0204 13.8382 19.3671 13.8477 19.5119L13.2174 19.5522C13.2086 19.4153 13.1811 19.0746 13.1568 18.7938L13.7858 18.7396ZM13.7947 16.9227C13.7423 17.5382 13.7407 18.2466 13.7858 18.738L13.1568 18.7953C13.1079 18.2611 13.1104 17.5152 13.1653 16.8698L13.7947 16.9227ZM13.9106 15.896C13.8622 16.2669 13.8139 16.6818 13.795 16.9211L13.1653 16.8714C13.1975 16.5183 13.2372 16.1661 13.2844 15.8148L13.9106 15.896ZM13.4619 14.6987C13.5496 14.9921 13.722 15.4058 13.8787 15.7124L13.316 15.9983C13.1461 15.6655 12.9576 15.2162 12.8565 14.8784L13.4619 14.6987ZM13.2115 13.4377C13.2162 13.4122 13.213 13.4056 13.2152 13.4428C13.2178 13.4817 13.2216 13.5205 13.2266 13.5593C13.2392 13.6578 13.2594 13.7853 13.285 13.9245C13.3365 14.204 13.4047 14.5101 13.4615 14.698L12.8568 14.8794C12.7905 14.659 12.717 14.3275 12.6639 14.0378C12.6371 13.8917 12.6143 13.7516 12.6001 13.637C12.5929 13.58 12.5875 13.5259 12.5847 13.479C12.5824 13.4412 12.5799 13.3779 12.591 13.3187L13.2115 13.4377ZM12.6469 13.1002C12.6616 13.0839 12.6778 13.069 12.6952 13.0555C12.7313 13.0276 12.7726 13.007 12.8167 12.9951C12.8971 12.9739 12.9825 12.9845 13.0552 13.0247C13.1279 13.0649 13.1822 13.1316 13.2067 13.2107C13.2272 13.2759 13.2234 13.3348 13.2225 13.3515C13.2206 13.3788 13.2168 13.4059 13.213 13.4299L12.5897 13.3266L12.5919 13.3127C12.5917 13.3148 12.5917 13.3219 12.5919 13.3338C12.5937 13.3566 12.5979 13.3791 12.6046 13.4009C12.629 13.4756 12.681 13.5382 12.7502 13.5759C12.8193 13.6137 12.9002 13.6237 12.9765 13.604C13.0286 13.5903 13.0763 13.5628 13.1139 13.5243L12.6469 13.1002ZM13.171 13.285L13.1682 13.3039L13.1676 13.3102L13.1679 13.2954C13.1637 13.2187 13.1304 13.1464 13.0747 13.0933C13.0428 13.0629 13.0047 13.0397 12.9631 13.0252C12.9214 13.0107 12.8771 13.0053 12.8332 13.0092C12.7757 13.0145 12.7211 13.0364 12.6759 13.0722L13.0845 13.5523C13.0308 13.6003 12.963 13.6296 12.8913 13.6361C12.8139 13.6435 12.7365 13.6228 12.6732 13.5778C12.61 13.5328 12.5652 13.4665 12.5471 13.3911C12.5322 13.3313 12.5367 13.2778 12.5379 13.262C12.54 13.2376 12.5431 13.2132 12.5471 13.189L13.171 13.285ZM13.1407 12.6242C13.1555 12.7507 13.1668 12.8777 13.1745 13.0048C13.1776 13.0558 13.1793 13.1068 13.1796 13.1578C13.1796 13.1912 13.1796 13.2535 13.1663 13.309L12.5518 13.1651C12.5455 13.1912 12.5483 13.1991 12.5483 13.1588C12.5483 13.1298 12.5469 13.0905 12.5439 13.0407C12.5382 12.9428 12.5275 12.8191 12.5133 12.696L13.1407 12.6242ZM13.0643 11.4917C13.078 11.8715 13.1036 12.2507 13.141 12.6289L12.513 12.6912C12.474 12.2998 12.4472 11.9075 12.4331 11.5144L13.0643 11.4917ZM12.5032 10.2771C12.568 10.2406 12.6433 10.2274 12.7167 10.2395C12.7901 10.2515 12.8571 10.2882 12.9067 10.3435C12.9629 10.4058 12.9825 10.476 12.9888 10.4968C13.0052 10.5638 13.0159 10.6321 13.021 10.7008C13.0359 10.8554 13.0485 11.1082 13.0643 11.4904L12.4331 11.5156C12.4173 11.1296 12.4053 10.8948 12.3924 10.76C12.3854 10.6876 12.3804 10.6656 12.381 10.6684C12.393 10.7041 12.4122 10.737 12.4375 10.7651C12.4839 10.8161 12.5462 10.8499 12.6144 10.861C12.6825 10.8721 12.7524 10.8595 12.8126 10.8258L12.5032 10.2771ZM12.166 9.69964C12.2796 9.83502 12.4372 9.99244 12.573 10.1127C12.6247 10.1598 12.679 10.2039 12.7356 10.2449C12.7561 10.2594 12.7621 10.2616 12.7571 10.2594C12.743 10.253 12.7283 10.248 12.7132 10.2446C12.652 10.2313 12.5882 10.2378 12.531 10.2632L12.7845 10.84C12.6882 10.8822 12.602 10.8652 12.5727 10.8586C12.5341 10.8497 12.5032 10.8362 12.4833 10.8271C12.4448 10.8078 12.4078 10.7854 12.3728 10.7603C12.3071 10.7144 12.2307 10.6517 12.154 10.584C11.9851 10.4353 11.8272 10.2747 11.6813 10.1036L12.166 9.69964ZM11.1583 7.7319C11.4801 8.66603 11.7804 9.23841 12.1663 9.69996L11.6809 10.103C11.2275 9.56017 10.8959 8.90877 10.5609 7.93686L11.1583 7.7319ZM10.3977 6.81226C10.4312 6.83394 10.4687 6.84865 10.508 6.85552C10.5474 6.86239 10.5877 6.86128 10.6266 6.85224C10.6714 6.84214 10.7134 6.8219 10.7491 6.79307C10.7849 6.76425 10.8135 6.72762 10.8328 6.68601C10.8511 6.64571 10.8536 6.61454 10.8539 6.61045C10.8546 6.60226 10.8543 6.60006 10.8546 6.60635C10.8558 6.63784 10.8666 6.71025 10.8925 6.82737C10.943 7.05248 11.0368 7.37897 11.1583 7.73253L10.5609 7.93686C10.4346 7.5685 10.3333 7.21872 10.2764 6.96464C10.2489 6.84185 10.2275 6.72442 10.2237 6.63406C10.2224 6.60677 10.223 6.57942 10.2253 6.5522C10.2292 6.50878 10.2401 6.46627 10.2575 6.42627C10.2783 6.37944 10.3098 6.33809 10.3494 6.30547C10.389 6.27285 10.4357 6.24986 10.4858 6.23831C10.5305 6.22843 10.5767 6.22771 10.6217 6.23621C10.6667 6.24471 10.7095 6.26224 10.7475 6.28774L10.3977 6.81226ZM10.6831 5.5529C10.7412 5.75362 10.7919 5.95641 10.835 6.16086C10.8555 6.2572 10.8729 6.34756 10.883 6.41525C10.8877 6.44673 10.8925 6.48514 10.8937 6.52009C10.8941 6.53048 10.8959 6.57455 10.8833 6.62398C10.8789 6.64067 10.8587 6.7219 10.7816 6.78802C10.734 6.82888 10.6753 6.8548 10.613 6.86253C10.5506 6.87026 10.4877 6.85945 10.4315 6.83146L10.7141 6.26853C10.6588 6.24079 10.5964 6.23004 10.535 6.23767C10.4735 6.24529 10.4157 6.27093 10.3689 6.31135C10.2935 6.37652 10.2745 6.45523 10.271 6.46877C10.2656 6.49168 10.2627 6.51512 10.2625 6.53866C10.2625 6.54307 10.2625 6.53551 10.2584 6.50812C10.2512 6.45901 10.2366 6.38345 10.2174 6.29183C10.1785 6.10922 10.1239 5.88726 10.0778 5.73299L10.6831 5.5529ZM10.391 5.74244H10.3917L10.3936 5.74212C10.4085 5.74016 10.4232 5.73668 10.4375 5.73173C10.4926 5.71395 10.5415 5.68078 10.5783 5.63613C10.6152 5.59149 10.6384 5.53726 10.6452 5.47986C10.6487 5.44806 10.6459 5.42476 10.6452 5.42004C10.644 5.4106 10.6433 5.41248 10.6515 5.44208C10.6582 5.4679 10.6686 5.50347 10.6838 5.55542L10.0772 5.7311C10.0519 5.64452 10.0266 5.56046 10.0191 5.50284C10.0175 5.49119 9.99318 5.35644 10.0892 5.23838C10.1297 5.18838 10.184 5.15137 10.2455 5.13196C10.2796 5.12126 10.3099 5.11811 10.3118 5.1178L10.391 5.74244ZM10.8353 5.88789C10.6866 5.84381 10.5496 5.80509 10.4488 5.7777C10.4015 5.76484 10.3541 5.75266 10.3064 5.74118C10.3049 5.74076 10.3074 5.74107 10.3137 5.74212L10.3329 5.74401C10.3383 5.74464 10.3633 5.74621 10.3951 5.74181L10.308 5.11843C10.3411 5.1137 10.3677 5.11528 10.3746 5.11591C10.3937 5.11682 10.4126 5.11946 10.4311 5.12378L10.4807 5.13511C10.5158 5.14361 10.5619 5.15558 10.6146 5.16974C10.721 5.19871 10.8625 5.23901 11.0147 5.28403L10.8353 5.88789ZM11.2291 5.4997L10.6212 5.67097V5.67034L11.2291 5.4997ZM18.2864 7.96992C18.2091 7.55748 18.1481 7.29554 17.9353 6.45051L18.5479 6.29718C18.761 7.1441 18.8261 7.42179 18.9072 7.85469L18.2864 7.96992ZM18.485 10.107C18.4977 9.41031 18.4449 8.831 18.2861 7.96929L18.9072 7.85532C19.072 8.74946 19.1301 9.37158 19.1166 10.1187L18.485 10.107ZM18.4749 10.8674C18.4743 10.8013 18.4781 10.4571 18.485 10.107L19.1166 10.1187C19.1096 10.4716 19.1058 10.8057 19.1065 10.8601L18.4749 10.8674ZM18.1964 12.4932C18.354 12.0335 18.4797 11.294 18.4749 10.8674L19.1065 10.8601C19.1118 11.3661 18.9723 12.1774 18.7942 12.6969L18.1964 12.4932ZM17.4815 13.7988C17.713 13.5419 18.0262 12.9818 18.1971 12.4916L18.7939 12.6985C18.6044 13.2409 18.2552 13.8823 17.9517 14.2192L17.4815 13.7988ZM17.3401 13.9031C17.3559 13.9116 17.3609 13.9112 17.3568 13.9106C17.3514 13.91 17.3473 13.9112 17.348 13.9106C17.3568 13.9081 17.3998 13.8886 17.4828 13.7973L17.9501 14.2207C17.8384 14.3435 17.7064 14.4562 17.545 14.5091C17.3653 14.568 17.1939 14.5387 17.0436 14.4587L17.3401 13.9031ZM17.0824 13.3395C17.131 13.4888 17.1925 13.6337 17.2662 13.7724C17.2891 13.8155 17.3152 13.8568 17.3445 13.8958C17.3694 13.9276 17.3707 13.9201 17.3451 13.9059L17.0382 14.4562C16.9536 14.4093 16.8898 14.3388 16.8462 14.2831C16.7961 14.2173 16.7512 14.1477 16.712 14.075C16.6293 13.9238 16.5494 13.7365 16.4831 13.5378L17.0824 13.3395ZM16.8304 11.3318C16.8462 12.4224 16.8945 12.7775 17.0824 13.3389L16.4831 13.5378C16.2652 12.8861 16.2147 12.4557 16.1989 11.3406L16.8304 11.3318ZM16.8794 10.3703C16.8314 10.6335 16.8213 10.7991 16.8304 11.3308L16.1989 11.3415C16.1894 10.7962 16.1989 10.5821 16.2579 10.2579L16.8794 10.3703ZM18.0764 7.22312C17.4152 8.45949 17.0502 9.43298 16.8794 10.3703L16.2579 10.2579C16.4442 9.2362 16.839 8.19944 17.5194 6.92686L18.0764 7.22312ZM18.1699 7.04902L18.0764 7.22312L17.5194 6.92686L17.6129 6.75244L18.1699 7.04902ZM18.1282 6.62713C18.1826 6.64438 18.2408 6.64612 18.2961 6.63215C18.3515 6.61819 18.4018 6.58908 18.4415 6.54811C18.4471 6.5416 18.4504 6.53761 18.4513 6.53614C18.4516 6.53583 18.4427 6.54874 18.4184 6.59124C18.3723 6.67153 18.2972 6.81163 18.1699 7.04902L17.6129 6.75244C17.7376 6.51946 17.8181 6.36928 17.8699 6.27892C17.8928 6.23766 17.918 6.19772 17.9454 6.15928C17.9665 6.13071 17.9912 6.10499 18.019 6.08278C18.0607 6.04963 18.1099 6.02721 18.1623 6.0175C18.2147 6.00778 18.2687 6.01106 18.3196 6.02705L18.1282 6.62713ZM17.9309 6.43351C17.9271 6.41777 17.9302 6.43225 17.9366 6.44925C17.9533 6.49122 17.9792 6.52896 18.0124 6.55977C18.0455 6.59058 18.0851 6.61338 18.1282 6.62713L18.3196 6.02705C18.3672 6.04212 18.4106 6.0679 18.4466 6.10241C18.4826 6.13691 18.5101 6.17921 18.527 6.22603C18.5378 6.25405 18.5444 6.28333 18.5447 6.28459L17.9309 6.43351ZM17.9366 6.45555L17.9309 6.43351L18.5447 6.28459L18.546 6.28994C18.546 6.2912 18.5462 6.29193 18.5466 6.29214L17.9366 6.45555ZM20.4115 13.5684C20.4103 13.3993 20.421 12.991 20.4361 12.6572L21.067 12.6853C21.0522 13.0165 21.0418 13.4116 21.043 13.5637L20.4115 13.5684ZM20.9925 13.6757C20.9679 13.6286 20.9315 13.5884 20.887 13.5592C20.8424 13.5299 20.7911 13.5124 20.7379 13.5085C20.6847 13.5045 20.6313 13.5141 20.5829 13.5365C20.5344 13.5588 20.4925 13.5931 20.4611 13.6361C20.4301 13.6786 20.4181 13.7179 20.4159 13.7252C20.4118 13.739 20.4096 13.7497 20.409 13.7535C20.4068 13.7645 20.4077 13.7648 20.409 13.7425C20.4116 13.6847 20.4125 13.6268 20.4115 13.569L21.043 13.563C21.0437 13.6449 21.0427 13.7211 21.0399 13.7771C21.0383 13.8014 21.0358 13.8369 21.0298 13.8697C21.0279 13.8791 21.0247 13.8939 21.0194 13.9112C21.0071 13.9522 20.9867 13.9902 20.9594 14.0231C20.9321 14.0559 20.8983 14.083 20.8603 14.1026C20.8222 14.1221 20.7806 14.1339 20.7379 14.137C20.6952 14.1402 20.6523 14.1347 20.6117 14.1209C20.5337 14.0946 20.4691 14.0389 20.4317 13.9657L20.9925 13.6757ZM20.3746 14.0721C20.3751 14.0003 20.378 13.9287 20.3834 13.8571C20.3853 13.826 20.3895 13.795 20.396 13.7645C20.3967 13.7623 20.4074 13.7028 20.4466 13.6449C20.4759 13.6015 20.5155 13.566 20.5619 13.5416C20.6082 13.5172 20.66 13.5046 20.7124 13.5049C20.7649 13.5052 20.8164 13.5185 20.8625 13.5436C20.9086 13.5686 20.9477 13.6046 20.9764 13.6484L20.4481 13.9931C20.4815 14.0437 20.5289 14.0835 20.5845 14.1077C20.6401 14.132 20.7016 14.1396 20.7615 14.1296C20.8214 14.1196 20.8771 14.0925 20.9218 14.0516C20.9665 14.0106 20.9983 13.9576 21.0134 13.899C21.0156 13.8883 21.0146 13.8886 21.0127 13.91C21.0096 13.9459 21.0071 14.0054 21.0061 14.0803L20.3746 14.0721ZM20.0942 15.9608C20.2331 15.3885 20.3708 14.4323 20.3746 14.0731L21.0061 14.0794C21.0017 14.5031 20.8536 15.5097 20.708 16.1091L20.0942 15.9608ZM19.4371 17.7032C19.7121 17.2167 19.9316 16.6381 20.0942 15.9615L20.7083 16.1082C20.5347 16.8298 20.2963 17.4651 19.9871 18.0123L19.4371 17.7032ZM21.1299 17.6175C20.693 17.7642 20.266 17.9388 19.8517 18.1402L19.5722 17.5753C20.0113 17.3618 20.4641 17.1767 20.9272 17.0212L21.1299 17.6175ZM21.7883 17.394C21.5685 17.4737 21.347 17.5489 21.1239 17.6194L20.9332 17.019C21.1475 16.9512 21.3604 16.8789 21.5716 16.8021L21.7883 17.394ZM21.4466 17.0924C21.447 17.1593 21.4692 17.2242 21.5099 17.2774C21.5506 17.3306 21.6075 17.3692 21.6721 17.3874C21.7267 17.4025 21.769 17.3968 21.7731 17.3965C21.7914 17.3943 21.7955 17.3915 21.7797 17.3965L21.5802 16.7993C21.6205 16.7854 21.6619 16.7757 21.7043 16.7703C21.7498 16.7654 21.7958 16.7689 21.84 16.7804C21.908 16.7986 21.9681 16.8387 22.0111 16.8943C22.054 16.9499 22.0775 17.0181 22.0778 17.0883L21.4466 17.0924ZM21.3222 17.3685C21.3674 17.2543 21.4109 17.1395 21.4526 17.0241L21.458 17.0077L21.4564 17.014L21.4526 17.0297C21.4526 17.0313 21.4463 17.0587 21.4466 17.0943L22.0781 17.0864C22.0782 17.1233 22.0724 17.1599 22.0611 17.195L22.0497 17.229C22.005 17.3533 21.9583 17.477 21.9098 17.5999L21.3222 17.3685ZM21.6452 18.3029C21.6319 18.3143 21.5937 18.3467 21.5356 18.3672C21.4906 18.3831 21.4425 18.3888 21.3949 18.3838C21.3474 18.3788 21.3016 18.3632 21.2608 18.3382C21.2201 18.3133 21.1855 18.2795 21.1596 18.2395C21.1336 18.1994 21.117 18.1541 21.1109 18.1068C21.1074 18.0796 21.1069 18.0522 21.1094 18.0249C21.1163 17.9703 21.1286 17.9166 21.146 17.8644C21.1996 17.6996 21.2576 17.5362 21.3197 17.3745L21.9114 17.5949C21.8277 17.8184 21.7756 17.9648 21.7497 18.0489C21.7343 18.0992 21.7365 18.1011 21.7384 18.0819C21.7398 18.0618 21.7393 18.0415 21.7368 18.0215C21.7301 17.9762 21.7134 17.933 21.6881 17.8949C21.6627 17.8568 21.6292 17.8247 21.5899 17.801C21.5507 17.7773 21.5067 17.7626 21.461 17.7578C21.4154 17.753 21.3693 17.7583 21.326 17.7734C21.2713 17.7923 21.2379 17.8215 21.23 17.8285L21.6452 18.3029ZM21.1501 18.3901C21.1645 18.3186 21.171 18.2458 21.1697 18.1729C21.1678 18.1389 21.164 18.165 21.1855 18.2094C21.2045 18.2476 21.2316 18.2812 21.265 18.3079C21.2984 18.3345 21.3372 18.3536 21.3787 18.3637C21.4275 18.3762 21.4786 18.3762 21.5273 18.3635C21.576 18.3509 21.6207 18.3262 21.6572 18.2916L21.2177 17.8395C21.2552 17.8033 21.3699 17.712 21.5328 17.7526C21.6781 17.7891 21.7384 17.9034 21.7538 17.9358C21.7824 17.9996 21.7982 18.0684 21.8003 18.1383C21.8059 18.2444 21.7949 18.3794 21.7703 18.5079L21.1501 18.3901ZM19.7364 21.1702C19.9824 20.8443 20.3127 20.2748 20.5981 19.709C20.8886 19.1335 21.1049 18.6162 21.1507 18.3876L21.7696 18.5104C21.7049 18.835 21.4485 19.4247 21.1624 19.992C20.8713 20.5688 20.5211 21.178 20.241 21.5486L19.7364 21.1702ZM18.4787 22.387C18.6186 22.3177 18.8229 22.1641 19.0566 21.9409C19.3035 21.7031 19.5305 21.4457 19.7355 21.1711L20.2423 21.547C20.0108 21.8562 19.7481 22.1515 19.4939 22.3946C19.2445 22.6335 18.9855 22.8391 18.7601 22.9509L18.4787 22.387ZM18.612 23.0409C18.5993 23.045 18.5817 23.0507 18.5621 23.0551C18.5526 23.0573 18.5365 23.0608 18.5166 23.0627C18.5059 23.0636 18.4544 23.0693 18.3928 23.0513C18.3243 23.0312 18.2646 22.9886 18.2234 22.9304C18.1821 22.8723 18.1617 22.8019 18.1655 22.7308C18.1718 22.6168 18.2381 22.546 18.2425 22.5403C18.2728 22.5057 18.3057 22.4834 18.312 22.4789C18.3661 22.4442 18.4226 22.4132 18.4809 22.3861L18.7575 22.9521C18.6925 22.9836 18.6691 22.9984 18.6723 22.9962L18.6855 22.9862C18.7153 22.9622 18.7399 22.9326 18.7579 22.8989C18.7893 22.8423 18.8022 22.7773 18.795 22.713C18.7877 22.6487 18.7605 22.5882 18.7171 22.54C18.678 22.4961 18.6274 22.4639 18.5709 22.4471C18.5109 22.4295 18.462 22.4352 18.4544 22.4361C18.4434 22.4372 18.4324 22.4389 18.4216 22.4412C18.4121 22.4434 18.4074 22.4453 18.4118 22.4437L18.612 23.0409ZM19.0765 22.8867C18.8895 22.9481 18.6805 23.0173 18.6145 23.04L18.4093 22.4446C18.4797 22.4204 18.6925 22.3502 18.8788 22.2885L19.0765 22.8867ZM20.7298 22.501C20.3048 22.5614 19.4778 22.7566 19.0752 22.887L18.8801 22.2882C19.3149 22.1474 20.1772 21.9434 20.6404 21.8776L20.7298 22.501ZM21.0629 22.4534L20.7298 22.501L20.6404 21.8776L20.9733 21.8301L21.0629 22.4534ZM20.5445 22.3968L20.7339 22.0048L21.3023 22.2784L21.1131 22.6701L20.5445 22.3968ZM20.8302 23.2588C20.829 23.2597 20.8116 23.2758 20.7936 23.2893C20.7873 23.2944 20.7589 23.3161 20.7178 23.3325C20.7014 23.3394 20.5211 23.4124 20.3724 23.2635C20.3387 23.2302 20.3129 23.1898 20.2971 23.1452C20.2812 23.1006 20.2757 23.053 20.2808 23.006C20.2829 22.9824 20.2877 22.9592 20.295 22.9367C20.302 22.9146 20.3102 22.8928 20.3196 22.8715C20.3493 22.8017 20.4181 22.659 20.5438 22.3971L21.1135 22.6694C20.9827 22.9414 20.9231 23.0655 20.9003 23.1187C20.8946 23.1322 20.8959 23.1303 20.8987 23.1209C20.8997 23.1178 20.9063 23.0973 20.9092 23.0683C20.9135 23.0227 20.9076 22.9766 20.8921 22.9335C20.8765 22.8903 20.8516 22.8511 20.8192 22.8187C20.6714 22.671 20.493 22.744 20.4791 22.7497C20.4412 22.7654 20.4159 22.7843 20.4134 22.7865C20.4033 22.7944 20.396 22.8013 20.4065 22.7919L20.8302 23.2588ZM20.3585 23.3202C20.3713 23.2653 20.375 23.2088 20.3702 23.1527C20.3691 23.1458 20.3692 23.1452 20.3705 23.1511C20.3711 23.1536 20.3777 23.1773 20.3986 23.2078C20.4212 23.2401 20.4503 23.2674 20.484 23.288C20.5176 23.3085 20.5552 23.322 20.5943 23.3274C20.6363 23.3339 20.6792 23.3311 20.7199 23.3192C20.7607 23.3074 20.7983 23.2867 20.8302 23.2588L20.4065 22.7919C20.444 22.7576 20.4886 22.732 20.5372 22.717C20.5858 22.702 20.6371 22.6979 20.6875 22.705C20.7344 22.7125 20.7792 22.7295 20.8192 22.755C20.8593 22.7804 20.8936 22.8138 20.9202 22.853C20.9625 22.9192 20.9887 22.9943 20.9966 23.0724C21.0115 23.1864 21.0042 23.3306 20.9733 23.4628L20.3585 23.3202ZM18.977 25.6295C19.2186 25.3304 19.5485 24.8324 19.8308 24.3563C19.9586 24.143 20.0793 23.9255 20.1927 23.7043C20.2931 23.5053 20.3455 23.3756 20.3582 23.3211L20.9736 23.4625C20.9417 23.6004 20.8552 23.7925 20.7566 23.9877C20.6528 24.1926 20.5198 24.4322 20.3743 24.6772C20.0853 25.1642 19.738 25.6909 19.469 26.0243L18.977 25.6295ZM17.9539 26.6342C18.2157 26.451 18.6492 26.0319 18.9779 25.6286L19.468 26.0253C19.1175 26.4563 18.642 26.9216 18.3171 27.1493L17.9539 26.6342ZM17.2169 27.034C17.2501 27.0284 17.341 26.9963 17.4885 26.9191C17.6265 26.8467 17.7891 26.7478 17.9561 26.6326L18.3148 27.1508C18.1314 27.2774 17.947 27.3901 17.7828 27.4764C17.6281 27.5576 17.4613 27.6313 17.3227 27.6546L17.2169 27.034ZM17.0524 27.0617L17.2169 27.034L17.3224 27.6549L17.1576 27.6826L17.0524 27.0617ZM17.2412 27.6983L17.0811 27.6857L17.1291 27.0583L17.2896 27.0706L17.2412 27.6983ZM18.0379 27.7468C17.6997 27.7295 17.3328 27.7084 17.2308 27.6974L17.3 27.0715C17.3789 27.08 17.7212 27.1001 18.0704 27.1181L18.0379 27.7468ZM18.5191 27.7377C18.5646 27.7692 18.6082 27.7802 18.6085 27.7802L18.6319 27.7859L18.6398 27.7874L18.6117 27.7843C18.5813 27.7815 18.5362 27.778 18.479 27.7736C18.3644 27.7654 18.2078 27.756 18.0373 27.7468L18.0704 27.1181C18.2441 27.1275 18.4048 27.137 18.5239 27.1458C18.5832 27.1499 18.6344 27.154 18.672 27.1574C18.6997 27.1604 18.7274 27.1641 18.755 27.1685C18.7651 27.1704 18.7751 27.1728 18.785 27.1757C18.7872 27.1763 18.8317 27.1877 18.8778 27.2198L18.5191 27.7377ZM18.4421 27.3246C18.4225 27.3473 18.4078 27.3738 18.3988 27.4024C18.3893 27.4322 18.3849 27.4634 18.3856 27.4946C18.3876 27.565 18.4141 27.6325 18.4607 27.6854L18.9366 27.2717C18.987 27.3295 19.0154 27.403 19.0171 27.4795C19.0181 27.5195 19.0121 27.5593 18.9994 27.5973C18.9814 27.6524 18.9521 27.6993 18.9205 27.7358L18.4421 27.3246ZM18.3957 28.4845C18.3565 28.5066 18.313 28.5202 18.2682 28.5244C18.2233 28.5286 18.1781 28.5232 18.1355 28.5087C17.9302 28.4392 17.9208 28.2405 17.9208 28.2103C17.9207 28.1626 17.9305 28.1155 17.9495 28.0717C17.9642 28.0383 17.9809 28.0057 17.9994 27.9741C18.0441 27.8974 18.0909 27.8218 18.1396 27.7475C18.1939 27.6637 18.2533 27.5756 18.306 27.5006C18.3514 27.4336 18.4014 27.3699 18.4557 27.3098L18.9066 27.7506C18.9091 27.7481 18.9022 27.7553 18.8832 27.7802C18.8664 27.8022 18.8461 27.8299 18.8223 27.8633C18.7749 27.9301 18.7206 28.0113 18.6701 28.0891C18.6189 28.1678 18.5753 28.2386 18.5482 28.2858C18.533 28.3126 18.5299 28.3201 18.5318 28.3151L18.5397 28.2931C18.5416 28.2874 18.5523 28.2531 18.5523 28.2065C18.552 28.1791 18.5428 27.982 18.3395 27.9127C18.2981 27.8989 18.2543 27.8938 18.2108 27.8977C18.1673 27.9016 18.1251 27.9144 18.0869 27.9354L18.3957 28.4845ZM18.0262 28.4058C18.0262 28.3746 18.0243 28.3564 18.0231 28.3475C18.0215 28.3359 18.0218 28.3513 18.0357 28.3781C18.0523 28.4083 18.0747 28.435 18.1017 28.4566C18.1287 28.4781 18.1597 28.4941 18.193 28.5037C18.2259 28.514 18.2606 28.5178 18.295 28.5147C18.3294 28.5116 18.3629 28.5018 18.3935 28.4858L18.0891 27.9338C18.1321 27.9095 18.1797 27.894 18.2289 27.8883C18.2781 27.8826 18.3279 27.8869 18.3755 27.9008C18.498 27.9376 18.5643 28.0267 18.5956 28.0865C18.6508 28.192 18.6574 28.317 18.6578 28.4036L18.0262 28.4058ZM17.5911 29.111C17.7414 28.9228 17.8567 28.754 17.9324 28.618C18.0171 28.4662 18.0262 28.4017 18.0262 28.4048L18.6578 28.4042C18.6578 28.5767 18.5728 28.7656 18.4844 28.924C18.3872 29.0987 18.2504 29.2965 18.0856 29.5033L17.5911 29.111ZM14.4312 31.4859C15.4126 31.3347 16.3571 30.6629 17.5911 29.1117L18.0859 29.503C16.8254 31.087 15.7524 31.9194 14.5276 32.1083L14.4312 31.4859ZM14.0015 31.5328C13.981 31.5287 13.9781 31.5312 14.0135 31.5302C14.0501 31.5288 14.0866 31.5263 14.1231 31.5227C14.2137 31.5145 14.3255 31.5006 14.4357 31.4852L14.5238 32.1086C14.4079 32.1253 14.2847 32.1401 14.1805 32.1495C14.1284 32.1546 14.0779 32.158 14.0334 32.1596C13.9971 32.1606 13.9387 32.1615 13.8843 32.1514L14.0015 31.5328ZM14.2866 32.2887C14.1319 32.2452 14.0015 32.2056 13.9166 32.1769C13.8799 32.1643 13.8345 32.1486 13.8007 32.1322C13.7482 32.1082 13.7031 32.0706 13.6703 32.0233C13.6418 31.983 13.5651 31.8435 13.6545 31.6864C13.7227 31.5674 13.837 31.5403 13.8525 31.5365C13.8941 31.5254 13.9377 31.523 13.9803 31.5293L13.9052 32.1546C13.9397 32.1578 13.9745 32.1551 14.0081 32.1467C14.0223 32.1432 14.1357 32.1165 14.2036 31.9981C14.2926 31.8419 14.2162 31.7031 14.1884 31.6634C14.1587 31.6209 14.1259 31.5973 14.1174 31.591C14.0953 31.5746 14.0763 31.5658 14.0757 31.5658C14.0688 31.562 14.0776 31.5665 14.1186 31.5803C14.1894 31.6042 14.3081 31.6408 14.4578 31.6826L14.2866 32.2887ZM15.1676 32.3447C15.1667 32.4199 15.1937 32.4931 15.2434 32.5497C15.2589 32.5675 15.2769 32.5831 15.2968 32.596C15.3113 32.6057 15.3179 32.6073 15.304 32.6013C15.2797 32.5909 15.2314 32.5733 15.1471 32.5459C14.9807 32.4918 14.7079 32.4105 14.2844 32.2881L14.46 31.6836C14.7556 31.7671 15.0499 31.8549 15.3429 31.9471C15.4303 31.9754 15.5014 32.0006 15.5532 32.0227C15.5845 32.0359 15.6147 32.0517 15.6435 32.0699C15.6593 32.08 15.688 32.1004 15.7161 32.1322C15.7698 32.1921 15.7993 32.2698 15.7988 32.3501L15.1676 32.3447ZM15.0227 32.4036C15.0827 32.3406 15.1364 32.2808 15.1736 32.2364C15.1867 32.2213 15.1994 32.2058 15.2115 32.1898C15.1977 32.2111 15.1873 32.2344 15.1806 32.2588C15.1714 32.2894 15.1669 32.3213 15.1673 32.3532L15.7988 32.3419C15.8004 32.4197 15.771 32.4779 15.7691 32.482C15.7609 32.4999 15.7527 32.5141 15.748 32.522C15.7379 32.5384 15.7268 32.5535 15.7189 32.5645C15.7016 32.5875 15.6801 32.6142 15.657 32.6413C15.6103 32.6967 15.5481 32.7666 15.4799 32.8378L15.0227 32.4036ZM15.2267 33.1608C15.2102 33.1759 15.1834 33.2001 15.154 33.22C15.1452 33.2257 15.1307 33.2351 15.112 33.2442C15.0597 33.2705 15.0011 33.2818 14.9428 33.2769C14.8844 33.272 14.8286 33.2511 14.7814 33.2164C14.7342 33.1818 14.6976 33.1348 14.6756 33.0807C14.6536 33.0266 14.6471 32.9675 14.6567 32.9099C14.6662 32.851 14.6911 32.8075 14.6936 32.8022C14.701 32.7891 14.7088 32.7763 14.717 32.7638C14.7306 32.7434 14.7449 32.7236 14.76 32.7043C14.8193 32.6275 14.9182 32.5122 15.0233 32.403L15.4793 32.8384C15.3871 32.9344 15.3037 33.032 15.2614 33.0874C15.2509 33.1011 15.2451 33.1088 15.244 33.1107C15.2431 33.112 15.2462 33.1079 15.2503 33.0997C15.2651 33.0714 15.2753 33.0409 15.2803 33.0094C15.2877 32.9623 15.2842 32.9142 15.2701 32.8687C15.256 32.8232 15.2317 32.7815 15.1991 32.7467C15.1664 32.7119 15.1263 32.685 15.0816 32.668C15.037 32.651 14.9891 32.6444 14.9415 32.6486C14.8918 32.6535 14.844 32.6701 14.802 32.697C14.7862 32.7074 14.7814 32.7134 14.7966 32.6996L15.2267 33.1608ZM14.8108 33.1542C14.8108 33.134 14.8042 33.117 14.8054 33.1199C14.823 33.1484 14.8466 33.1726 14.8746 33.191C14.9279 33.2254 14.9911 33.2412 15.0543 33.2361C15.1176 33.2309 15.1774 33.2051 15.2245 33.1627L14.7988 32.6977C14.8558 32.6457 14.9286 32.6143 15.0057 32.6086C15.0827 32.6029 15.1594 32.6231 15.2235 32.6662C15.3034 32.7188 15.3467 32.7921 15.3675 32.8324C15.4149 32.9243 15.4423 33.0402 15.4423 33.1532L14.8108 33.1542ZM12.1814 35.1562C12.6851 34.9513 13.364 34.5089 13.9226 34.0553C14.2004 33.8301 14.4379 33.6104 14.6027 33.4259C14.6684 33.355 14.7278 33.2785 14.7802 33.1973C14.8219 33.1284 14.8108 33.1199 14.8108 33.1542L15.4423 33.1532C15.4423 33.2974 15.3773 33.4297 15.3201 33.5238C15.257 33.6277 15.1711 33.7366 15.0738 33.8449C14.8793 34.0628 14.6144 34.3059 14.3214 34.5436C13.7391 35.0165 13.0049 35.501 12.4205 35.7393L12.1814 35.1562ZM11.3023 35.3511C11.6203 35.3231 11.9519 35.2507 12.1808 35.1566L12.4211 35.739C12.1173 35.8637 11.7201 35.9465 11.3582 35.9783L11.3023 35.3511ZM11.5287 35.4201C11.5656 35.4494 11.6017 35.4796 11.637 35.5108C11.6529 35.5246 11.6681 35.5392 11.6825 35.5545C11.7058 35.5786 11.7255 35.6059 11.7412 35.6354C11.7594 35.6696 11.7711 35.7069 11.7757 35.7453L11.1489 35.8215C11.1568 35.8822 11.1824 35.9394 11.2224 35.9858L11.2152 35.9792C11.1986 35.9645 11.1708 35.9413 11.1318 35.9097L11.5287 35.4201ZM11.7779 35.7928C11.7757 35.8657 11.749 35.9357 11.7021 35.9915C11.6831 36.0148 11.6642 36.0328 11.6522 36.0431C11.6269 36.0652 11.5985 36.0863 11.5733 36.1039C11.5212 36.1404 11.4539 36.1826 11.3848 36.2242L11.0592 35.6845C11.1106 35.6541 11.1611 35.6221 11.2104 35.5885L11.2341 35.5709L11.2278 35.5769C11.2244 35.58 11.2192 35.586 11.212 35.5948C11.1715 35.646 11.1485 35.7088 11.1467 35.774L11.7779 35.7928ZM11.3841 36.2245C11.2591 36.2991 11.1962 36.3448 11.1789 36.3608C11.1751 36.364 11.1852 36.3558 11.1981 36.3375C11.2406 36.2756 11.2581 36.2001 11.2474 36.1259C11.2385 36.0647 11.2112 36.0075 11.169 35.9621C11.1268 35.9167 11.0718 35.8851 11.0112 35.8716C10.9844 35.8659 10.9632 35.8656 10.9534 35.8659C10.9423 35.8661 10.9353 35.8665 10.9326 35.8671L11.0178 36.4908C10.9945 36.494 10.9414 36.5006 10.8808 36.4877C10.8208 36.4751 10.6512 36.414 10.6225 36.216C10.6029 36.0803 10.6749 35.9846 10.6856 35.9695C10.7056 35.9425 10.7283 35.9176 10.7532 35.8952C10.8224 35.8325 10.9345 35.7592 11.0598 35.6842L11.3841 36.2245ZM10.9263 35.8681C11.1249 35.8372 11.2461 35.9701 11.2894 36.0346C11.3319 36.0999 11.3605 36.1732 11.3734 36.25L10.7526 36.3665C10.7491 36.3476 10.7479 36.3596 10.7652 36.3857C10.7847 36.4137 10.81 36.4373 10.8394 36.4546C10.8949 36.4875 10.9601 36.5001 11.0238 36.4902L10.9263 35.8681ZM11.3737 36.2525C11.3975 36.3774 11.3879 36.5062 11.3459 36.6262C11.3017 36.75 11.2259 36.8545 11.1343 36.9455C10.9582 37.1193 10.6875 37.2754 10.3402 37.4417L10.0674 36.8737C10.4084 36.7106 10.5947 36.5919 10.6894 36.4981C10.733 36.4553 10.7463 36.4279 10.7507 36.4156C10.7561 36.3988 10.7566 36.3808 10.7523 36.3636L11.3737 36.2525ZM10.3402 37.4417C9.22776 37.9734 8.23879 38.2385 7.36633 38.1973C6.48061 38.1557 5.73793 37.7993 5.13387 37.1394L5.60057 36.715C6.09538 37.2556 6.6827 37.5348 7.39633 37.5685C8.12322 37.6025 9.00325 37.3825 10.0674 36.8737L10.3402 37.4417ZM5.13577 37.141C4.83516 36.8173 4.62107 36.4367 4.76001 36.0444L5.35522 36.2538C5.34259 36.29 5.3268 36.4203 5.59899 36.7131L5.13577 37.141ZM4.75716 36.0513C4.76285 36.0346 4.75969 36.04 4.75843 36.0551C4.75691 36.0712 4.75852 36.0875 4.76316 36.103C4.76506 36.1089 4.76443 36.1036 4.75053 36.0797C4.72976 36.0445 4.70786 36.0101 4.68485 35.9764L5.20934 35.6257C5.27186 35.7185 5.33564 35.8171 5.36691 35.9175C5.4089 36.0538 5.3849 36.1634 5.35775 36.2465L4.75716 36.0513ZM4.68138 35.9707C4.64033 35.9068 4.60054 35.8438 4.57086 35.7938C4.55602 35.7692 4.54181 35.7444 4.53013 35.7226C4.51737 35.6977 4.50629 35.6719 4.49697 35.6455C4.49445 35.6367 4.48119 35.5967 4.48213 35.5448L5.11366 35.5514C5.11382 35.5199 5.10924 35.4886 5.10008 35.4585C5.09587 35.4457 5.09293 35.4375 5.09124 35.4339L5.08903 35.4295L5.11366 35.472C5.13829 35.5133 5.17366 35.5696 5.21281 35.631L4.68138 35.9707ZM4.48213 35.541C4.48371 35.4717 4.50866 35.4207 4.51181 35.4135C4.51782 35.3999 4.52479 35.3867 4.53266 35.3741C4.54158 35.36 4.55106 35.3462 4.56107 35.3329C4.57943 35.3086 4.59849 35.2849 4.61823 35.2617C4.66086 35.2113 4.71675 35.1487 4.77706 35.0851L5.23681 35.517C5.18313 35.5737 5.13482 35.6276 5.10103 35.6672C5.08419 35.6876 5.07324 35.7012 5.06819 35.7082C5.06503 35.7122 5.06724 35.7097 5.07135 35.7028C5.09788 35.658 5.11235 35.6072 5.11335 35.5551L4.48213 35.541ZM4.778 35.0838C5.33059 34.5048 5.91318 34.0874 6.5226 33.8538L6.74932 34.4412C6.24915 34.6333 5.74203 34.9875 5.23555 35.518L4.778 35.0838ZM6.78785 33.7955C6.82353 33.8742 6.85258 33.9167 6.87089 33.9369L6.40104 34.3578C6.32304 34.2712 6.2621 34.1654 6.21221 34.0546L6.78785 33.7955ZM6.54092 32.7282C6.55639 33.0245 6.68238 33.5543 6.78943 33.7993L6.21063 34.0508C6.07232 33.7347 5.9296 33.1306 5.91034 32.7613L6.54092 32.7282ZM6.49955 31.9767C6.51787 32.261 6.53524 32.6001 6.54092 32.731L5.91002 32.7584C5.90465 32.6319 5.88729 32.2969 5.86929 32.017L6.49955 31.9767ZM6.60755 30.5914C6.48977 31.1222 6.46387 31.4317 6.49955 31.9767L5.86929 32.0176C5.82982 31.4112 5.86076 31.0422 5.99117 30.4557L6.60755 30.5914ZM7.93849 27.7383C7.20339 28.8478 6.80111 29.7196 6.60755 30.5914L5.99117 30.4554C6.20716 29.4832 6.65081 28.5386 7.4118 27.3911L7.93849 27.7383ZM8.18226 26.5989C8.19701 26.65 8.22486 26.6963 8.26307 26.7334C8.30128 26.7704 8.34853 26.7969 8.40014 26.8102C8.4668 26.8276 8.53747 26.8214 8.60002 26.7926C8.64012 26.7737 8.65654 26.7529 8.63854 26.7705C8.61518 26.7932 8.57034 26.8448 8.5015 26.9342C8.3673 27.1077 8.17469 27.3819 7.93849 27.7383L7.41148 27.3914C7.65083 27.0299 7.85355 26.7415 8.0007 26.5501C8.06064 26.4694 8.12605 26.3928 8.19647 26.3209C8.23522 26.2813 8.28023 26.2483 8.32973 26.2233C8.40062 26.1895 8.48113 26.1814 8.55739 26.2003C8.61288 26.2145 8.66362 26.2431 8.70449 26.2831C8.74535 26.3231 8.77489 26.3732 8.79011 26.4283L8.18226 26.5989ZM8.27194 27.2242L8.20784 26.7771C8.18826 26.6439 8.17848 26.5838 8.17942 26.5873L8.79327 26.4399C8.80848 26.5214 8.82154 26.6033 8.83242 26.6855C8.85042 26.807 8.87347 26.9673 8.89716 27.1364L8.27194 27.2242ZM8.37109 29.021C8.35341 27.9845 8.33952 27.7226 8.27163 27.2226L8.89779 27.1376C8.97136 27.6769 8.98494 27.97 9.00262 29.0106L8.37109 29.021ZM8.24636 31.3602C8.37267 30.7129 8.39698 30.3411 8.37109 29.0219L9.00262 29.0096C9.02851 30.3427 9.00515 30.7674 8.86621 31.4802L8.24636 31.3602ZM7.08561 33.741C7.63189 33.1891 8.05185 32.3397 8.24636 31.3593L8.8659 31.4814C8.6537 32.5525 8.18795 33.5241 7.53495 34.1834L7.08561 33.741ZM7.07267 33.7543L7.08498 33.7417L7.53558 34.1828L7.51979 34.1988L7.07267 33.7543ZM7.25392 33.6645C7.41052 33.6431 7.56858 33.6341 7.72662 33.6375L7.71335 34.2668C7.5881 34.2643 7.46327 34.2714 7.33886 34.2882L7.25392 33.6645ZM7.72598 33.6375C8.23216 33.6469 8.79864 33.7927 9.36796 34.0405L9.11535 34.6172C8.5975 34.3918 8.11438 34.2744 7.71399 34.2671L7.72598 33.6375ZM9.53468 34.2911C9.53378 34.2352 9.51739 34.1808 9.48732 34.1336C9.47911 34.1211 9.47311 34.1151 9.47469 34.117L9.00831 34.541C8.99567 34.5275 8.97862 34.5077 8.96252 34.4834C8.92481 34.4292 8.90424 34.3646 8.90347 34.2986L9.53468 34.2911ZM9.69825 34.0691C9.64268 34.1636 9.5931 34.2517 9.55774 34.3172C9.54005 34.3504 9.52742 34.3748 9.51984 34.3906L9.51605 34.3984C9.5169 34.397 9.519 34.3912 9.52237 34.3811C9.52405 34.3757 9.52616 34.3669 9.52869 34.355C9.53286 34.3339 9.53487 34.3125 9.53468 34.2911L8.90316 34.2989C8.90252 34.2457 8.9161 34.2042 8.91768 34.1988C8.92111 34.187 8.92522 34.1755 8.93 34.1642C8.93633 34.1488 8.94307 34.1336 8.9502 34.1185C8.9665 34.0854 8.98345 34.0525 9.00104 34.02C9.05017 33.9292 9.10102 33.8394 9.15356 33.7505L9.69825 34.0691ZM11.7059 32.2578C10.9335 32.5311 10.2496 33.1321 9.69825 34.0691L9.15356 33.7505C9.76014 32.7194 10.5492 31.999 11.4943 31.6644L11.7059 32.2578ZM13.2651 32.0998C13.1101 32.084 12.7931 32.0963 12.458 32.1306C12.1199 32.1653 11.8246 32.2163 11.7046 32.2582L11.4953 31.6641C11.6942 31.5948 12.0576 31.5387 12.3936 31.5041C12.7331 31.4695 13.1057 31.4506 13.3302 31.4736L13.2651 32.0998ZM13.5667 31.4603C13.6295 31.4714 13.6916 31.4843 13.7536 31.4991C13.7652 31.502 13.7786 31.5058 13.7937 31.5104C13.7997 31.5126 13.837 31.5243 13.8758 31.5491C13.8828 31.5535 13.9639 31.6017 14.0021 31.7066C14.0264 31.772 14.0283 31.8436 14.0074 31.9101C13.9864 31.9767 13.944 32.0344 13.8866 32.0743C13.8335 32.1118 13.782 32.1225 13.7713 32.1247C13.752 32.1291 13.7356 32.131 13.7265 32.1319C13.6766 32.1363 13.6049 32.1313 13.5481 32.1269C13.4777 32.1212 13.3836 32.1122 13.2651 32.0998L13.3305 31.4736C13.4463 31.4857 13.5353 31.4941 13.5976 31.4988C13.6737 31.5051 13.6845 31.5035 13.6684 31.5051C13.6567 31.5062 13.6451 31.508 13.6336 31.5104C13.5901 31.5204 13.5493 31.5395 13.5138 31.5665C13.4783 31.5934 13.449 31.6276 13.4278 31.6668C13.4066 31.7059 13.394 31.7491 13.3908 31.7935C13.3876 31.8378 13.394 31.8824 13.4094 31.9241C13.448 32.0277 13.5278 32.0746 13.5332 32.0784C13.5526 32.0904 13.5733 32.1004 13.5948 32.108C13.5992 32.1095 13.6005 32.1099 13.5961 32.1086C13.5765 32.1036 13.5307 32.0941 13.4517 32.0793L13.5667 31.4603ZM13.2774 31.3709C13.2692 31.364 13.2702 31.3668 13.2885 31.376C13.3108 31.3871 13.3338 31.3969 13.3573 31.4053C13.4167 31.4273 13.4903 31.4468 13.5635 31.4597L13.4549 32.08C13.3453 32.0611 13.2358 32.0315 13.1398 31.9965C13.0533 31.965 12.9459 31.9172 12.866 31.8489L13.2774 31.3709ZM13.1982 31.1512C13.1938 31.1732 13.1947 31.2176 13.2133 31.2708C13.224 31.3066 13.2435 31.3391 13.2702 31.3653L12.873 31.8548C12.7485 31.7547 12.6652 31.6143 12.6178 31.4802C12.5701 31.3454 12.5477 31.1842 12.579 31.0284L13.1982 31.1512ZM12.9456 30.6506C12.9926 30.6755 13.0927 30.7296 13.1556 30.8379C13.2279 30.9629 13.2118 31.0866 13.1972 31.1556L12.5799 31.0243C12.5828 31.0104 12.5644 31.0762 12.6087 31.1531C12.6209 31.1752 12.6374 31.1947 12.6573 31.2104C12.6642 31.2157 12.6649 31.2151 12.6507 31.2072L12.9456 30.6506ZM13.003 30.8483C13.0041 30.7804 12.982 30.7141 12.9402 30.6603C12.9269 30.6443 12.9172 30.6364 12.9168 30.6361C12.9149 30.6348 12.9197 30.6383 12.9273 30.6418L12.669 31.2163C12.6159 31.1927 12.5651 31.1622 12.5231 31.1285C12.5026 31.1125 12.4763 31.0892 12.4517 31.0592C12.4394 31.0444 12.4224 31.0215 12.4075 30.9912C12.3936 30.9642 12.3703 30.9094 12.3718 30.8367L13.003 30.8483ZM13.1063 30.6056C13.0731 30.6906 13.0431 30.7709 13.0217 30.831L12.9983 30.8993L12.9955 30.9088L12.998 30.8971C12.9983 30.8952 13.0037 30.871 13.003 30.8385L12.3715 30.8464C12.3715 30.8118 12.3769 30.7841 12.3778 30.7781L12.3841 30.7498L12.3961 30.7098C12.4058 30.6798 12.4159 30.65 12.4265 30.6204C12.4556 30.5393 12.4858 30.4586 12.5171 30.3782L13.1063 30.6056ZM15.6968 27.9609C14.5313 28.3173 13.6611 29.1841 13.106 30.6062L12.5177 30.3776C13.1265 28.8179 14.1224 27.7837 15.5118 27.3589L15.6968 27.9609ZM16.0038 27.1745C16.0243 27.1792 16.053 27.1867 16.0821 27.1977C16.0975 27.2037 16.1736 27.2311 16.234 27.3035C16.2805 27.3593 16.307 27.4289 16.3092 27.5014C16.3113 27.5739 16.2891 27.645 16.2459 27.7034C16.1983 27.7689 16.1364 27.8022 16.1187 27.8117C16.0685 27.8391 16.0044 27.8621 15.946 27.8822C15.8816 27.904 15.7983 27.9303 15.6968 27.9609L15.5118 27.3589C15.589 27.3357 15.6658 27.3113 15.7423 27.2859C15.8032 27.2654 15.8197 27.2573 15.8165 27.2588C15.8137 27.2604 15.8048 27.2651 15.7928 27.2739C15.7709 27.2908 15.7515 27.3107 15.7354 27.3331C15.6959 27.3877 15.6756 27.4538 15.6778 27.5211C15.6799 27.5884 15.7044 27.653 15.7474 27.705C15.7769 27.7406 15.8147 27.7685 15.8576 27.7862C15.8664 27.7893 15.8683 27.7893 15.8566 27.7868L16.0038 27.1745ZM15.9258 26.9796C15.9324 27.0734 15.9551 27.1275 15.9722 27.1527C15.976 27.1594 15.9811 27.1652 15.987 27.17L15.9914 27.1716L15.8692 27.7893C15.4818 27.7131 15.3189 27.3514 15.2958 27.0236L15.9258 26.9796ZM15.6321 26.5463C15.6848 26.5633 15.7331 26.591 15.7746 26.6276C15.8161 26.6642 15.8495 26.709 15.8727 26.7592C15.9097 26.8354 15.9232 26.9166 15.9264 26.9878L15.2958 27.0155C15.2949 26.9985 15.2923 27.0082 15.3037 27.0325C15.3183 27.0603 15.3384 27.085 15.3629 27.1049C15.3873 27.1248 15.4155 27.1396 15.4458 27.1483L15.6321 26.5463ZM15.6065 26.5397L15.6081 26.5401L15.4692 27.1543H15.4676L15.6065 26.5397ZM15.7073 26.598C15.6803 26.5734 15.6486 26.5545 15.6141 26.5426C15.6059 26.5398 15.6014 26.5385 15.6005 26.5385L15.6065 26.5397L15.467 27.1537C15.4625 27.153 15.4366 27.1474 15.4108 27.1386C15.3823 27.1291 15.3312 27.1083 15.2822 27.0639L15.7073 26.598ZM15.8835 26.4286C15.8361 26.6175 15.8111 26.717 15.8004 26.7749C15.7947 26.8058 15.7979 26.8004 15.7969 26.7796C15.7917 26.7098 15.7596 26.6447 15.7073 26.598L15.2822 27.0639C15.1891 26.9796 15.1695 26.8741 15.1663 26.8118C15.1645 26.7613 15.1687 26.7107 15.179 26.6613C15.1948 26.5781 15.2267 26.4525 15.2709 26.2759L15.8835 26.4286ZM15.8872 26.4113L15.8835 26.4286L15.2709 26.2759L15.2753 26.2586L15.8872 26.4113ZM18.0338 23.3366C16.9141 24.0273 16.2538 24.9643 15.8872 26.4119L15.275 26.2576C15.6763 24.6724 16.425 23.5884 17.7016 22.801L18.0338 23.3366ZM17.8927 22.6634C17.9149 22.6543 17.9375 22.6469 17.9609 22.6414C18.0309 22.6245 18.1045 22.6319 18.1698 22.6622C18.2351 22.6925 18.2881 22.744 18.3202 22.8083C18.3941 22.9556 18.3249 23.0828 18.3167 23.0985C18.2978 23.1341 18.2763 23.1584 18.2681 23.1675C18.2485 23.1889 18.2286 23.2053 18.2182 23.2138C18.1743 23.249 18.1058 23.2937 18.0303 23.3388L17.7051 22.7988C17.7414 22.7772 17.7771 22.7545 17.8121 22.7308L17.8191 22.7255L17.8216 22.7239L17.8169 22.7277L17.8001 22.7444C17.7838 22.7628 17.7697 22.7831 17.7581 22.8048C17.7512 22.818 17.6824 22.9433 17.7553 23.0897C17.7862 23.1515 17.8367 23.2012 17.899 23.2313C17.9613 23.2613 18.0318 23.2699 18.0995 23.2557C18.1206 23.2509 18.1333 23.2453 18.1292 23.2468L17.8927 22.6634ZM17.4648 22.75C17.563 22.7362 17.6647 22.7185 17.7477 22.7012C17.7822 22.6941 17.8164 22.686 17.8504 22.677C17.8813 22.6688 17.8863 22.6656 17.8772 22.6701L18.1446 23.2402C18.072 23.2742 17.9624 23.2997 17.8775 23.3174C17.7793 23.3378 17.664 23.358 17.5545 23.3734L17.4648 22.75ZM17.1323 22.7677C17.1415 22.7717 17.1674 22.7925 17.4648 22.75L17.5545 23.3734C17.2719 23.4137 17.0682 23.431 16.8699 23.3403L17.1323 22.7677ZM17.077 22.6719C17.0811 22.6524 17.077 22.6474 17.0802 22.6619C17.09 22.6997 17.1088 22.7347 17.1348 22.7639C17.1468 22.7771 17.15 22.7765 17.1405 22.7717L16.8617 23.3366C16.7101 23.2619 16.6037 23.1244 16.5415 23.0069C16.4812 22.8923 16.424 22.7223 16.4578 22.551L17.077 22.6719ZM16.7689 22.206C16.8264 22.2147 16.8812 22.2368 16.9287 22.2704C16.9762 22.304 17.0151 22.3483 17.0423 22.3996C17.0855 22.4845 17.0976 22.5816 17.0767 22.6745L16.4581 22.5485C16.4498 22.5981 16.4584 22.6489 16.4831 22.6927C16.5013 22.7276 16.5273 22.7579 16.559 22.7812C16.5908 22.8046 16.6274 22.8204 16.6662 22.8275L16.7689 22.206ZM17.0145 22.0127C16.9978 22.1292 16.9858 22.217 16.9782 22.2841C16.9703 22.3533 16.9687 22.388 16.9691 22.4037C16.9697 22.4283 16.9744 22.376 16.9324 22.3143C16.909 22.279 16.8771 22.2502 16.8396 22.2305C16.808 22.2135 16.7821 22.2085 16.7742 22.2069L16.6609 22.8265C16.5993 22.8152 16.4872 22.7815 16.4092 22.6666C16.346 22.5734 16.3391 22.4727 16.3378 22.4198C16.335 22.3102 16.3577 22.1449 16.3896 21.9233L17.0145 22.0127ZM17.9975 19.5966C17.4907 20.2609 17.1538 21.077 17.0142 22.0142L16.3896 21.9217C16.5431 20.8903 16.9169 19.9722 17.4948 19.2153L17.9975 19.5966ZM17.8516 18.6631C17.8633 18.8325 17.8838 18.959 17.91 19.05C17.9369 19.1435 17.9637 19.1772 17.971 19.1848L17.5216 19.6271C17.4111 19.5157 17.3454 19.3709 17.3031 19.2241C17.2602 19.0746 17.2346 18.8999 17.2217 18.7053L17.8516 18.6631ZM17.8232 17.5933C17.8222 17.9512 17.8318 18.3092 17.8519 18.6666L17.2213 18.7018C17.2005 18.3322 17.1907 17.9621 17.192 17.5914L17.8232 17.5933ZM17.917 16.5024C17.8636 16.7111 17.8428 16.8008 17.8317 16.923C17.8204 17.0546 17.8204 17.2249 17.8232 17.5898L17.1917 17.5949C17.1891 17.2422 17.1879 17.0363 17.2027 16.8676C17.2185 16.6884 17.2523 16.5534 17.305 16.3468L17.917 16.5024ZM19.9085 13.2803C18.809 14.3737 18.2024 15.3715 17.9173 16.5014L17.3047 16.3481C17.6246 15.0802 18.3041 13.9862 19.462 12.8345L19.9085 13.2803ZM20.8009 12.3858C20.8526 12.378 20.8893 12.3588 20.8943 12.3559C20.9068 12.3495 20.9188 12.3422 20.9303 12.3342L20.9291 12.3352L20.9259 12.338L20.9139 12.3474C20.8935 12.3646 20.864 12.3903 20.8255 12.4243C20.7488 12.4919 20.6452 12.5858 20.5325 12.6894C20.3057 12.8975 20.0503 13.1383 19.9091 13.2797L19.4611 12.8354C19.6717 12.6285 19.886 12.4254 20.104 12.2262C20.2183 12.1214 20.3253 12.0247 20.4061 11.9533C20.4463 11.9177 20.4816 11.8871 20.5088 11.8645C20.522 11.8532 20.5356 11.8423 20.5495 11.8317C20.5682 11.8178 20.588 11.8053 20.6086 11.7943C20.6152 11.7911 20.6528 11.7713 20.7055 11.7634L20.8009 12.3858ZM20.4355 12.661C20.4404 12.5229 20.4438 12.3848 20.4456 12.2467C20.446 12.1936 20.4457 12.156 20.4447 12.134C20.444 12.1211 20.4437 12.122 20.4447 12.1305C20.445 12.1315 20.4478 12.1538 20.4579 12.1821C20.4826 12.2501 20.5299 12.3074 20.5921 12.3445C20.6542 12.3816 20.7273 12.3962 20.799 12.3858L20.7077 11.7631C20.7808 11.7523 20.8551 11.7673 20.9183 11.8055C20.9815 11.8438 21.0293 11.9028 21.0535 11.9725C21.0648 12.0049 21.0689 12.0329 21.0702 12.0417C21.0734 12.066 21.0749 12.0905 21.0756 12.1078C21.0772 12.1558 21.0777 12.2038 21.0772 12.2517C21.0762 12.3644 21.0721 12.5171 21.0667 12.6815L20.4355 12.661ZM14.5361 25.072C14.5787 23.8224 14.1366 22.4519 13.135 20.8704L13.669 20.5342C14.7107 22.1789 15.2159 23.6744 15.1673 25.0931L14.5361 25.072ZM14.5332 25.1869L14.5364 25.0751L15.1673 25.0899L15.1651 25.2023L14.5332 25.1869ZM14.5307 25.2889L14.5332 25.1869L15.1648 25.2026L15.1622 25.3046L14.5307 25.2889ZM14.5175 25.8949C14.5197 25.7363 14.5257 25.4967 14.5307 25.2889L15.1622 25.3046C15.1569 25.5143 15.1509 25.7492 15.149 25.9031L14.5175 25.8949ZM14.2926 27.0687C14.4414 26.7066 14.5105 26.3464 14.5175 25.8943L15.149 25.9041C15.1408 26.4226 15.0603 26.8621 14.8768 27.3076L14.2926 27.0687ZM14.0448 27.505C14.0321 27.5107 14.0596 27.5003 14.1164 27.4162C14.1685 27.3391 14.2285 27.2248 14.2926 27.0687L14.8768 27.3076C14.8035 27.4871 14.7246 27.6432 14.64 27.7682C14.5604 27.8866 14.4537 28.0094 14.3116 28.0755L14.0448 27.505ZM13.0754 26.024C13.2042 26.4229 13.4508 26.8442 13.7018 27.143C13.8281 27.2931 13.9431 27.398 14.0312 27.4547C14.1411 27.5252 14.1205 27.4691 14.0429 27.5057L14.3128 28.0749C14.0706 28.1892 13.8281 28.0736 13.6886 27.9836C13.5275 27.8797 13.3655 27.7232 13.2178 27.5472C12.9206 27.1933 12.6304 26.7016 12.4741 26.217L13.0754 26.024ZM12.8726 25.1236C12.8821 25.0883 12.8783 25.0691 12.8789 25.094C12.8801 25.1186 12.8822 25.1432 12.8853 25.1677C12.925 25.4575 12.9883 25.7436 13.0747 26.0231L12.4745 26.2183C12.3751 25.8989 12.3027 25.5718 12.2582 25.2404C12.2531 25.1963 12.249 25.1529 12.2477 25.1135C12.2452 25.0625 12.25 25.0114 12.2619 24.9618L12.8726 25.1236ZM12.8568 24.6989C12.8695 24.7697 12.8786 24.8431 12.8831 24.9064C12.8853 24.9378 12.8868 24.97 12.8865 25.0002C12.8865 25.0238 12.8859 25.0685 12.8748 25.1145L12.2597 24.9709C12.2559 24.9873 12.255 24.998 12.255 24.9989V24.9958C12.2554 24.987 12.2548 24.9723 12.2531 24.9517C12.2493 24.9039 12.2436 24.8563 12.2354 24.8091L12.8568 24.6989ZM12.8155 23.9111C12.8208 24.2527 12.8436 24.612 12.8581 24.7061L12.2338 24.8018C12.2121 24.6611 12.1893 24.2641 12.1833 23.9212L12.8155 23.9111ZM12.9629 21.9976C12.8417 22.7296 12.8013 23.2686 12.8155 23.9093L12.1836 23.9231C12.1685 23.2387 12.213 22.6606 12.3399 21.8949L12.9629 21.9976ZM13.0738 20.4722C13.19 20.4564 13.2541 20.3831 13.2654 20.3702C13.2797 20.3541 13.2923 20.3365 13.303 20.3179C13.3125 20.3006 13.3175 20.2874 13.3179 20.287L13.3134 20.3015C13.3057 20.3284 13.2945 20.3714 13.28 20.4306C13.2516 20.5471 13.2149 20.7108 13.1758 20.895C13.0968 21.264 13.0106 21.7041 12.9629 21.9966L12.3396 21.8959C12.4316 21.3548 12.5405 20.8167 12.6661 20.2823C12.6787 20.2298 12.6924 20.1775 12.7072 20.1255C12.7135 20.1039 12.7205 20.0825 12.7283 20.0613C12.7427 20.021 12.7648 19.9839 12.7934 19.9521C12.806 19.9382 12.8711 19.8642 12.9879 19.8482L13.0738 20.4722ZM13.1338 20.8685C13.0419 20.7209 12.9557 20.5887 12.8916 20.4951C12.8592 20.4477 12.8348 20.4136 12.8186 20.3928L12.8114 20.3837C12.8123 20.3843 12.8218 20.395 12.8376 20.4079C12.8705 20.4338 12.9083 20.4528 12.9487 20.4639C12.9891 20.4749 13.0313 20.4777 13.0728 20.4722L12.9892 19.8482C13.0326 19.8421 13.0765 19.8451 13.1187 19.8571C13.1609 19.869 13.2001 19.8895 13.2339 19.9174C13.2492 19.9294 13.2633 19.9428 13.2762 19.9574C13.2926 19.9747 13.3078 19.9942 13.3204 20.0103C13.3463 20.0443 13.3782 20.089 13.4129 20.14C13.4833 20.243 13.5746 20.3828 13.6703 20.5361L13.1338 20.8685ZM11.7656 27.9619C11.7608 26.6912 11.5439 25.7045 10.9146 24.1699L11.4994 23.9316C12.1514 25.5215 12.3917 26.5892 12.3971 27.9597L11.7656 27.9619ZM12.3371 28.4316C12.3305 28.42 12.2872 28.3387 12.1849 28.2956C12.1269 28.2713 12.0631 28.2649 12.0014 28.2771C11.9397 28.2892 11.8831 28.3195 11.8388 28.3639C11.794 28.4089 11.7754 28.4558 11.7712 28.4662C11.7662 28.4786 11.762 28.4912 11.7586 28.504C11.7539 28.5238 11.7539 28.5349 11.7551 28.5204C11.7579 28.4837 11.7596 28.447 11.7605 28.4102C11.7637 28.3019 11.7656 28.1435 11.7656 27.9609L12.3971 27.9606C12.3971 28.1464 12.3955 28.3116 12.3917 28.4297C12.3898 28.4867 12.3876 28.539 12.3841 28.5771C12.3829 28.5915 12.3797 28.6233 12.3721 28.6548C12.359 28.7098 12.3315 28.7603 12.2925 28.8013C12.2534 28.8422 12.2042 28.8722 12.1498 28.8881C12.0763 28.9092 12.0021 28.9023 11.9389 28.8755C11.836 28.8321 11.7918 28.7499 11.7842 28.737L12.3371 28.4316ZM11.7438 28.715C11.7387 28.6816 11.7302 28.6255 11.7321 28.5761C11.7334 28.5161 11.7513 28.4576 11.7839 28.407C11.8204 28.3495 11.8747 28.3053 11.9386 28.2811C12.1217 28.2115 12.2531 28.3305 12.2695 28.346C12.3033 28.3771 12.3232 28.4089 12.3305 28.4203L11.7911 28.748C11.794 28.7527 11.8101 28.7795 11.8407 28.8078C11.8543 28.8204 11.9828 28.9385 12.1641 28.8695C12.2095 28.8522 12.2503 28.8246 12.2831 28.7888C12.3159 28.753 12.3399 28.71 12.3532 28.6633C12.362 28.6309 12.3627 28.6057 12.3633 28.6004C12.3639 28.5808 12.3614 28.5796 12.3674 28.618L11.7438 28.715ZM11.2313 30.6742C11.3781 30.3975 11.524 29.9872 11.6247 29.5908C11.6711 29.4126 11.7069 29.2318 11.7321 29.0493C11.7536 28.8847 11.7539 28.7741 11.7444 28.7187L12.3668 28.6139C12.392 28.7634 12.3819 28.9486 12.3586 29.1302C12.3339 29.3191 12.2913 29.5307 12.237 29.7454C12.129 30.1711 11.9677 30.6333 11.7896 30.9686L11.2313 30.6742ZM11.0175 30.9793C11.0384 30.9938 11.0377 30.9875 11.0204 30.9865C11.0008 30.9856 10.9926 30.9928 11.0027 30.9865C11.0355 30.9626 11.0643 30.9336 11.0879 30.9006C11.1425 30.8287 11.1908 30.7524 11.2322 30.6723L11.7889 30.9705C11.6651 31.2003 11.5212 31.4062 11.3374 31.5208C11.2376 31.5828 11.1201 31.6215 10.9907 31.6153C10.8718 31.6083 10.7573 31.5679 10.6604 31.4988L11.0175 30.9793ZM10.3427 29.6573C10.4112 29.9076 10.5436 30.2218 10.6885 30.4932C10.7602 30.6279 10.8322 30.7463 10.8963 30.8363C10.9283 30.8817 10.956 30.9171 10.9796 30.9428C11.0043 30.9701 11.0166 30.9786 11.0153 30.9777L10.6626 31.5003C10.5546 31.4279 10.458 31.3092 10.3806 31.2003C10.2969 31.0822 10.2114 30.9399 10.1308 30.7888C9.97076 30.4888 9.81761 30.1302 9.7333 29.8232L10.3427 29.6573ZM10.1845 28.9933C10.1959 28.9644 10.2029 28.9341 10.2054 28.9032C10.2057 28.8963 10.2054 28.8938 10.2057 28.8991C10.2061 28.9086 10.2079 28.9275 10.2111 28.9558C10.2174 29.0115 10.2287 29.088 10.2433 29.1746C10.2698 29.3373 10.3031 29.4989 10.343 29.6588L9.7333 29.8216C9.69446 29.6774 9.65089 29.4611 9.62057 29.2788C9.60478 29.1866 9.59184 29.0984 9.58363 29.0282C9.57952 28.9936 9.57637 28.959 9.57479 28.9284C9.57399 28.9102 9.57399 28.8919 9.57479 28.8736C9.57479 28.8655 9.57637 28.8122 9.60005 28.7549L10.1845 28.9933ZM10.1782 28.3715C10.1905 28.4943 10.2003 28.6117 10.206 28.702C10.2087 28.7422 10.2103 28.7824 10.2111 28.8226C10.2111 28.839 10.2111 28.8585 10.2098 28.8777C10.2096 28.8876 10.2082 28.9012 10.2057 28.9187C10.2041 28.9265 10.1978 28.9703 10.1728 29.0185L9.61173 28.7301C9.59763 28.7578 9.58741 28.7876 9.58205 28.8182C9.58015 28.8296 9.57984 28.8374 9.57952 28.8387V28.8302C9.57952 28.8113 9.57815 28.7815 9.57542 28.7408C9.57068 28.6608 9.56184 28.5519 9.55016 28.4338L10.1782 28.3715ZM10.8641 24.4706C10.2906 26.1053 10.0806 27.3517 10.1785 28.3727L9.54953 28.4325C9.43964 27.2824 9.68025 25.9368 10.2679 24.2628L10.8641 24.4706ZM11.1625 23.6517C11.0585 23.9227 10.9594 24.1952 10.8647 24.4694L10.2676 24.2638C10.3647 23.9832 10.4668 23.7042 10.5729 23.4269L11.1625 23.6517ZM11.2247 23.5006L11.1596 23.659L10.5754 23.4197L10.6408 23.2616L11.2247 23.5006ZM10.9146 24.1699L10.6402 23.5003L11.2253 23.2619L11.4994 23.9316L10.9146 24.1699ZM5.19229 31.4836C5.18345 31.4918 5.09819 31.5718 4.96273 31.5655C4.76537 31.5567 4.69054 31.3968 4.6738 31.3461C4.65643 31.2929 4.65707 31.2472 4.65707 31.2327C4.65779 31.215 4.65927 31.1974 4.66149 31.1798C4.67097 31.1207 4.68383 31.0621 4.70001 31.0045C4.76075 30.785 4.8256 30.5667 4.89452 30.3496L5.49763 30.536C5.40353 30.8389 5.34291 31.0426 5.31038 31.165C5.30259 31.195 5.2967 31.2189 5.2927 31.2365C5.28828 31.2554 5.28733 31.2629 5.28733 31.2626L5.28796 31.2573L5.2886 31.2431C5.2886 31.2374 5.28986 31.1984 5.27376 31.1496C5.2586 31.1033 5.18597 30.9456 4.99178 30.9368C4.85916 30.9305 4.778 31.0089 4.77358 31.0126L5.19229 31.4836ZM4.70348 31.4317C4.70348 31.4036 4.70285 31.3813 4.70159 31.365C4.70033 31.3473 4.69906 31.3413 4.69938 31.3439C4.6997 31.3451 4.70127 31.3533 4.70569 31.3659C4.71553 31.3927 4.72937 31.4178 4.74674 31.4405C4.77318 31.4747 4.80658 31.5028 4.84473 31.5232C4.88288 31.5435 4.92493 31.5556 4.96809 31.5586C5.01145 31.5618 5.05499 31.5557 5.09582 31.5409C5.13666 31.526 5.17416 31.5026 5.20523 31.4723L4.76127 31.0243C4.79409 30.9917 4.83353 30.9664 4.87693 30.9503C4.92033 30.9341 4.9667 30.9273 5.01293 30.9305C5.05903 30.9338 5.10388 30.9469 5.1445 30.9689C5.18512 30.9909 5.22057 31.0213 5.24849 31.058C5.30091 31.1263 5.3148 31.2016 5.31859 31.2198C5.33122 31.2828 5.33501 31.3587 5.33501 31.432L4.70348 31.4317ZM3.82534 33.7218C4.06057 33.2613 4.27002 32.7882 4.4534 32.3047C4.52447 32.1188 4.58747 31.93 4.64223 31.7387C4.68801 31.5731 4.70348 31.4733 4.70348 31.4317L5.33501 31.432C5.33501 31.5649 5.29838 31.7352 5.2507 31.9065C5.20081 32.0869 5.13008 32.2981 5.04483 32.5251C4.85322 33.0309 4.63397 33.5259 4.38804 34.0077L3.82534 33.7218ZM1.98317 35.9002C2.6567 35.479 3.3157 34.7243 3.82503 33.7225L4.38804 34.0071C3.84145 35.0819 3.11329 35.9361 2.31851 36.4335L1.98317 35.9002ZM2.09243 35.8574C2.34961 35.8099 2.61187 35.7959 2.87268 35.8155L2.82721 36.4436C2.62057 36.4279 2.41306 36.4389 2.20926 36.4764L2.09243 35.8574ZM3.15434 36.0444L2.54618 36.2154V36.2147L3.15434 36.0444ZM2.87047 35.8161C4.03406 35.8908 5.28575 36.6407 6.62523 37.9451L6.18316 38.3956C4.87589 37.1218 3.76282 36.5044 2.82974 36.4442L2.87047 35.8161ZM6.62807 37.9489L6.83363 38.1548L6.38493 38.5981L6.17968 38.3922L6.62807 37.9489ZM6.75659 38.6547L6.47619 38.803L6.18095 38.2464L6.46103 38.0984L6.75659 38.6547ZM6.47745 38.8021C6.40546 38.8408 6.35556 38.8717 6.33188 38.889C6.31294 38.9025 6.33062 38.8927 6.35335 38.8644C6.40211 38.8013 6.42421 38.7216 6.41493 38.6425C6.40701 38.5745 6.3768 38.5111 6.329 38.4621C6.2812 38.4131 6.21881 38.3812 6.15095 38.3714L6.06601 38.9954C6.01566 38.9893 5.9675 38.9713 5.92549 38.943C5.88349 38.9146 5.84884 38.8767 5.82441 38.8324C5.79998 38.7881 5.78647 38.7386 5.785 38.6881C5.78352 38.6375 5.79412 38.5874 5.81592 38.5417C5.82727 38.5168 5.84181 38.4936 5.85918 38.4724C5.88896 38.4365 5.9236 38.4048 5.96212 38.3783C6.03152 38.3298 6.10441 38.2861 6.17968 38.2473L6.47745 38.8021ZM6.16421 38.3736C6.21717 38.3837 6.26755 38.4043 6.3124 38.4342C6.35724 38.464 6.39565 38.5025 6.42535 38.5474C6.46506 38.6075 6.49292 38.6746 6.50745 38.7451C6.53397 38.8663 6.52955 39.0108 6.48219 39.1443L5.88729 38.9343C5.8926 38.916 5.89337 38.8967 5.89013 38.878C5.88855 38.8704 5.8895 38.8814 5.90339 38.9022C5.93917 38.9509 5.9927 38.9835 6.05243 38.9932L6.16421 38.3736ZM6.4825 39.1434C6.42156 39.3175 6.29115 39.4469 6.14653 39.5473C6.00033 39.649 5.8115 39.7403 5.58763 39.8291L5.35459 39.2438C5.55952 39.1626 5.69688 39.0924 5.78529 39.031C5.81612 39.0104 5.84441 38.9863 5.8696 38.9592C5.8759 38.9523 5.88141 38.9447 5.88602 38.9365L5.88697 38.9349L6.4825 39.1434ZM5.58668 39.8291C4.48308 40.2629 3.51116 40.4543 2.65954 40.37C1.79655 40.2846 1.07787 39.9185 0.49055 39.2803L0.955672 38.8547C1.44069 39.3817 2.01759 39.6739 2.72174 39.7434C3.43664 39.814 4.30246 39.6572 5.35522 39.2435L5.58668 39.8291ZM0.489919 39.2794C0.35819 39.1381 0.24096 38.9837 0.140682 38.8188C0.0554258 38.673 -0.0127795 38.5118 -0.0257259 38.3497L0.604226 38.2999C0.606436 38.3282 0.623804 38.3947 0.68601 38.5011C0.746005 38.6031 0.835996 38.7234 0.956618 38.8556L0.489919 39.2794ZM-0.0250923 38.355C-0.0355125 38.2483 -0.0383549 38.1393 -0.0241455 38.0502C-0.0144955 37.9792 0.0128637 37.9118 0.0554269 37.8541C0.105467 37.7888 0.177787 37.7441 0.258682 37.7284C0.339577 37.7128 0.423742 37.7272 0.494655 37.7691L0.17447 38.3122C0.236215 38.3478 0.308815 38.36 0.378867 38.3465C0.448919 38.3329 0.511692 38.2946 0.555598 38.2385C0.575237 38.2131 0.589814 38.1841 0.598543 38.1532L0.599174 38.15V38.1491V38.1522L0.598227 38.1614L0.597596 38.1925C0.597596 38.2192 0.59991 38.2532 0.60391 38.2946L-0.0250923 38.355ZM0.514234 37.7817C0.522444 37.787 0.513918 37.7811 0.501288 37.7741C0.459299 37.7519 0.412754 37.7396 0.365236 37.7381C0.317719 37.7366 0.270496 37.746 0.227203 37.7656C0.0914237 37.827 0.0529015 37.9504 0.0453231 38.0128C0.0390079 38.0669 0.0491113 38.1082 0.0516374 38.1182C0.0576369 38.1437 0.0655301 38.1589 0.0620567 38.1513C0.0503734 38.1255 0.0112203 38.0524 -0.0901402 37.8702L0.462133 37.5651C0.554967 37.7326 0.612436 37.8365 0.637698 37.8925C0.643381 37.9051 0.656643 37.935 0.665484 37.9703C0.668642 37.9851 0.679379 38.0301 0.672432 38.0871C0.666297 38.1394 0.647237 38.1893 0.616963 38.2325C0.586688 38.2756 0.546145 38.3105 0.498975 38.3342C0.451805 38.3579 0.399481 38.3695 0.346701 38.368C0.293921 38.3665 0.242335 38.352 0.196573 38.3257C0.176049 38.3144 0.158051 38.3018 0.154894 38.2996L0.514234 37.7817ZM-0.0923518 37.867C-0.128033 37.8009 -0.162451 37.7335 -0.188976 37.6768C-0.201922 37.6488 -0.214868 37.6195 -0.225288 37.5918C-0.230551 37.5778 -0.236025 37.5613 -0.241708 37.5424C-0.245182 37.5292 -0.25497 37.4917 -0.255286 37.4454L0.375928 37.4432C0.375553 37.4204 0.372695 37.3977 0.367402 37.3755L0.365824 37.3705C0.371329 37.3845 0.377332 37.3982 0.383823 37.4117C0.403084 37.453 0.431187 37.5084 0.46371 37.5682L-0.0923518 37.867ZM-0.255286 37.4445C-0.255286 37.3705 -0.232551 37.3116 -0.215815 37.2767C-0.199289 37.2433 -0.179509 37.2117 -0.156766 37.1822C-0.114422 37.1284 -0.0677466 37.078 -0.0172001 37.0317C0.124769 36.9034 0.272824 36.782 0.426451 36.6678L0.809473 37.1687C0.626014 37.3082 0.49655 37.4139 0.41603 37.4898C0.37498 37.5282 0.354771 37.5519 0.346561 37.5622C0.343088 37.5673 0.347194 37.5626 0.353509 37.5493C0.368485 37.5163 0.376132 37.4804 0.375928 37.4442L-0.255286 37.4445ZM0.425502 36.6684C0.598143 36.5354 0.778322 36.4124 0.965144 36.3001L1.28912 36.8406C1.13566 36.9321 0.975776 37.0412 0.810104 37.1677L0.425502 36.6684ZM1.04472 36.2645L1.07693 36.2594L1.17702 36.8812L1.13471 36.8875L1.04472 36.2645ZM0.749793 36.1247C0.772212 36.2897 0.805684 36.2843 0.782634 36.2698C0.77695 36.266 0.785792 36.2742 0.829999 36.2777C0.875469 36.2815 0.943674 36.2786 1.04472 36.2645L1.13471 36.8875C0.904518 36.9206 0.650012 36.9313 0.444765 36.8016C0.220572 36.6602 0.152368 36.4181 0.123949 36.21L0.749793 36.1247ZM0.536022 35.779C0.63233 35.8325 0.681272 35.9175 0.701481 35.9594C0.727689 36.0129 0.746636 36.0765 0.752004 36.1442L0.122368 36.1905C0.123426 36.2061 0.127073 36.2214 0.133737 36.2355C0.139425 36.2471 0.146531 36.258 0.154894 36.2679C0.175445 36.293 0.200955 36.3138 0.229414 36.3293L0.536022 35.779ZM0.689166 35.648C0.672746 35.8105 0.66738 35.8952 0.668327 35.9392C0.668958 35.9616 0.670853 35.9537 0.664537 35.932C0.648027 35.8782 0.613897 35.8314 0.567598 35.7991L0.197836 36.3092C0.11479 36.2494 0.0759524 36.1691 0.0582696 36.108C0.0418498 36.0523 0.0380602 35.9969 0.037113 35.9534C0.0349026 35.8656 0.0443748 35.7444 0.0604788 35.5847L0.689166 35.648ZM4.71864 30.769C3.36085 31.3495 2.41577 31.989 1.78045 32.7625C1.14892 33.5307 0.803788 34.4557 0.689166 35.6464L0.0604788 35.5863C0.183943 34.3002 0.564756 33.2483 1.29196 32.3633C2.01506 31.483 3.06024 30.7929 4.46982 30.1903L4.71864 30.769ZM5.37164 30.4938C5.15355 30.5811 4.93725 30.6723 4.72275 30.7674L4.46603 30.1922C4.68781 30.0938 4.91141 29.9995 5.13671 29.9095L5.37164 30.4938ZM4.89421 30.3505C4.91002 30.2999 4.92455 30.2489 4.93778 30.1975C4.94252 30.178 4.94315 30.1723 4.94283 30.1755L4.94157 30.1881C4.94072 30.2006 4.94061 30.2131 4.94125 30.2256C4.94189 30.2353 4.94441 30.286 4.97283 30.3433C5.00162 30.4013 5.0478 30.4489 5.10494 30.4795C5.16209 30.5101 5.22737 30.5223 5.29175 30.5143L5.2166 29.889C5.28162 29.881 5.34753 29.8934 5.40518 29.9244C5.46283 29.9554 5.50938 30.0036 5.53837 30.0622C5.56773 30.121 5.57089 30.1739 5.57152 30.1871C5.57373 30.224 5.56931 30.2551 5.56805 30.2652C5.56394 30.2936 5.557 30.3235 5.551 30.3477C5.53837 30.4 5.5191 30.4673 5.49826 30.535L4.89421 30.3505Z" fill="black" fill-opacity="0.18"/>
</g>
</g>
<defs>
<radialGradient id="paint0_radial_1073_14661" cx="0" cy="0" r="1" gradientTransform="matrix(68.7822 19.5887 12.9055 -45.0498 -25.069 15.0674)" gradientUnits="userSpaceOnUse">
<stop offset="0.521" stop-color="#AA8A39"/>
<stop offset="0.582" stop-color="#FED238"/>
<stop offset="0.652" stop-color="#AA8C3F"/>
</radialGradient>
<clipPath id="clip0_1073_14661">
<rect width="22" height="40" fill="white" transform="matrix(-1 0 0 1 22 0)"/>
</clipPath>
</defs>
</svg>
