<svg width="22" height="40" viewBox="0 0 22 40" fill="none" xmlns="http://www.w3.org/2000/svg">
<g clip-path="url(#clip0_1073_14654)">
<path fill-rule="evenodd" clip-rule="evenodd" d="M6.86739 1.41602C6.32743 2.62343 6.01451 3.62178 5.87747 4.5707C5.79631 5.12482 5.80105 6.44274 5.88536 6.95403C5.99209 7.63597 6.24786 8.34121 6.51563 8.71398C6.63183 8.87455 6.6773 8.91076 6.78971 8.92555C7.06095 8.96113 7.38461 8.5934 7.64859 7.94766C7.83142 7.50091 8.00319 6.78811 7.98078 6.57969C7.96657 6.47989 7.97004 6.4632 7.99814 6.5183C8.02309 6.57308 8.03003 6.56489 8.01551 6.47768C8.0134 6.30704 8.01972 6.13661 8.03446 5.96638C8.09635 5.23879 8.02751 4.44257 7.82068 3.54276C7.69848 2.99651 7.42408 2.08789 7.2081 1.50323L7.03948 1.03601L6.86739 1.41602ZM11.0734 5.58197C10.3436 5.79417 10.0487 5.90562 9.62812 6.12538C8.45095 6.75317 7.72785 7.65675 7.45187 8.84244C7.36661 9.2215 7.28009 10.1128 7.32051 10.2394C7.35303 10.3486 7.35967 10.3754 7.36598 10.4585C7.37103 10.5983 7.55039 10.8095 7.70606 10.8656C7.87973 10.9286 8.43421 10.9531 8.55073 10.9037C8.59146 10.8879 8.62588 10.8794 8.62557 10.8883C8.62557 10.8968 8.45063 11.0466 8.24097 11.2217C7.04043 12.2071 6.39216 13.1721 6.12155 14.3682C6.07261 14.5958 6.05335 14.8187 6.04893 15.3341C6.04577 15.7034 6.05556 16.0648 6.06882 16.1401C6.08524 16.2383 6.08461 16.2553 6.05808 16.2037C6.0344 16.1527 6.03061 16.209 6.04293 16.3967C6.09155 17.0537 6.30185 17.3088 6.76256 17.1951C6.22891 18.1935 5.98735 19.1616 6.01893 20.1467L6.02966 20.556C6.03377 20.7144 6.03787 20.8655 6.03977 20.9656C6.05429 21.5562 6.21249 22.2136 6.38806 22.3871C6.61162 22.6151 6.87276 22.5474 7.29967 22.1573C7.70385 21.7817 7.9972 21.3349 8.19013 20.7896C8.33127 20.3873 8.44779 19.8659 8.46579 19.5287C8.47495 19.3876 8.50242 19.0438 8.52705 18.7633C8.57441 18.2501 8.57189 17.5232 8.51821 16.8932C8.48659 16.5453 8.44753 16.1982 8.40106 15.852C8.56431 15.5324 8.74493 15.1008 8.83902 14.7853C8.96217 14.3773 9.12321 13.5096 9.097 13.3749C9.08437 13.2993 9.09069 13.2791 9.11816 13.3087C9.14879 13.3349 9.15163 13.3138 9.13932 13.2338C9.12574 13.1752 9.14184 12.9127 9.17152 12.6567C9.20963 12.2718 9.23573 11.8861 9.24983 11.4997C9.28109 10.7312 9.30004 10.5252 9.34046 10.5482C9.39793 10.5734 9.82358 10.1978 10.0746 9.89809C10.4946 9.39592 10.8103 8.78388 11.1387 7.83117C11.3866 7.10956 11.529 6.47831 11.4258 6.54663C11.392 6.56332 11.5196 5.96922 11.6181 5.6399C11.6774 5.43525 11.6777 5.43053 11.6468 5.42675C11.6301 5.42423 11.3743 5.4935 11.0734 5.5826V5.58197ZM3.75711 6.37064C3.54396 7.21692 3.48113 7.48674 3.40219 7.90925C3.2402 8.78702 3.18431 9.38805 3.19789 10.11C3.20483 10.4613 3.20862 10.8004 3.20799 10.8606C3.20294 11.3265 3.33556 12.1023 3.50323 12.5922C3.68322 13.1085 4.01477 13.7092 4.28222 14.0058C4.47705 14.2199 4.63241 14.2706 4.80702 14.178C4.92512 14.1125 5.09311 13.8046 5.21594 13.4356C5.41898 12.8289 5.46824 12.436 5.48434 11.3331C5.49318 10.7947 5.48339 10.6049 5.43003 10.3112C5.25162 9.33201 4.87176 8.32641 4.20076 7.07178L4.10729 6.89768C3.85531 6.42699 3.79626 6.31743 3.77479 6.32404C3.76816 6.32624 3.765 6.33915 3.76089 6.35584L3.75711 6.37064ZM1.24709 12.6684C1.26193 13.0005 1.27267 13.4026 1.27141 13.5628C1.26983 13.7199 1.27583 13.838 1.28625 13.8178C1.29698 13.8015 1.30614 13.9161 1.30835 14.0732C1.31245 14.4648 1.45518 15.4459 1.59759 16.0318C1.76495 16.7303 1.99461 17.3379 2.28659 17.8547C1.85983 17.6472 1.42012 17.4674 0.970166 17.3163C0.751446 17.2471 0.534305 17.1733 0.318743 17.095C0.271694 17.0792 0.236644 17.0742 0.236328 17.0874C0.236328 17.0962 0.300744 17.2741 0.382843 17.481C0.550198 17.9277 0.603563 18.0993 0.560934 18.0622C0.506623 18.0099 0.496203 18.2265 0.538199 18.4456C0.648717 18.9988 1.48391 20.6596 2.00966 21.356C2.45205 21.9473 3.0138 22.4847 3.37914 22.6657C3.50765 22.7281 3.55438 22.7618 3.4865 22.7391C3.41829 22.7155 3.20736 22.6456 3.02074 22.5842C2.60204 22.4488 1.75737 22.2489 1.3134 22.1859L0.98027 22.1384L1.16973 22.53C1.42613 23.0637 1.42613 23.0637 1.38003 23.0218C1.31561 22.9639 1.28656 23.1906 1.33266 23.3883C1.42171 23.774 2.2648 25.1911 2.77539 25.8236C3.11516 26.2407 3.56954 26.6831 3.86289 26.8884C4.21339 27.1298 4.55694 27.3118 4.72871 27.3411L4.89323 27.3688L4.73282 27.3811C4.64251 27.3908 4.28759 27.4116 3.94435 27.4292C3.60017 27.4472 3.3103 27.468 3.29988 27.4752C3.29262 27.4834 3.29956 27.5064 3.31725 27.5268C3.41387 27.6251 3.81079 28.2365 3.75711 28.2066C3.69237 28.171 3.65669 28.2368 3.65606 28.4012C3.65606 28.5702 3.84489 28.9087 4.16002 29.3038C5.40729 30.8717 6.41584 31.6238 7.51881 31.7939C7.74458 31.8253 7.98804 31.8515 8.05561 31.8386C8.12413 31.8304 7.93057 31.8968 7.62617 31.9824C6.78024 32.2264 6.515 32.313 6.51531 32.3442C6.515 32.3577 6.61888 32.4834 6.74708 32.6172C6.94444 32.8228 7.11179 33.0425 6.98706 32.9266C6.94033 32.8845 6.87181 33.017 6.87181 33.1505C6.87118 33.5903 8.60946 35.0011 9.69759 35.4444C9.96378 35.5537 10.3282 35.6314 10.6682 35.6613C10.5874 35.7265 10.5372 35.7706 10.5363 35.78C10.5369 35.7992 10.6433 35.871 10.7762 35.951C11.027 36.1002 11.1261 36.1896 11.0232 36.1758C10.9853 36.1698 10.9512 36.2214 10.9354 36.3049C10.8817 36.6043 11.1059 36.825 11.7946 37.1543C13.9711 38.1952 15.5323 38.1243 16.6308 36.9238C16.9172 36.6156 17.0167 36.36 16.9409 36.1456C16.9068 36.0417 16.9179 35.9957 17.0514 35.7977C17.132 35.672 17.2008 35.559 17.2005 35.5448C17.2005 35.531 17.1054 35.418 16.9914 35.2977C16.4622 34.743 15.9172 34.357 15.3624 34.1441C15.4104 34.0906 15.4557 34.0164 15.4982 33.9215C15.6213 33.641 15.7555 33.0743 15.7729 32.7412C15.7783 32.6124 15.796 32.2752 15.814 31.9935C15.8518 31.4183 15.8231 31.0789 15.699 30.52C15.4944 29.5982 15.0713 28.6899 14.3235 27.5615C13.8477 26.8436 13.5332 26.4359 13.512 26.5102C13.5051 26.5395 13.4615 26.8392 13.4138 27.1767C13.3431 27.6962 13.3292 27.9739 13.3115 29.0123C13.2856 30.3387 13.3096 30.7369 13.4422 31.417C13.6456 32.4427 14.0883 33.3533 14.6879 33.959L14.7021 33.9732C14.5618 33.954 14.4201 33.9458 14.2784 33.9489C13.825 33.9574 13.3001 34.089 12.757 34.3258C12.7713 34.3098 12.7788 34.2985 12.7795 34.2918C12.7795 34.2738 12.6866 34.1007 12.5726 33.9064C11.9935 32.9222 11.2572 32.2623 10.3983 31.9582C10.0797 31.8464 9.08058 31.7444 8.70072 31.7838C8.23181 31.8326 8.17402 31.8247 8.48916 31.7668C8.6723 31.7353 8.85544 31.6682 8.92681 31.6068C9.06259 31.4976 9.14563 31.2646 9.10995 31.0867C9.09227 31.0039 9.11437 30.9715 9.20026 30.9262C9.26089 30.8991 9.31141 30.8575 9.31078 30.8396C9.31109 30.8216 9.25394 30.6626 9.18668 30.4889C8.60473 28.9981 7.67133 28.0476 6.39406 27.6569C5.98893 27.5331 5.93936 27.5083 6.06819 27.4774C6.25102 27.4415 6.36911 27.2633 6.38743 26.9989C6.39153 26.9101 6.41995 26.8566 6.45942 26.8443L6.46132 26.844C6.48026 26.8396 6.49415 26.8364 6.50363 26.8279C6.53457 26.7996 6.5131 26.7146 6.42153 26.3494L6.41711 26.332C6.03314 24.8155 5.32867 23.8048 4.13066 23.0659C3.98382 22.9777 3.91909 22.9245 3.98761 22.9522C4.0555 22.9837 4.28096 23.0291 4.48873 23.0587C4.77892 23.1002 4.89354 23.0983 4.99711 23.0511C5.13763 22.9822 5.2592 22.7507 5.2311 22.6084C5.22004 22.554 5.23773 22.5206 5.28067 22.5137C5.3634 22.4986 5.36372 22.4321 5.29646 21.9649C5.14994 20.9807 4.79439 20.1137 4.25222 19.4028C4.36969 19.2841 4.43726 19.0451 4.46158 18.6811C4.48199 18.3176 4.49168 17.9534 4.49063 17.5893C4.49663 16.8721 4.49347 16.8365 4.38737 16.4215C4.08487 15.2226 3.44197 14.1767 2.31343 13.0543C2.02103 12.7619 1.27267 12.0758 1.24488 12.0714C1.23162 12.0695 1.23667 12.3406 1.24709 12.6684ZM8.5962 20.6993C7.5747 22.3125 7.10105 23.7453 7.14684 25.0796L7.14937 25.1917L7.15189 25.2937C7.15726 25.5024 7.16294 25.7395 7.16516 25.896C7.17273 26.3815 7.24725 26.7813 7.41366 27.1849C7.55133 27.5202 7.6909 27.7271 7.82037 27.7872C8.14971 27.9424 8.93817 27.0011 9.22394 26.1173C9.34046 25.7603 9.45855 25.1419 9.43108 25.0396C9.42161 25 9.43108 24.8721 9.45255 24.7509C9.47055 24.6335 9.4936 24.2554 9.49897 23.9131C9.5135 23.2504 9.47119 22.6922 9.34709 21.9432C9.24983 21.3431 8.99659 20.1612 8.96754 20.1571C8.95112 20.1549 8.78408 20.3986 8.5962 20.6993ZM10.7914 24.0479C10.1507 25.6101 9.9221 26.6371 9.91705 27.9579C9.91705 28.3262 9.92431 28.6055 9.93757 28.5812C9.95462 28.5535 9.95399 28.5916 9.94294 28.6631C9.87347 29.073 10.163 30.2061 10.4879 30.8185C10.726 31.2602 10.9338 31.3902 11.1596 31.236C11.3888 31.0823 11.8078 30.2946 11.9604 29.7373C12.0301 29.477 12.1246 28.9162 12.1062 28.8712C12.0965 28.8523 12.1103 28.6401 12.1347 28.3996C12.2382 27.314 12.0131 26.0178 11.4324 24.3634C11.3363 24.0861 11.2358 23.8103 11.1308 23.5363L11.0658 23.3782L10.7914 24.0479ZM16.8023 30.4397C16.9905 31.0452 17.0521 31.2775 17.0154 31.2451C16.994 31.2243 16.9791 31.2942 16.9791 31.429C16.9791 31.7778 17.3956 32.8904 17.8917 33.8617C18.4203 34.9001 19.1137 35.7045 19.8478 36.1638C19.6173 36.1214 19.3822 36.1089 19.1484 36.1267C18.1001 36.194 16.9179 36.8782 15.5945 38.1675L15.3892 38.3734L15.67 38.5216C15.8256 38.6048 15.9245 38.6756 15.8901 38.6803C15.8029 38.6961 15.7609 38.8875 15.8136 39.0361C15.8746 39.2093 16.0985 39.3638 16.5273 39.5332C18.6839 40.3808 20.2028 40.23 21.2754 39.0644C21.5375 38.777 21.6941 38.5122 21.7093 38.3217C21.7282 38.1268 21.7093 38.011 21.6638 38.0374C21.619 38.0686 21.6183 38.0642 21.8125 37.7147C21.8807 37.5885 21.9379 37.4695 21.9382 37.4414C21.9382 37.3706 21.7529 37.1977 21.3806 36.915C21.2177 36.7895 21.0478 36.6735 20.8716 36.5674L20.9088 36.5731C21.3585 36.637 21.5103 36.5375 21.5615 36.1644C21.5653 36.115 21.5909 36.065 21.6158 36.0511C21.6521 36.025 21.6562 35.9356 21.6237 35.6132C21.3856 33.1366 20.1712 31.6594 17.4041 30.4766C17.1859 30.3798 16.9659 30.2871 16.7442 30.1986C16.7331 30.1973 16.7622 30.3088 16.8023 30.4397Z" fill="url(#paint0_radial_1073_14654)"/>
<mask id="mask0_1073_14654" style="mask-type:luminance" maskUnits="userSpaceOnUse" x="0" y="1" width="22" height="40">
<path fill-rule="evenodd" clip-rule="evenodd" d="M6.86739 1.42408C6.32743 2.63148 6.01451 3.62984 5.87747 4.57876C5.79631 5.13288 5.80105 6.45079 5.88536 6.96209C5.99209 7.64403 6.24786 8.34927 6.51563 8.72204C6.63183 8.88261 6.6773 8.91881 6.78971 8.93361C7.06095 8.96919 7.38461 8.60145 7.64859 7.95572C7.83142 7.50896 8.00319 6.79617 7.98078 6.58775C7.96657 6.48794 7.97004 6.47126 7.99814 6.52635C8.02309 6.58113 8.03003 6.57295 8.01551 6.48574C8.0134 6.3151 8.01972 6.14466 8.03446 5.97444C8.09635 5.24685 8.02751 4.45062 7.82068 3.55081C7.69848 3.00457 7.42408 2.09594 7.2081 1.51129L7.03948 1.04407L6.86739 1.42408ZM11.0734 5.59002C10.3436 5.80222 10.0487 5.91368 9.62812 6.13343C8.45095 6.76122 7.72785 7.66481 7.45187 8.85049C7.36661 9.22956 7.28009 10.1209 7.32051 10.2474C7.35303 10.3567 7.35967 10.3834 7.36598 10.4666C7.37103 10.6063 7.55039 10.8176 7.70606 10.8736C7.87973 10.9366 8.43421 10.9612 8.55073 10.9117C8.59146 10.896 8.62588 10.8875 8.62557 10.8963C8.62557 10.9048 8.45063 11.0547 8.24097 11.2297C7.04043 12.2152 6.39216 13.1802 6.12155 14.3762C6.07261 14.6039 6.05335 14.8268 6.04893 15.3421C6.04577 15.7115 6.05556 16.0729 6.06882 16.1481C6.08524 16.2464 6.08461 16.2634 6.05808 16.2117C6.0344 16.1607 6.03061 16.2171 6.04293 16.4047C6.09155 17.0618 6.30185 17.3168 6.76256 17.2032C6.22891 18.2015 5.98735 19.1696 6.01893 20.1548L6.02966 20.5641C6.03377 20.7224 6.03787 20.8735 6.03977 20.9737C6.05429 21.5643 6.21249 22.2217 6.38806 22.3952C6.61162 22.6231 6.87276 22.5554 7.29967 22.1653C7.70385 21.7897 7.9972 21.343 8.19013 20.7977C8.33127 20.3953 8.44779 19.8739 8.46579 19.5367C8.47495 19.3957 8.50242 19.0519 8.52705 18.7714C8.57441 18.2582 8.57189 17.5312 8.51821 16.9012C8.48659 16.5534 8.44753 16.2062 8.40106 15.8601C8.56431 15.5405 8.74493 15.1089 8.83902 14.7934C8.96217 14.3854 9.12321 13.5177 9.097 13.3829C9.08437 13.3073 9.09069 13.2872 9.11816 13.3168C9.14879 13.3429 9.15163 13.3218 9.13932 13.2419C9.12574 13.1833 9.14184 12.9207 9.17152 12.6648C9.20963 12.2798 9.23573 11.8941 9.24983 11.5077C9.28109 10.7392 9.30004 10.5333 9.34046 10.5563C9.39793 10.5815 9.82358 10.2059 10.0746 9.90615C10.4946 9.40398 10.8103 8.79193 11.1387 7.83923C11.3866 7.11762 11.529 6.48637 11.4258 6.55469C11.392 6.57137 11.5196 5.97727 11.6181 5.64795C11.6774 5.44331 11.6777 5.43859 11.6468 5.43481C11.6301 5.43229 11.3743 5.50155 11.0734 5.59065V5.59002ZM3.75711 6.37869C3.54396 7.22498 3.48113 7.4948 3.40219 7.91731C3.2402 8.79508 3.18431 9.39611 3.19789 10.118C3.20483 10.4694 3.20862 10.8085 3.20799 10.8686C3.20294 11.3346 3.33556 12.1103 3.50323 12.6002C3.68322 13.1166 4.01477 13.7173 4.28222 14.0138C4.47705 14.2279 4.63241 14.2786 4.80702 14.1861C4.92512 14.1206 5.09311 13.8127 5.21594 13.4437C5.41898 12.837 5.46824 12.4441 5.48434 11.3412C5.49318 10.8028 5.48339 10.613 5.43003 10.3192C5.25162 9.34007 4.87176 8.33447 4.20076 7.07984L4.10729 6.90573C3.85531 6.43505 3.79626 6.32549 3.77479 6.3321C3.76816 6.3343 3.765 6.34721 3.76089 6.3639L3.75711 6.37869ZM1.24709 12.6764C1.26193 13.0086 1.27267 13.4106 1.27141 13.5709C1.26983 13.728 1.27583 13.846 1.28625 13.8259C1.29698 13.8095 1.30614 13.9241 1.30835 14.0812C1.31245 14.4729 1.45518 15.4539 1.59759 16.0398C1.76495 16.7384 1.99461 17.346 2.28659 17.8627C1.85983 17.6553 1.42012 17.4755 0.970166 17.3244C0.751446 17.2551 0.534305 17.1813 0.318743 17.103C0.271694 17.0873 0.236644 17.0823 0.236328 17.0955C0.236328 17.1043 0.300744 17.2822 0.382843 17.489C0.550198 17.9358 0.603563 18.1074 0.560934 18.0702C0.506623 18.018 0.496203 18.2346 0.538199 18.4537C0.648717 19.0069 1.48391 20.6676 2.00966 21.3641C2.45205 21.9553 3.0138 22.4928 3.37914 22.6738C3.50765 22.7361 3.55438 22.7698 3.4865 22.7472C3.41829 22.7235 3.20736 22.6536 3.02074 22.5923C2.60204 22.4569 1.75737 22.257 1.3134 22.194L0.98027 22.1464L1.16973 22.5381C1.42613 23.0718 1.42613 23.0718 1.38003 23.0299C1.31561 22.9719 1.28656 23.1986 1.33266 23.3964C1.42171 23.782 2.2648 25.1991 2.77539 25.8316C3.11516 26.2488 3.56954 26.6911 3.86289 26.8964C4.21339 27.1379 4.55694 27.3199 4.72871 27.3492L4.89323 27.3769L4.73282 27.3891C4.64251 27.3989 4.28759 27.4197 3.94435 27.4373C3.60017 27.4553 3.3103 27.476 3.29988 27.4833C3.29262 27.4915 3.29956 27.5144 3.31725 27.5349C3.41387 27.6331 3.81079 28.2446 3.75711 28.2146C3.69237 28.1791 3.65669 28.2449 3.65606 28.4092C3.65606 28.5783 3.84489 28.9167 4.16002 29.3119C5.40729 30.8798 6.41584 31.6319 7.51881 31.8019C7.74458 31.8334 7.98804 31.8595 8.05561 31.8466C8.12413 31.8384 7.93057 31.9049 7.62617 31.9905C6.78024 32.2345 6.515 32.3211 6.51531 32.3523C6.515 32.3658 6.61888 32.4914 6.74708 32.6252C6.94444 32.8308 7.11179 33.0506 6.98706 32.9347C6.94033 32.8925 6.87181 33.0251 6.87181 33.1586C6.87118 33.5984 8.60946 35.0092 9.69759 35.4525C9.96378 35.5617 10.3282 35.6395 10.6682 35.6694C10.5874 35.7346 10.5372 35.7786 10.5363 35.7881C10.5369 35.8073 10.6433 35.8791 10.7762 35.959C11.027 36.1083 11.1261 36.1977 11.0232 36.1838C10.9853 36.1779 10.9512 36.2295 10.9354 36.3129C10.8817 36.6123 11.1059 36.833 11.7946 37.1624C13.9711 38.2032 15.5323 38.1324 16.6308 36.9319C16.9172 36.6237 17.0167 36.368 16.9409 36.1536C16.9068 36.0497 16.9179 36.0038 17.0514 35.8057C17.132 35.6801 17.2008 35.5671 17.2005 35.5529C17.2005 35.539 17.1054 35.426 16.9914 35.3058C16.4622 34.751 15.9172 34.365 15.3624 34.1522C15.4104 34.0987 15.4557 34.0245 15.4982 33.9296C15.6213 33.6491 15.7555 33.0824 15.7729 32.7493C15.7783 32.6205 15.796 32.2833 15.814 32.0015C15.8518 31.4263 15.8231 31.0869 15.699 30.5281C15.4944 29.6062 15.0713 28.6979 14.3235 27.5695C13.8477 26.8517 13.5332 26.444 13.512 26.5183C13.5051 26.5476 13.4615 26.8473 13.4138 27.1848C13.3431 27.7043 13.3292 27.982 13.3115 29.0203C13.2856 30.3467 13.3096 30.745 13.4422 31.4251C13.6456 32.4508 14.0883 33.3613 14.6879 33.9671L14.7021 33.9812C14.5618 33.962 14.4201 33.9539 14.2784 33.957C13.825 33.9655 13.3001 34.0971 12.757 34.3338C12.7713 34.3179 12.7788 34.3066 12.7795 34.2998C12.7795 34.2819 12.6866 34.1087 12.5726 33.9145C11.9935 32.9303 11.2572 32.2704 10.3983 31.9663C10.0797 31.8545 9.08058 31.7525 8.70072 31.7918C8.23181 31.8406 8.17402 31.8328 8.48916 31.7748C8.6723 31.7434 8.85544 31.6763 8.92681 31.6149C9.06259 31.5057 9.14563 31.2727 9.10995 31.0948C9.09227 31.012 9.11437 30.9796 9.20026 30.9342C9.26089 30.9071 9.31141 30.8656 9.31078 30.8476C9.31109 30.8297 9.25394 30.6707 9.18668 30.4969C8.60473 29.0061 7.67133 28.0556 6.39406 27.6649C5.98893 27.5412 5.93936 27.5163 6.06819 27.4855C6.25102 27.4496 6.36911 27.2714 6.38743 27.0069C6.39153 26.9181 6.41995 26.8646 6.45942 26.8523L6.46132 26.852C6.48026 26.8476 6.49415 26.8445 6.50363 26.836C6.53457 26.8076 6.5131 26.7226 6.42153 26.3574L6.41711 26.3401C6.03314 24.8235 5.32867 23.8129 4.13066 23.074C3.98382 22.9858 3.91909 22.9326 3.98761 22.9603C4.0555 22.9918 4.28096 23.0371 4.48873 23.0667C4.77892 23.1083 4.89354 23.1064 4.99711 23.0592C5.13763 22.9902 5.2592 22.7588 5.2311 22.6165C5.22004 22.562 5.23773 22.5287 5.28067 22.5217C5.3634 22.5066 5.36372 22.4402 5.29646 21.973C5.14994 20.9888 4.79439 20.1217 4.25222 19.4108C4.36969 19.2921 4.43726 19.0532 4.46158 18.6892C4.48199 18.3256 4.49168 17.9615 4.49063 17.5973C4.49663 16.8801 4.49347 16.8446 4.38737 16.4296C4.08487 15.2307 3.44197 14.1848 2.31343 13.0624C2.02103 12.7699 1.27267 12.0839 1.24488 12.0795C1.23162 12.0776 1.23667 12.3487 1.24709 12.6764ZM8.5962 20.7073C7.5747 22.3205 7.10105 23.7534 7.14684 25.0877L7.14937 25.1997L7.15189 25.3018C7.15726 25.5105 7.16294 25.7476 7.16516 25.904C7.17273 26.3895 7.24725 26.7894 7.41366 27.193C7.55133 27.5283 7.6909 27.7351 7.82037 27.7953C8.14971 27.9505 8.93817 27.0091 9.22394 26.1254C9.34046 25.7683 9.45855 25.15 9.43108 25.0477C9.42161 25.008 9.43108 24.8802 9.45255 24.759C9.47055 24.6415 9.4936 24.2634 9.49897 23.9212C9.5135 23.2585 9.47119 22.7002 9.34709 21.9512C9.24983 21.3512 8.99659 20.1693 8.96754 20.1652C8.95112 20.163 8.78408 20.4066 8.5962 20.7073ZM10.7914 24.0559C10.1507 25.6182 9.9221 26.6452 9.91705 27.9659C9.91705 28.3343 9.92431 28.6135 9.93757 28.5893C9.95462 28.5616 9.95399 28.5997 9.94294 28.6712C9.87347 29.0811 10.163 30.2142 10.4879 30.8265C10.726 31.2683 10.9338 31.3983 11.1596 31.244C11.3888 31.0904 11.8078 30.3027 11.9604 29.7454C12.0301 29.485 12.1246 28.9243 12.1062 28.8793C12.0965 28.8604 12.1103 28.6482 12.1347 28.4076C12.2382 27.3221 12.0131 26.0259 11.4324 24.3714C11.3363 24.0941 11.2358 23.8184 11.1308 23.5443L11.0658 23.3863L10.7914 24.0559ZM16.8023 30.4478C16.9905 31.0532 17.0521 31.2856 17.0154 31.2532C16.994 31.2324 16.9791 31.3023 16.9791 31.437C16.9791 31.7859 17.3956 32.8985 17.8917 33.8698C18.4203 34.9081 19.1137 35.7125 19.8478 36.1719C19.6173 36.1294 19.3822 36.117 19.1484 36.1347C18.1001 36.2021 16.9179 36.8862 15.5945 38.1755L15.3892 38.3814L15.67 38.5297C15.8256 38.6128 15.9245 38.6837 15.8901 38.6884C15.8029 38.7041 15.7609 38.8955 15.8136 39.0441C15.8746 39.2173 16.0985 39.3719 16.5273 39.5413C18.6839 40.3888 20.2028 40.238 21.2754 39.0725C21.5375 38.785 21.6941 38.5203 21.7093 38.3298C21.7282 38.1349 21.7093 38.019 21.6638 38.0455C21.619 38.0766 21.6183 38.0722 21.8125 37.7228C21.8807 37.5965 21.9379 37.4775 21.9382 37.4495C21.9382 37.3787 21.7529 37.2058 21.3806 36.9231C21.2177 36.7976 21.0478 36.6815 20.8716 36.5755L20.9088 36.5812C21.3585 36.6451 21.5103 36.5456 21.5615 36.1725C21.5653 36.1231 21.5909 36.073 21.6158 36.0592C21.6521 36.033 21.6562 35.9436 21.6237 35.6212C21.3856 33.1447 20.1712 31.6675 17.4041 30.4846C17.1859 30.3879 16.9659 30.2952 16.7442 30.2066C16.7331 30.2054 16.7622 30.3168 16.8023 30.4478Z" fill="white"/>
</mask>
<g mask="url(#mask0_1073_14654)">
<path d="M5.87909 4.57407L6.1917 4.61941V4.61878L5.87909 4.57407ZM6.8687 1.41939L6.58104 1.28967L6.58041 1.29093L6.8687 1.41939ZM5.88667 6.9574L6.19896 6.90891L6.19833 6.90671L5.88667 6.9574ZM6.51725 8.71735L6.26022 8.90058L6.26117 8.90184L6.51725 8.71735ZM7.9824 6.58306L8.29627 6.54937L8.29564 6.54402L8.29501 6.53898L7.9824 6.58306ZM7.99977 6.52166L8.28712 6.39163L8.28459 6.38534L8.28143 6.37967L7.99977 6.52166ZM8.01714 6.48105L7.70137 6.48546L7.70169 6.50938L7.70579 6.533L8.01714 6.48105ZM8.03608 5.96975L8.35058 5.99746V5.99651L8.03608 5.96975ZM7.82231 3.54612L7.51412 3.61444L7.51444 3.61633L7.82231 3.54612ZM7.20973 1.5066L6.91291 1.61364L6.91354 1.61553L7.20973 1.5066ZM7.04111 1.03938L7.33793 0.93233L7.07363 0.201904L6.75313 0.909977L7.04111 1.03938ZM9.63038 6.12874L9.48355 5.8498L9.48102 5.85106L9.63038 6.12874ZM11.0753 5.58533L11.3794 5.67065L11.5341 5.12409L10.9872 5.28309L11.0753 5.58533ZM7.4535 8.84612L7.14594 8.77496L7.14563 8.77685L7.4535 8.84612ZM7.32214 10.2427L7.62464 10.153L7.62401 10.1502L7.62306 10.1477L7.32214 10.2427ZM7.36761 10.4619L7.68337 10.4502L7.68274 10.4446V10.4389L7.36761 10.4619ZM7.70769 10.869L7.81599 10.573H7.81536L7.70769 10.869ZM8.55236 10.907L8.43616 10.6142L8.43268 10.6158L8.42921 10.6174L8.55236 10.907ZM8.62719 10.8916L8.31143 10.8878V10.8935L8.62719 10.8916ZM8.24259 11.225L8.44342 11.4681L8.44563 11.4662L8.24259 11.225ZM6.12318 14.3715L5.81531 14.3023L5.81468 14.3051L6.12318 14.3715ZM6.07045 16.1434L6.38179 16.0918V16.0899L6.07045 16.1434ZM6.05971 16.207L5.77331 16.3393L5.77584 16.3449L5.77836 16.3503L6.05971 16.207ZM6.04455 16.4L5.72942 16.4205V16.4237L6.04455 16.4ZM6.76418 17.1985L7.04269 17.3464L7.37613 16.7234L6.6884 16.8931L6.76418 17.1985ZM6.02056 20.1501L6.33632 20.1428V20.1397L6.02056 20.1501ZM6.0414 20.969L5.72563 20.9753V20.9765L6.0414 20.969ZM6.38969 22.3905L6.61514 22.1704L6.61356 22.1688L6.61198 22.1673L6.38969 22.3905ZM7.3013 22.1606L7.51475 22.393L7.51665 22.3911L7.3013 22.1606ZM8.19175 20.793L8.48984 20.8978L8.49015 20.8966L8.19175 20.793ZM8.46742 19.5321L8.15228 19.5119V19.5154L8.46742 19.5321ZM8.52868 18.7667L8.21417 18.738V18.7396L8.52868 18.7667ZM8.51983 16.8965L8.20502 16.9211V16.923L8.51983 16.8965ZM8.40269 15.8554L8.12134 15.7124L8.07713 15.7993L8.08976 15.896L8.40269 15.8554ZM8.84065 14.7887L8.53846 14.698L8.53815 14.6987L8.84065 14.7887ZM9.09863 13.3782L8.78729 13.4299L8.78792 13.4336L8.78855 13.4377L9.09863 13.3782ZM9.11979 13.3121L8.88612 13.5243L8.90002 13.5394L8.91549 13.5523L9.11979 13.3121ZM9.14094 13.2372L9.45292 13.189L9.45134 13.177L9.44818 13.1651L9.14094 13.2372ZM9.17315 12.6601L9.48671 12.696L9.48702 12.6934V12.6912L9.17315 12.6601ZM9.25146 11.503L8.9357 11.4904V11.4917L9.25146 11.503ZM9.34209 10.5516L9.18736 10.8258L9.20094 10.8337L9.21546 10.84L9.34209 10.5516ZM10.0762 9.90146L10.3187 10.1036V10.1026L10.0762 9.90146ZM11.4274 6.55L11.5685 6.83146L11.5859 6.82296L11.6023 6.81226L11.4274 6.55ZM11.6197 5.64326L11.9222 5.73299L11.9228 5.7311L11.6197 5.64326ZM11.6484 5.43012L11.6049 5.74181L11.609 5.74244L11.6484 5.43012ZM11.075 5.58596L10.7709 5.50033L10.6159 6.04972L11.1647 5.88789L11.075 5.58596ZM3.4035 7.91262L3.0931 7.855V7.85563L3.4035 7.91262ZM3.75873 6.374L3.4537 6.29246L3.45307 6.29498L3.45244 6.2975L3.75873 6.374ZM3.50486 12.5955L3.20614 12.6972L3.20678 12.6988L3.50486 12.5955ZM4.28385 14.0092L4.0486 14.2198L4.05018 14.221L4.28385 14.0092ZM4.80865 14.1814L4.95706 14.4594L4.95959 14.4578L4.96211 14.4565L4.80865 14.1814ZM5.48597 11.3365L5.1702 11.3311V11.3321L5.48597 11.3365ZM4.10892 6.90104L4.38742 6.75275L4.38174 6.74173L4.37511 6.73134L4.10892 6.90104ZM4.10892 6.90104L3.83041 7.04933L3.83641 7.06035L3.84304 7.07074L4.10892 6.90104ZM1.27272 13.5659L1.58848 13.569V13.5684L1.27272 13.5659ZM1.2484 12.6714L0.932639 12.6815L0.932954 12.6853L1.2484 12.6714ZM1.28756 13.8206L1.02358 13.6484L1.01474 13.6616L1.00747 13.6757L1.28756 13.8206ZM1.30966 14.0762L1.62543 14.0731V14.0721L1.30966 14.0762ZM1.5989 16.0348L1.90583 15.9615V15.9608L1.5989 16.0348ZM2.2879 17.8577L2.14833 18.1402L3.065 18.591L2.56293 17.7032L2.2879 17.8577ZM0.971478 17.3194L1.07284 17.0212L1.06968 17.02L1.06684 17.019L0.971478 17.3194ZM0.320055 17.098L0.428362 16.8021L0.423942 16.8005L0.419837 16.7993L0.320055 17.098ZM0.23764 17.0905L0.553405 17.0943V17.0924L0.23764 17.0905ZM0.384155 17.484L0.679711 17.3738L0.678764 17.3713L0.677816 17.3685L0.384155 17.484ZM0.562247 18.0652L0.342474 18.2913L0.348158 18.2969L0.354473 18.3026L0.562247 18.0652ZM0.539511 18.4487L0.22943 18.5076L0.229746 18.5104L0.539511 18.4487ZM2.01098 21.3591L2.2639 21.1708L2.26327 21.1698L2.01098 21.3591ZM3.38045 22.6688L3.23993 22.9509L3.24214 22.9518L3.38045 22.6688ZM3.48781 22.7422L3.38518 23.0397L3.38771 23.0406L3.48781 22.7422ZM3.02205 22.5873L3.12089 22.2882L3.11963 22.2878L3.02205 22.5873ZM0.981582 22.1414L1.02642 21.8297L0.43973 21.746L0.697078 22.2781L0.981582 22.1414ZM1.17104 22.5331L1.45554 22.3968V22.3961L1.17104 22.5331ZM1.33398 23.3913L1.64153 23.3208V23.3202L1.33398 23.3913ZM2.7767 25.8266L2.53041 26.024L2.53167 26.025L2.7767 25.8266ZM3.8642 26.8914L3.68263 27.1489L3.68484 27.1505L3.8642 26.8914ZM4.89454 27.3719L4.91885 27.6857L4.94727 27.0614L4.89454 27.3719ZM4.73413 27.3841L4.70982 27.0702L4.70476 27.0706L4.69971 27.0712L4.73413 27.3841ZM3.94567 27.4323L3.92925 27.1178H3.92893L3.94567 27.4323ZM3.30119 27.4783L3.12184 27.2192L3.089 27.2415L3.0631 27.2714L3.30119 27.4783ZM3.31856 27.5299L3.07921 27.7355L3.08584 27.743L3.0931 27.7503L3.31856 27.5299ZM3.75842 28.2096L3.91314 27.9348L3.91062 27.9335L3.75842 28.2096ZM3.65737 28.4042L3.34161 28.4033V28.4039L3.65737 28.4042ZM7.52012 31.7969L7.47213 32.108L7.47623 32.1086L7.52012 31.7969ZM8.05692 31.8416L8.01903 31.529L8.00893 31.5302L7.99819 31.5324L8.05692 31.8416ZM7.62748 31.9855L7.54191 31.6823L7.5397 31.6829L7.62748 31.9855ZM6.51662 32.3473L6.83239 32.3526V32.3447L6.51662 32.3473ZM6.74839 32.6202L6.51978 32.8375L6.52041 32.8381L6.74839 32.6202ZM6.98837 32.9297L7.2031 32.6992L7.20088 32.6974L6.98837 32.9297ZM9.6989 35.4475L9.81889 35.1562L9.81826 35.1559L9.6989 35.4475ZM10.6696 35.6644L10.8679 35.9093L11.4754 35.4198L10.6973 35.3508L10.6696 35.6644ZM10.5376 35.7831L10.224 35.745L10.2209 35.7689L10.2218 35.7925L10.5376 35.7831ZM10.7776 35.954L10.6149 36.2239L10.6156 36.2242L10.7776 35.954ZM11.0245 36.1788L10.9759 36.4899L10.979 36.4905L10.9822 36.4908L11.0245 36.1788ZM10.9367 36.3079L10.6263 36.2497L10.626 36.2522L10.9367 36.3079ZM16.6321 36.9269L16.4007 36.7128L16.3991 36.7147L16.6321 36.9269ZM16.9422 36.1486L16.6419 36.2462L16.6432 36.2497L16.6445 36.2535L16.9422 36.1486ZM17.0527 35.8007L17.3148 35.9761L17.3167 35.9732L17.3183 35.9704L17.0527 35.8007ZM17.2018 35.5479L17.5176 35.5444V35.5407L17.2018 35.5479ZM16.9928 35.3008L17.2226 35.0848L17.2217 35.0835L16.9928 35.3008ZM15.3637 34.1472L15.1288 33.9366L14.8225 34.2766L15.2504 34.4409L15.3637 34.1472ZM15.4995 33.9246L15.7875 34.0543L15.7891 34.0505L15.4995 33.9246ZM15.7742 32.7443L16.0893 32.7609V32.7581L15.7742 32.7443ZM13.5133 26.5133L13.2096 26.428L13.208 26.434L13.2064 26.4396L13.5133 26.5133ZM13.4151 27.1798L13.1025 27.1357L13.1022 27.1376L13.4151 27.1798ZM13.3128 29.0153L13.6286 29.0216V29.0207L13.3128 29.0153ZM13.4436 31.4201L13.1335 31.4799V31.4811L13.4436 31.4201ZM14.6892 33.9621L14.9147 33.7414L14.9141 33.7407L14.6892 33.9621ZM14.7035 33.9762L14.6608 34.2879L15.586 34.4132L14.927 33.754L14.7035 33.9762ZM14.2797 33.952L14.2857 34.2668L14.2863 34.2665L14.2797 33.952ZM12.7583 34.3288L12.5247 34.1166L12.8847 34.6172L12.7583 34.3288ZM10.3996 31.9613L10.5054 31.6644H10.5044L10.3996 31.9613ZM8.49047 31.7698L8.43647 31.4597L8.43331 31.4603L8.49047 31.7698ZM8.92812 31.6099L8.72982 31.365L8.72634 31.3681L8.72256 31.3709L8.92812 31.6099ZM9.11126 31.0898L9.42103 31.0284L9.42008 31.0243L9.11126 31.0898ZM9.20157 30.9292L9.07211 30.6418L9.06295 30.6462L9.05379 30.6509L9.20157 30.9292ZM9.31209 30.8426L8.99632 30.8385V30.8483L9.31209 30.8426ZM9.18799 30.4919L9.4826 30.3786L9.48229 30.3776L9.18799 30.4919ZM6.0695 27.4805L6.00824 27.1719L6.00193 27.1729L5.99561 27.1745L6.0695 27.4805ZM6.38874 27.0019L6.70387 27.024V27.0196L6.70419 27.0155L6.38874 27.0019ZM6.46073 26.8473L6.39126 26.5401L6.37958 26.5429L6.3679 26.5463L6.46073 26.8473ZM6.46263 26.847L6.39537 26.5394L6.39347 26.5397L6.46263 26.847ZM6.46263 26.847L6.5302 27.1546L6.53273 27.154L6.46263 26.847ZM6.42284 26.3524L6.11276 26.4113L6.11434 26.4201L6.11655 26.4286L6.42284 26.3524ZM6.42284 26.3524L6.73292 26.2929L6.73134 26.2844L6.72913 26.2759L6.42284 26.3524ZM6.41842 26.3351L6.72471 26.2586V26.258L6.41842 26.3351ZM4.13197 23.069L4.29806 22.8013L4.29459 22.7988L4.13197 23.069ZM3.98893 22.9553L4.12281 22.6701L4.11523 22.6666L4.10734 22.6634L3.98893 22.9553ZM4.99843 23.0542L5.12978 23.3407L5.1342 23.3385L5.13831 23.3366L4.99843 23.0542ZM5.23241 22.6115L5.54217 22.551L5.54186 22.5485L5.23241 22.6115ZM5.28198 22.5167L5.33314 22.8275L5.33629 22.8268L5.33882 22.8265L5.28198 22.5167ZM5.29777 21.968L5.61038 21.9233V21.9217L5.29777 21.968ZM4.25354 19.4058L4.02871 19.1845L3.8361 19.379L4.00219 19.5963L4.25354 19.4058ZM4.46289 18.6842L4.77802 18.7053V18.7021L4.46289 18.6842ZM4.49194 17.5923L4.17617 17.5898V17.593L4.49194 17.5923ZM4.38868 16.4246L4.08239 16.5014V16.5024L4.38868 16.4246ZM2.31474 13.0574L2.09086 13.2797L2.0915 13.2803L2.31474 13.0574ZM1.24619 12.0745L1.29356 11.7634L1.29229 11.7631L1.24619 12.0745ZM7.14784 25.0827L7.4636 25.0751V25.072L7.14784 25.0827ZM8.59751 20.7023L8.86465 20.8704L8.8656 20.8685L8.59751 20.7023ZM7.16647 25.899L6.8507 25.9031V25.9041L7.16647 25.899ZM7.82168 27.7903L7.95683 27.5057L7.95525 27.505L7.82168 27.7903ZM9.22525 26.1204L8.92496 26.0228L8.92464 26.024L9.22525 26.1204ZM9.43239 25.0427L9.12516 25.1145L9.1261 25.1192L9.12737 25.1236L9.43239 25.0427ZM9.45387 24.754L9.76458 24.8091L9.76521 24.8053L9.76584 24.8018L9.45387 24.754ZM9.50028 23.9162L9.18452 23.9093V23.9111L9.50028 23.9162ZM9.3484 21.9462L9.03643 21.9966L9.03674 21.9976L9.3484 21.9462ZM8.96885 20.1602L9.0118 19.8485L9.01085 19.8482L8.96885 20.1602ZM9.91836 27.9609L9.60259 27.9597V27.9606L9.91836 27.9609ZM9.93888 28.5843L9.66922 28.4206L9.66606 28.4259L9.6629 28.4316L9.93888 28.5843ZM9.94425 28.6662L10.2556 28.7187L10.2562 28.715L9.94425 28.6662ZM10.4893 30.8215L10.2101 30.9686L10.2111 30.9705L10.4893 30.8215ZM11.1609 31.239L10.9847 30.9777L10.9825 30.9793L11.1609 31.239ZM11.9617 29.7404L12.2664 29.8232L12.2667 29.8216L11.9617 29.7404ZM12.1076 28.8743L12.3996 28.7546L12.3946 28.742L12.3883 28.7301L12.1076 28.8743ZM12.136 28.4026L12.4498 28.4338V28.4325L12.136 28.4026ZM11.4337 24.3664L11.1353 24.4694L11.1359 24.4706L11.4337 24.3664ZM11.1322 23.5393L11.4271 23.4269L11.4258 23.4235L11.4242 23.4197L11.1322 23.5393ZM11.0671 23.3813L11.3592 23.2616L11.0665 22.5501L10.7747 23.2619L11.0671 23.3813ZM17.0167 31.2481L16.7948 31.4723L16.8011 31.4783L16.8074 31.484L17.0167 31.2481ZM16.8036 30.4428L16.5017 30.535V30.536L16.8036 30.4428ZM17.893 33.8648L18.175 33.7225L18.1747 33.7218L17.893 33.8648ZM19.8492 36.1669L19.7907 36.4764L20.0168 35.9002L19.8492 36.1669ZM19.1497 36.1297L19.1267 35.8155L18.9057 35.8316L18.8457 36.0444L19.1497 36.1297ZM19.1497 36.1297L19.1696 36.4442L19.3929 36.4301L19.4535 36.2157L19.1497 36.1297ZM15.5958 38.1705L15.3748 37.9451L15.3732 37.947L15.3713 37.9489L15.5958 38.1705ZM15.3906 38.3764L15.1664 38.1548L14.867 38.4561L15.2428 38.6547L15.3906 38.3764ZM15.6713 38.5247L15.8203 38.2473L15.8191 38.2464L15.6713 38.5247ZM15.8914 38.6834L15.8491 38.3714L15.8424 38.3723L15.8358 38.3736L15.8914 38.6834ZM15.8149 39.0391L16.113 38.9349L16.1127 38.9343L15.8149 39.0391ZM16.5286 39.5363L16.4124 39.8291H16.413L16.5286 39.5363ZM21.2767 39.0675L21.5094 39.2803L21.5101 39.2794L21.2767 39.0675ZM21.7106 38.3248L21.3961 38.2946V38.2971L21.3958 38.2999L21.7106 38.3248ZM21.6651 38.0405L21.5053 37.7691L21.4952 37.7751L21.4858 37.7817L21.6651 38.0405ZM21.8138 37.7178L22.0901 37.8702L22.0917 37.867L21.8138 37.7178ZM21.9395 37.4445L22.2553 37.4454V37.4445H21.9395ZM21.3819 36.9181L21.1893 37.1677L21.1905 37.1687L21.3819 36.9181ZM20.8729 36.5705L20.9231 36.2594L20.7109 36.8406L20.8729 36.5705ZM21.5628 36.1675L21.8754 36.21L21.877 36.2002L21.8776 36.1905L21.5628 36.1675ZM21.6171 36.0542L21.7706 36.3293L21.787 36.3202L21.8022 36.3092L21.6171 36.0542ZM21.625 35.6162L21.3108 35.6464V35.648L21.625 35.6162ZM17.4058 30.4796L17.2773 30.7674L17.2814 30.769L17.4058 30.4796ZM16.7458 30.2016L16.8633 29.9095L16.8248 29.894L16.7837 29.889L16.7458 30.2016ZM6.1917 4.61878C6.32369 3.70732 6.62525 2.73762 7.15731 1.54752L6.58041 1.29093C6.03287 2.51565 5.7089 3.54297 5.56649 4.52905L6.1917 4.61878ZM6.19833 6.90671C6.16044 6.67719 6.13834 6.24114 6.13676 5.78053C6.13518 5.32118 6.15476 4.87222 6.1917 4.61941L5.56649 4.5281C5.52228 4.8294 5.50333 5.31677 5.50523 5.78274C5.50681 6.24775 5.52891 6.72631 5.57533 7.00872L6.19833 6.90671ZM6.77397 8.53443C6.54504 8.21518 6.30127 7.56252 6.19896 6.90891L5.57501 7.0062C5.68616 7.71616 5.95393 8.47366 6.26022 8.90058L6.77397 8.53443ZM6.8327 8.61691C6.81755 8.61471 6.81818 8.61377 6.82576 8.6166C6.83586 8.62006 6.8447 8.62541 6.84944 8.62919C6.8526 8.6314 6.84786 8.62856 6.83365 8.61188C6.81241 8.58644 6.79219 8.56019 6.77302 8.53317L6.26148 8.90153C6.31801 8.98024 6.38179 9.0643 6.462 9.12632C6.56051 9.20283 6.65935 9.22896 6.74997 9.24092L6.8327 8.61691ZM7.3575 7.83234C7.23309 8.13678 7.10237 8.3556 6.98585 8.48783C6.85796 8.6336 6.80618 8.61345 6.8327 8.61691L6.74997 9.24092C7.04742 9.27996 7.2934 9.09389 7.46076 8.90279C7.64011 8.69909 7.80305 8.41101 7.94262 8.07004L7.3575 7.83234ZM7.66853 6.61706C7.66853 6.61611 7.66948 6.62902 7.66695 6.66114C7.66506 6.69052 7.66053 6.7283 7.65338 6.77448C7.63948 6.86641 7.61643 6.97975 7.58643 7.1038C7.5277 7.35165 7.4513 7.59501 7.35782 7.83202L7.94262 8.07004C8.09568 7.68248 8.20785 7.28018 8.27796 6.86956C8.29375 6.76409 8.30669 6.64539 8.29627 6.54937L7.66853 6.61706ZM8.28143 6.37967C8.27638 6.36959 8.25491 6.32552 8.2208 6.28648C8.18931 6.24999 8.14994 6.22109 8.10564 6.20195C8.06134 6.18281 8.01327 6.17393 7.96504 6.17597C7.89688 6.17888 7.83145 6.20351 7.77837 6.24624C7.72528 6.28897 7.68734 6.34754 7.67011 6.41336C7.66216 6.44314 7.65823 6.47384 7.65843 6.50466C7.65843 6.52166 7.65937 6.5374 7.66064 6.54937C7.66274 6.57393 7.6658 6.59985 7.6698 6.62713L8.29501 6.53898L8.28996 6.49805V6.50592C8.28996 6.50781 8.29059 6.5374 8.28048 6.57518C8.26544 6.62909 8.23617 6.67797 8.19571 6.71675C8.15526 6.75552 8.10512 6.78276 8.05051 6.79563C7.9959 6.80849 7.93882 6.80651 7.88524 6.78989C7.83167 6.77326 7.78354 6.74261 7.74589 6.70112C7.71969 6.67152 7.70895 6.64602 7.71779 6.66334L8.28143 6.37967ZM7.70579 6.53268C7.70895 6.55157 7.70958 6.55818 7.70927 6.55724C7.70858 6.5497 7.70858 6.54211 7.70927 6.53457C7.70927 6.53457 7.70895 6.47695 7.74147 6.41273C7.76557 6.36503 7.80155 6.32431 7.84597 6.29447C7.89038 6.26463 7.94175 6.24667 7.99513 6.24231C8.04851 6.23794 8.10212 6.24733 8.15081 6.26956C8.19951 6.2918 8.24166 6.32613 8.27322 6.36928C8.28775 6.39006 8.29312 6.40423 8.28712 6.39163L7.71242 6.65169C7.71874 6.66649 7.73453 6.70018 7.75695 6.73197C7.7601 6.73638 7.80115 6.79998 7.8823 6.83902C7.95748 6.87547 8.04402 6.88095 8.12321 6.85425C8.2024 6.82756 8.26786 6.77085 8.30543 6.6964C8.33922 6.62934 8.34016 6.56637 8.34016 6.5585C8.3412 6.54107 8.34077 6.52359 8.3389 6.50623C8.3366 6.4804 8.33323 6.45466 8.3288 6.4291L7.70579 6.53268ZM7.72158 5.94204C7.70561 6.12272 7.69887 6.30409 7.70137 6.48546L8.3329 6.47664C8.3308 6.3167 8.33669 6.15687 8.35058 5.99714L7.72158 5.94204ZM7.51444 3.61633C7.71558 4.49221 7.78 5.25475 7.72158 5.94299L8.3509 5.99651C8.41595 5.22956 8.34237 4.40028 8.12986 3.4756L7.51444 3.61633ZM6.91354 1.61553C7.1251 2.18885 7.3954 3.08394 7.51412 3.61444L8.1305 3.47749C8.00482 2.91581 7.72632 1.99334 7.50623 1.39798L6.91354 1.61553ZM6.74366 1.14642L6.91291 1.61364L7.50686 1.39955L7.33793 0.932645L6.74366 1.14642ZM7.15668 1.54878L7.32845 1.16909L6.75313 0.909977L6.58104 1.28967L7.15668 1.54878ZM9.77626 6.40769C10.171 6.20147 10.4435 6.09694 11.1634 5.88758L10.9866 5.28309C10.2468 5.49812 9.92972 5.61681 9.48355 5.8498L9.77626 6.40769ZM7.76105 8.91695C8.01461 7.82856 8.67361 6.99581 9.77879 6.40643L9.48102 5.85106C8.23217 6.51725 7.44466 7.49168 7.14594 8.77496L7.76105 8.91695ZM7.62306 10.1477C7.63254 10.1769 7.62938 10.1889 7.62811 10.1511C7.62701 10.1126 7.62733 10.0741 7.62906 10.0356C7.63253 9.9364 7.64169 9.80795 7.65495 9.66879C7.68179 9.38701 7.72348 9.08508 7.76168 8.91507L7.14563 8.77685C7.09826 8.9859 7.05405 9.319 7.02627 9.60929C7.01237 9.756 7.00227 9.89768 6.99785 10.0135C6.99584 10.0667 6.99552 10.12 6.9969 10.1732C6.99848 10.2097 7.00164 10.2767 7.0209 10.3378L7.62306 10.1477ZM7.68274 10.4389C7.67422 10.323 7.66001 10.2711 7.62464 10.153L7.01932 10.3325C7.03637 10.3895 7.04237 10.4112 7.04584 10.4276C7.04805 10.4386 7.05027 10.4502 7.05279 10.4849L7.68274 10.4389ZM7.81536 10.573C7.8162 10.5736 7.81336 10.5722 7.80684 10.5686C7.79859 10.5635 7.79058 10.558 7.78284 10.5522C7.74298 10.5203 7.70946 10.4812 7.684 10.437C7.67579 10.42 7.68243 10.4253 7.68337 10.4502L7.05216 10.4738C7.05847 10.6486 7.15889 10.8035 7.23909 10.8989C7.3253 11.0015 7.45223 11.1114 7.60001 11.1649L7.81536 10.573ZM8.42921 10.6174C8.45194 10.608 8.46236 10.608 8.44342 10.6108C8.42995 10.6129 8.40858 10.6148 8.37932 10.6165C8.23198 10.6219 8.08444 10.6153 7.9382 10.5966C7.90054 10.5915 7.86314 10.5847 7.8261 10.5762L7.81852 10.574L7.81599 10.5733L7.59938 11.1649C7.73705 11.2146 7.96377 11.237 8.13713 11.2446C8.23186 11.249 8.32816 11.2496 8.41184 11.2452C8.45326 11.2434 8.49457 11.2397 8.53562 11.2339C8.57036 11.2285 8.6234 11.2191 8.67551 11.197L8.42921 10.6174ZM8.94296 10.8957C8.94404 10.8134 8.9131 10.7339 8.85663 10.6739C8.80016 10.6139 8.72256 10.5781 8.64014 10.574C8.59183 10.5708 8.55173 10.5796 8.53815 10.5825C8.50331 10.5902 8.46919 10.6008 8.43616 10.6142L8.66824 11.1998C8.68087 11.1951 8.68214 11.1954 8.67203 11.1976C8.67203 11.1976 8.6433 11.2049 8.60256 11.2024C8.52291 11.1968 8.44839 11.1611 8.39427 11.1026C8.34015 11.0441 8.31051 10.9675 8.31143 10.8878L8.94296 10.8957ZM8.44563 11.4662C8.55078 11.3784 8.64835 11.2962 8.72034 11.2339C8.75571 11.2033 8.78666 11.1759 8.80971 11.1551C8.82076 11.1451 8.83307 11.1334 8.84381 11.1224C8.86264 11.1034 8.87956 11.0826 8.89433 11.0604C8.92655 11.0094 8.94343 10.9503 8.94296 10.89L8.31143 10.8935C8.31143 10.8146 8.34118 10.7382 8.39479 10.6801L8.38342 10.6904C8.36679 10.7058 8.34122 10.7282 8.30669 10.7578C8.2388 10.8167 8.14407 10.8963 8.03987 10.9836L8.44563 11.4662ZM6.43137 14.4405C6.68271 13.3291 7.28267 12.4205 8.44342 11.4681L8.04208 10.982C6.80113 11.9999 6.10455 13.0221 5.81531 14.3023L6.43137 14.4405ZM6.36632 15.3406C6.37074 14.8299 6.38969 14.6329 6.432 14.4377L5.81468 14.3051C5.75847 14.5652 5.73953 14.8148 5.73479 15.3346L6.36632 15.3406ZM6.38147 16.0899C6.38179 16.0921 6.37958 16.0732 6.37674 16.0207C6.37373 15.9614 6.37152 15.9021 6.37011 15.8428C6.36605 15.6754 6.36479 15.508 6.36632 15.3406L5.73479 15.3346C5.73321 15.5229 5.73479 15.709 5.73858 15.8588C5.74205 15.9958 5.74805 16.1318 5.75942 16.1973L6.38147 16.0899ZM5.77836 16.3503C5.78215 16.3572 5.80268 16.3997 5.83425 16.4366C5.87381 16.4839 5.92635 16.5187 5.98544 16.5368C6.04453 16.5548 6.10761 16.5553 6.16697 16.5381C6.22633 16.521 6.27939 16.487 6.31967 16.4403C6.35996 16.3936 6.38571 16.3361 6.39379 16.275C6.40137 16.2215 6.39347 16.1689 6.39284 16.163C6.38961 16.1392 6.38593 16.1155 6.38179 16.0918L5.75879 16.1957C5.76289 16.2193 5.7651 16.2335 5.76605 16.2414C5.76921 16.2643 5.76226 16.2316 5.76858 16.1878C5.77751 16.1288 5.80321 16.0735 5.84264 16.0286C5.88207 15.9836 5.93357 15.9508 5.99107 15.9341C6.04858 15.9174 6.10968 15.9174 6.16716 15.9342C6.22465 15.951 6.27611 15.9838 6.31548 16.0288C6.33979 16.0572 6.35053 16.0827 6.34074 16.0641L5.77836 16.3503ZM6.35937 16.3796C6.35642 16.3349 6.35463 16.2995 6.354 16.2735C6.35306 16.2451 6.35369 16.236 6.35337 16.2382L6.35211 16.2499C6.34573 16.2887 6.33166 16.3258 6.31074 16.3591C6.28414 16.4008 6.24797 16.4357 6.2052 16.4607C6.16243 16.4858 6.1143 16.5003 6.06479 16.5031C6.01527 16.506 5.9658 16.497 5.92044 16.477C5.87508 16.457 5.83515 16.4265 5.80394 16.3881C5.79227 16.3729 5.78202 16.3566 5.77331 16.3396L6.34611 16.0748C6.33375 16.0475 6.31817 16.0217 6.29969 15.998C6.26342 15.9506 6.21453 15.9144 6.15859 15.8934C6.10266 15.8724 6.04193 15.8675 5.98334 15.8792C5.92475 15.891 5.87064 15.9189 5.8272 15.9598C5.78375 16.0008 5.75272 16.053 5.73763 16.1107C5.72753 16.1453 5.725 16.1756 5.72374 16.19C5.71932 16.2477 5.72374 16.3317 5.72942 16.4205L6.35937 16.3796ZM6.6884 16.8931C6.52515 16.9337 6.49768 16.8924 6.48694 16.8802C6.44337 16.8311 6.38274 16.6944 6.35937 16.3767L5.72942 16.4237C5.75468 16.763 5.82415 17.0823 6.01298 17.2964C6.23464 17.5476 6.54252 17.5775 6.84028 17.5042L6.6884 16.8931ZM6.33632 20.1397C6.30632 19.2172 6.53146 18.3026 7.04269 17.3464L6.48568 17.0508C5.9293 18.0907 5.671 19.113 5.70511 20.1602L6.33632 20.1397ZM6.34706 20.5509L6.33632 20.1428L5.70479 20.1573L5.71553 20.5679L6.34706 20.5509ZM6.35716 20.9627C6.35527 20.8613 6.35116 20.7089 6.34706 20.5509L5.71553 20.5679C5.71995 20.7266 5.72374 20.8764 5.72595 20.9753L6.35716 20.9627ZM6.61198 22.1673C6.61293 22.1682 6.58956 22.1408 6.55483 22.0574C6.52325 21.9815 6.49105 21.8811 6.462 21.7617C6.39963 21.4993 6.3645 21.2311 6.35716 20.9614L5.72563 20.9765C5.73353 21.2945 5.77963 21.6289 5.84815 21.9103C5.88257 22.0511 5.92393 22.1846 5.9713 22.2992C6.01614 22.4062 6.07866 22.5262 6.16707 22.614L6.61198 22.1673ZM7.08816 21.9286C6.88101 22.1175 6.75755 22.1855 6.69124 22.2025C6.68322 22.2047 6.67494 22.2059 6.66661 22.206L6.66093 22.2054C6.65966 22.2047 6.64419 22.1997 6.61514 22.1704L6.1636 22.6109C6.24664 22.6949 6.34769 22.7673 6.47178 22.8061C6.59777 22.8454 6.72503 22.8435 6.84691 22.8124C7.07426 22.7547 7.29467 22.5935 7.51475 22.393L7.08816 21.9286ZM7.8943 20.6881C7.71748 21.1872 7.45223 21.5905 7.08595 21.9302L7.51665 22.3911C7.95935 21.9799 8.27985 21.4894 8.48984 20.8978L7.8943 20.6881ZM8.15197 19.5154C8.13618 19.8145 8.02819 20.3056 7.89399 20.6891L8.49015 20.8966C8.63761 20.4753 8.76266 19.924 8.78287 19.5487L8.15197 19.5154ZM8.21417 18.7396C8.18954 19.0204 8.16176 19.3671 8.15228 19.5119L8.78255 19.5522C8.79139 19.4153 8.81886 19.0746 8.84318 18.7938L8.21417 18.7396ZM8.20533 16.9227C8.25775 17.5382 8.25933 18.2466 8.21417 18.738L8.84318 18.7953C8.89212 18.2611 8.88959 17.5152 8.83465 16.8698L8.20533 16.9227ZM8.08945 15.896C8.13776 16.2669 8.18607 16.6818 8.20502 16.9211L8.83465 16.8714C8.80253 16.5183 8.76284 16.1661 8.71561 15.8148L8.08945 15.896ZM8.53815 14.6987C8.45037 14.9921 8.27796 15.4058 8.12134 15.7124L8.68403 15.9983C8.85391 15.6655 9.04242 15.2162 9.14347 14.8784L8.53815 14.6987ZM8.78855 13.4377C8.78381 13.4122 8.78697 13.4056 8.78476 13.4428C8.78218 13.4817 8.77839 13.5205 8.77339 13.5593C8.76076 13.6578 8.74055 13.7853 8.71498 13.9245C8.66351 14.204 8.5953 14.5101 8.53846 14.698L9.14315 14.8794C9.20946 14.659 9.28304 14.3275 9.33609 14.0378C9.36293 13.8917 9.38566 13.7516 9.39987 13.637C9.40713 13.58 9.4125 13.5259 9.41534 13.479C9.41755 13.4412 9.42008 13.3779 9.40903 13.3187L8.78855 13.4377ZM9.35314 13.1002C9.33837 13.0839 9.3222 13.069 9.30483 13.0555C9.26869 13.0276 9.22737 13.007 9.18326 12.9951C9.1029 12.9739 9.01746 12.9845 8.94478 13.0247C8.87211 13.0649 8.81783 13.1316 8.79329 13.2107C8.77276 13.2759 8.77655 13.3348 8.7775 13.3515C8.77939 13.3788 8.78318 13.4059 8.78697 13.4299L9.41029 13.3266L9.40808 13.3127C9.40829 13.3148 9.40829 13.3219 9.40808 13.3338C9.40632 13.3566 9.40208 13.3791 9.39545 13.4009C9.37104 13.4756 9.31896 13.5382 9.24984 13.5759C9.18071 13.6137 9.09976 13.6237 9.02348 13.604C8.9714 13.5903 8.92371 13.5628 8.88612 13.5243L9.35314 13.1002ZM8.82897 13.285L8.83181 13.3039L8.83244 13.3102L8.83213 13.2954C8.83628 13.2187 8.86958 13.1464 8.92528 13.0933C8.9572 13.0629 8.99527 13.0397 9.03693 13.0252C9.0786 13.0107 9.12289 13.0053 9.16684 13.0092C9.22428 13.0145 9.27892 13.0364 9.32409 13.0722L8.91549 13.5523C8.96918 13.6003 9.03696 13.6296 9.10874 13.6361C9.18609 13.6435 9.26353 13.6228 9.32679 13.5778C9.39004 13.5328 9.43484 13.4665 9.45292 13.3911C9.46776 13.3313 9.46334 13.2778 9.46208 13.262C9.45998 13.2376 9.45692 13.2132 9.45292 13.189L8.82897 13.285ZM8.85928 12.6242C8.84451 12.7507 8.83324 12.8777 8.82549 13.0048C8.82243 13.0558 8.82074 13.1068 8.82044 13.1578C8.82044 13.1912 8.82044 13.2535 8.8337 13.309L9.44818 13.1651C9.4545 13.1912 9.45166 13.1991 9.45166 13.1588C9.45166 13.1298 9.45313 13.0905 9.45608 13.0407C9.46176 12.9428 9.4725 12.8191 9.48671 12.696L8.85928 12.6242ZM8.9357 11.4917C8.92199 11.8715 8.8964 12.2507 8.85897 12.6289L9.48702 12.6912C9.52597 12.2998 9.55281 11.9075 9.56691 11.5144L8.9357 11.4917ZM9.49681 10.2771C9.43202 10.2406 9.35669 10.2274 9.28331 10.2395C9.20993 10.2515 9.14288 10.2882 9.09326 10.3435C9.03706 10.4058 9.01748 10.476 9.01116 10.4968C8.99484 10.5638 8.98407 10.6321 8.97896 10.7008C8.96412 10.8554 8.95148 11.1082 8.9357 11.4904L9.56691 11.5156C9.5827 11.1296 9.5947 10.8948 9.60764 10.76C9.61459 10.6876 9.61964 10.6656 9.61901 10.6684C9.60702 10.7041 9.58778 10.737 9.56249 10.7651C9.51612 10.8161 9.45377 10.8499 9.38563 10.861C9.31749 10.8721 9.24759 10.8595 9.18736 10.8258L9.49681 10.2771ZM9.83405 9.69964C9.72037 9.83502 9.5628 9.99244 9.42703 10.1127C9.37531 10.1598 9.32102 10.2039 9.26441 10.2449C9.24388 10.2594 9.23788 10.2616 9.24294 10.2594C9.25701 10.253 9.27172 10.248 9.28683 10.2446C9.34799 10.2313 9.41183 10.2378 9.46902 10.2632L9.21546 10.84C9.31177 10.8822 9.39798 10.8652 9.42734 10.8586C9.46587 10.8497 9.49681 10.8362 9.5167 10.8271C9.55524 10.8078 9.5922 10.7854 9.62722 10.7603C9.6929 10.7144 9.76931 10.6517 9.84605 10.584C10.0149 10.4353 10.1728 10.2747 10.3187 10.1036L9.83405 9.69964ZM10.8417 7.7319C10.5199 8.66603 10.2196 9.23841 9.83373 9.69996L10.3191 10.103C10.7725 9.56017 11.1041 8.90877 11.4391 7.93686L10.8417 7.7319ZM11.6023 6.81226C11.5688 6.83394 11.5313 6.84865 11.492 6.85552C11.4526 6.86239 11.4123 6.86128 11.3734 6.85224C11.3286 6.84214 11.2866 6.8219 11.2509 6.79307C11.2151 6.76425 11.1865 6.72762 11.1672 6.68601C11.1489 6.64571 11.1464 6.61454 11.1461 6.61045C11.1454 6.60226 11.1457 6.60006 11.1454 6.60635C11.1442 6.63784 11.1334 6.71025 11.1075 6.82737C11.057 7.05248 10.9632 7.37897 10.8417 7.73253L11.4391 7.93686C11.5654 7.5685 11.6667 7.21872 11.7236 6.96464C11.7511 6.84185 11.7725 6.72442 11.7763 6.63406C11.7776 6.60677 11.777 6.57942 11.7747 6.5522C11.7708 6.50878 11.7599 6.46627 11.7425 6.42627C11.7217 6.37944 11.6902 6.33809 11.6506 6.30547C11.611 6.27285 11.5643 6.24986 11.5142 6.23831C11.4695 6.22843 11.4233 6.22771 11.3783 6.23621C11.3333 6.24471 11.2905 6.26224 11.2525 6.28774L11.6023 6.81226ZM11.3169 5.5529C11.2588 5.75362 11.2081 5.95641 11.165 6.16086C11.1445 6.2572 11.1271 6.34756 11.117 6.41525C11.1123 6.44673 11.1075 6.48514 11.1063 6.52009C11.1059 6.53048 11.1041 6.57455 11.1167 6.62398C11.1211 6.64067 11.1413 6.7219 11.2184 6.78802C11.266 6.82888 11.3247 6.8548 11.387 6.86253C11.4494 6.87026 11.5123 6.85945 11.5685 6.83146L11.2859 6.26853C11.3412 6.24079 11.4036 6.23004 11.465 6.23767C11.5265 6.24529 11.5843 6.27093 11.6311 6.31135C11.7065 6.37652 11.7255 6.45523 11.729 6.46877C11.7344 6.49168 11.7373 6.51512 11.7375 6.53866C11.7375 6.54307 11.7375 6.53551 11.7416 6.50812C11.7488 6.45901 11.7634 6.38345 11.7826 6.29183C11.8215 6.10922 11.8761 5.88726 11.9222 5.73299L11.3169 5.5529ZM11.609 5.74244H11.6083L11.6064 5.74212C11.5915 5.74016 11.5768 5.73668 11.5625 5.73173C11.5074 5.71395 11.4585 5.68078 11.4217 5.63613C11.3848 5.59149 11.3616 5.53726 11.3548 5.47986C11.3513 5.44806 11.3541 5.42476 11.3548 5.42004C11.356 5.4106 11.3567 5.41248 11.3485 5.44208C11.3418 5.4679 11.3314 5.50347 11.3162 5.55542L11.9228 5.7311C11.9481 5.64452 11.9734 5.56046 11.9809 5.50284C11.9825 5.49119 12.0068 5.35644 11.9108 5.23838C11.8703 5.18838 11.816 5.15137 11.7545 5.13196C11.7204 5.12126 11.6901 5.11811 11.6882 5.1178L11.609 5.74244ZM11.1647 5.88789C11.3134 5.84381 11.4504 5.80509 11.5512 5.7777C11.5985 5.76484 11.6459 5.75266 11.6936 5.74118C11.6951 5.74076 11.6926 5.74107 11.6863 5.74212L11.6671 5.74401C11.6617 5.74464 11.6367 5.74621 11.6049 5.74181L11.692 5.11843C11.6589 5.1137 11.6323 5.11528 11.6254 5.11591C11.6063 5.11682 11.5874 5.11946 11.5689 5.12378L11.5193 5.13511C11.4842 5.14361 11.4381 5.15558 11.3854 5.16974C11.279 5.19871 11.1375 5.23901 10.9853 5.28403L11.1647 5.88789ZM10.7709 5.4997L11.3788 5.67097V5.67034L10.7709 5.4997ZM3.71358 7.96992C3.79094 7.55748 3.85188 7.29554 4.06471 6.45051L3.45213 6.29718C3.23898 7.1441 3.17394 7.42179 3.09279 7.85469L3.71358 7.96992ZM3.51496 10.107C3.50233 9.41031 3.55506 8.831 3.71389 7.96929L3.09279 7.85532C2.92796 8.74946 2.86986 9.37158 2.88343 10.1187L3.51496 10.107ZM3.52507 10.8674C3.5257 10.8013 3.52191 10.4571 3.51496 10.107L2.88343 10.1187C2.89038 10.4716 2.89417 10.8057 2.89354 10.8601L3.52507 10.8674ZM3.80357 12.4932C3.646 12.0335 3.52033 11.294 3.52507 10.8674L2.89354 10.8601C2.88817 11.3661 3.02774 12.1774 3.20583 12.6969L3.80357 12.4932ZM4.51846 13.7988C4.28701 13.5419 3.97377 12.9818 3.80294 12.4916L3.20614 12.6985C3.3956 13.2409 3.74484 13.8823 4.04829 14.2192L4.51846 13.7988ZM4.65993 13.9031C4.64414 13.9116 4.63909 13.9112 4.64319 13.9106C4.64856 13.91 4.65266 13.9112 4.65203 13.9106C4.64319 13.9081 4.60025 13.8886 4.5172 13.7973L4.04987 14.2207C4.16165 14.3435 4.29364 14.4562 4.45499 14.5091C4.63466 14.568 4.80612 14.5387 4.95643 14.4587L4.65993 13.9031ZM4.91759 13.3395C4.86903 13.4888 4.80754 13.6337 4.73381 13.7724C4.71095 13.8155 4.68476 13.8568 4.65551 13.8958C4.63056 13.9276 4.6293 13.9201 4.65487 13.9059L4.9618 14.4562C5.04642 14.4093 5.11021 14.3388 5.15378 14.2831C5.20392 14.2173 5.24879 14.1477 5.28798 14.075C5.37071 13.9238 5.4506 13.7365 5.51691 13.5378L4.91759 13.3395ZM5.16957 11.3318C5.15378 12.4224 5.10547 12.7775 4.91759 13.3389L5.51691 13.5378C5.73479 12.8861 5.78531 12.4557 5.8011 11.3406L5.16957 11.3318ZM5.12063 10.3703C5.16862 10.6335 5.17873 10.7991 5.16957 11.3308L5.8011 11.3415C5.81057 10.7962 5.8011 10.5821 5.74205 10.2579L5.12063 10.3703ZM3.92356 7.22312C4.58477 8.45949 4.9498 9.43298 5.12063 10.3703L5.74205 10.2579C5.55575 9.2362 5.16104 8.19944 4.48057 6.92686L3.92356 7.22312ZM3.8301 7.04902L3.92356 7.22312L4.48057 6.92686L4.3871 6.75244L3.8301 7.04902ZM3.87178 6.62713C3.81737 6.64438 3.75921 6.64612 3.70386 6.63215C3.64851 6.61819 3.59817 6.58908 3.55854 6.54811C3.55285 6.5416 3.54959 6.53761 3.54875 6.53614C3.54843 6.53583 3.55728 6.54874 3.58159 6.59124C3.62769 6.67153 3.70284 6.81163 3.8301 7.04902L4.3871 6.75244C4.26238 6.51946 4.18186 6.36928 4.13007 6.27892C4.10718 6.23766 4.08199 6.19772 4.0546 6.15928C4.03351 6.13071 4.00878 6.10499 3.98103 6.08278C3.93934 6.04963 3.89012 6.02721 3.8377 6.0175C3.78528 6.00778 3.73127 6.01106 3.68042 6.02705L3.87178 6.62713ZM4.06913 6.43351C4.07292 6.41777 4.06976 6.43225 4.06345 6.44925C4.04667 6.49122 4.02078 6.52896 3.98765 6.55977C3.95451 6.59058 3.91494 6.61338 3.87178 6.62713L3.68042 6.02705C3.63285 6.04212 3.58939 6.0679 3.55341 6.10241C3.51744 6.13691 3.48991 6.17921 3.47297 6.22603C3.46223 6.25405 3.4556 6.28333 3.45528 6.28459L4.06913 6.43351ZM4.06345 6.45555L4.06913 6.43351L3.45528 6.28459L3.45402 6.28994C3.45402 6.2912 3.45381 6.29193 3.45339 6.29214L4.06345 6.45555ZM1.58848 13.5684C1.58975 13.3993 1.57901 12.991 1.56385 12.6572L0.932954 12.6853C0.947795 13.0165 0.958215 13.4116 0.956952 13.5637L1.58848 13.5684ZM1.00747 13.6757C1.03214 13.6286 1.06847 13.5884 1.11303 13.5592C1.15759 13.5299 1.20891 13.5124 1.26212 13.5085C1.31533 13.5045 1.36868 13.5141 1.41712 13.5365C1.46555 13.5588 1.50747 13.5931 1.53891 13.6361C1.56985 13.6786 1.58185 13.7179 1.58406 13.7252C1.58817 13.739 1.59038 13.7497 1.59101 13.7535C1.59322 13.7645 1.59227 13.7648 1.59101 13.7425C1.58839 13.6847 1.58755 13.6268 1.58848 13.569L0.956952 13.563C0.956321 13.6449 0.957268 13.7211 0.96011 13.7771C0.961689 13.8014 0.964215 13.8369 0.970215 13.8697C0.972109 13.8791 0.975267 13.8939 0.980635 13.9112C0.992878 13.9522 1.01328 13.9902 1.04061 14.0231C1.06795 14.0559 1.10166 14.083 1.13972 14.1026C1.17778 14.1221 1.21941 14.1339 1.26212 14.137C1.30484 14.1402 1.34775 14.1347 1.38829 14.1209C1.46629 14.0946 1.53087 14.0389 1.56827 13.9657L1.00747 13.6757ZM1.62543 14.0721C1.62495 14.0003 1.622 13.9287 1.61659 13.8571C1.61468 13.826 1.61046 13.795 1.60395 13.7645C1.60332 13.7623 1.59259 13.7028 1.55343 13.6449C1.52414 13.6015 1.48453 13.566 1.43814 13.5416C1.39176 13.5172 1.34003 13.5046 1.28757 13.5049C1.23512 13.5052 1.18356 13.5185 1.1375 13.5436C1.09144 13.5686 1.0523 13.6046 1.02358 13.6484L1.55185 13.9931C1.51851 14.0437 1.47114 14.0835 1.4155 14.1077C1.35987 14.132 1.29837 14.1396 1.23849 14.1296C1.17861 14.1196 1.12293 14.0925 1.07821 14.0516C1.0335 14.0106 1.00168 13.9576 0.986634 13.899C0.984424 13.8883 0.985371 13.8886 0.987266 13.91C0.990424 13.9459 0.99295 14.0054 0.993897 14.0803L1.62543 14.0721ZM1.90583 15.9608C1.76689 15.3885 1.62922 14.4323 1.62543 14.0731L0.993897 14.0794C0.998318 14.5031 1.14641 15.5097 1.29198 16.1091L1.90583 15.9608ZM2.56293 17.7032C2.2879 17.2167 2.06844 16.6381 1.90583 15.9615L1.29166 16.1082C1.46533 16.8298 1.70374 17.4651 2.01287 18.0123L2.56293 17.7032ZM0.870117 17.6175C1.307 17.7642 1.73396 17.9388 2.14833 18.1402L2.42778 17.5753C1.98865 17.3618 1.53586 17.1767 1.07284 17.0212L0.870117 17.6175ZM0.211748 17.394C0.43152 17.4737 0.652976 17.5489 0.876117 17.6194L1.06684 17.019C0.852488 16.9512 0.639614 16.8789 0.428362 16.8021L0.211748 17.394ZM0.553405 17.0924C0.55298 17.1593 0.53076 17.2242 0.490096 17.2774C0.449431 17.3306 0.392524 17.3692 0.327949 17.3874C0.273322 17.4025 0.231009 17.3968 0.226904 17.3965C0.20859 17.3943 0.204485 17.3915 0.220273 17.3965L0.419837 16.7993C0.379455 16.7854 0.338087 16.7757 0.295741 16.7703C0.250243 16.7654 0.204241 16.7689 0.159962 16.7804C0.0919775 16.7986 0.0318913 16.8387 -0.0110645 16.8943C-0.0540203 16.9499 -0.0774693 17.0181 -0.0778086 17.0883L0.553405 17.0924ZM0.677816 17.3685C0.632622 17.2543 0.589147 17.1395 0.547406 17.0241L0.542038 17.0077L0.543616 17.014L0.547406 17.0297C0.547406 17.0313 0.553721 17.0587 0.553405 17.0943L-0.0781244 17.0864C-0.0781923 17.1233 -0.0724381 17.1599 -0.0610731 17.195L-0.0497056 17.229C-0.00496827 17.3533 0.0416651 17.477 0.0901782 17.5999L0.677816 17.3685ZM0.354789 18.3029C0.368051 18.3143 0.406259 18.3467 0.464359 18.3672C0.509423 18.3831 0.557498 18.3888 0.605053 18.3838C0.652607 18.3788 0.698435 18.3632 0.739169 18.3382C0.779904 18.3133 0.814511 18.2795 0.840449 18.2395C0.866388 18.1994 0.882999 18.1541 0.889063 18.1068C0.892562 18.0796 0.893091 18.0522 0.890642 18.0249C0.883673 17.9703 0.871405 17.9166 0.854013 17.8644C0.800356 17.6996 0.742447 17.5362 0.680343 17.3745L0.0885994 17.5949C0.172277 17.8184 0.224378 17.9648 0.250271 18.0489C0.265743 18.0992 0.263533 18.1011 0.261638 18.0819C0.260218 18.0618 0.260747 18.0415 0.263217 18.0215C0.269916 17.9762 0.286552 17.933 0.311938 17.8949C0.337324 17.8568 0.370835 17.8247 0.410076 17.801C0.449318 17.7773 0.493323 17.7626 0.53895 17.7578C0.584577 17.753 0.6307 17.7583 0.674027 17.7734C0.728655 17.7923 0.762126 17.8215 0.77002 17.8285L0.354789 18.3029ZM0.849908 18.3901C0.835517 18.3186 0.828953 18.2458 0.830331 18.1729C0.832225 18.1389 0.836015 18.165 0.814543 18.2094C0.795538 18.2476 0.768398 18.2812 0.735019 18.3079C0.701641 18.3345 0.662828 18.3536 0.621295 18.3637C0.57255 18.3762 0.521414 18.3762 0.472694 18.3635C0.423975 18.3509 0.379273 18.3262 0.34279 18.2916L0.782335 17.8395C0.744759 17.8033 0.630136 17.712 0.467201 17.7526C0.32195 17.7891 0.261638 17.9034 0.246166 17.9358C0.217586 17.9996 0.201817 18.0684 0.199749 18.1383C0.194065 18.2444 0.205117 18.3794 0.229746 18.5079L0.849908 18.3901ZM2.26359 21.1702C2.01761 20.8443 1.68732 20.2748 1.40187 19.709C1.11136 19.1335 0.895063 18.6162 0.849277 18.3876L0.230378 18.5104C0.29511 18.835 0.551511 19.4247 0.837593 19.992C1.12873 20.5688 1.47891 21.178 1.759 21.5486L2.26359 21.1702ZM3.52128 22.387C3.38139 22.3177 3.17709 22.1641 2.94343 21.9409C2.69652 21.7031 2.46947 21.4457 2.26453 21.1711L1.75773 21.547C1.98919 21.8562 2.2519 22.1515 2.50609 22.3946C2.75555 22.6335 3.01448 22.8391 3.23993 22.9509L3.52128 22.387ZM3.38803 23.0409C3.40066 23.045 3.41834 23.0507 3.43792 23.0551C3.44739 23.0573 3.46349 23.0608 3.48339 23.0627C3.49412 23.0636 3.54559 23.0693 3.60717 23.0513C3.67569 23.0312 3.7354 22.9886 3.77665 22.9304C3.8179 22.8723 3.83829 22.8019 3.83452 22.7308C3.8282 22.6168 3.76189 22.546 3.75747 22.5403C3.72716 22.5057 3.69432 22.4834 3.688 22.4789C3.63387 22.4442 3.57742 22.4132 3.51907 22.3861L3.24246 22.9521C3.30751 22.9836 3.33087 22.9984 3.32771 22.9962L3.31445 22.9862C3.28471 22.9622 3.26012 22.9326 3.24214 22.8989C3.21071 22.8423 3.19775 22.7773 3.20505 22.713C3.21235 22.6487 3.23955 22.5882 3.28288 22.54C3.32196 22.4961 3.37261 22.4639 3.42907 22.4471C3.48907 22.4295 3.53801 22.4352 3.54559 22.4361C3.55662 22.4372 3.56758 22.4389 3.57843 22.4412C3.5879 22.4434 3.59264 22.4453 3.58822 22.4437L3.38803 23.0409ZM2.92354 22.8867C3.11047 22.9481 3.3195 23.0173 3.3855 23.04L3.59075 22.4446C3.52033 22.4204 3.30751 22.3502 3.1212 22.2885L2.92354 22.8867ZM1.27019 22.501C1.69521 22.5614 2.5222 22.7566 2.9248 22.887L3.11994 22.2882C2.68513 22.1474 1.82278 21.9434 1.35955 21.8776L1.27019 22.501ZM0.937059 22.4534L1.27019 22.501L1.35955 21.8776L1.02674 21.8301L0.937059 22.4534ZM1.45554 22.3968L1.26609 22.0048L0.69771 22.2784L0.886853 22.6701L1.45554 22.3968ZM1.16978 23.2588C1.17104 23.2597 1.18841 23.2758 1.20641 23.2893C1.21272 23.2944 1.24114 23.3161 1.28219 23.3325C1.29861 23.3394 1.47891 23.4124 1.62764 23.2635C1.66132 23.2302 1.68705 23.1898 1.7029 23.1452C1.71876 23.1006 1.72433 23.053 1.71921 23.006C1.7171 22.9824 1.71233 22.9592 1.705 22.9367C1.698 22.9146 1.68978 22.8928 1.68037 22.8715C1.65069 22.8017 1.58185 22.659 1.45618 22.3971L0.886537 22.6694C1.01726 22.9414 1.07694 23.0655 1.09968 23.1187C1.10536 23.1322 1.1041 23.1303 1.10126 23.1209C1.10031 23.1178 1.09368 23.0973 1.09084 23.0683C1.08654 23.0227 1.09237 22.9766 1.10792 22.9335C1.12348 22.8903 1.14837 22.8511 1.18083 22.8187C1.32861 22.671 1.50701 22.744 1.52091 22.7497C1.5588 22.7654 1.58406 22.7843 1.58659 22.7865C1.59669 22.7944 1.60395 22.8013 1.59353 22.7919L1.16978 23.2588ZM1.64153 23.3202C1.62872 23.2653 1.62498 23.2088 1.62985 23.1527C1.6309 23.1458 1.63079 23.1452 1.62953 23.1511C1.6289 23.1536 1.62227 23.1773 1.60143 23.2078C1.5788 23.2401 1.54973 23.2674 1.51605 23.288C1.48236 23.3085 1.44478 23.322 1.40565 23.3274C1.3637 23.3339 1.32083 23.3311 1.28008 23.3192C1.23933 23.3074 1.20168 23.2867 1.16978 23.2588L1.59353 22.7919C1.55604 22.7576 1.5114 22.732 1.4628 22.717C1.41421 22.702 1.36288 22.6979 1.3125 22.705C1.26563 22.7125 1.2208 22.7295 1.18077 22.755C1.14074 22.7804 1.10637 22.8138 1.07978 22.853C1.03752 22.9192 1.01135 22.9943 1.00337 23.0724C0.988529 23.1864 0.995792 23.3306 1.02674 23.4628L1.64153 23.3202ZM3.023 25.6295C2.78144 25.3304 2.45147 24.8324 2.16917 24.3563C2.04142 24.143 1.92073 23.9255 1.80731 23.7043C1.70689 23.5053 1.65448 23.3756 1.64185 23.3211L1.02642 23.4625C1.05831 23.6004 1.14483 23.7925 1.24335 23.9877C1.34724 24.1926 1.48017 24.4322 1.62574 24.6772C1.91467 25.1642 2.26201 25.6909 2.53104 26.0243L3.023 25.6295ZM4.04608 26.6342C3.78431 26.451 3.35077 26.0319 3.02205 25.6286L2.53199 26.0253C2.88249 26.4563 3.35803 26.9216 3.68295 27.1493L4.04608 26.6342ZM4.78307 27.034C4.74992 27.0284 4.65898 26.9963 4.51152 26.9191C4.37353 26.8467 4.21091 26.7478 4.04387 26.6326L3.68516 27.1508C3.86862 27.2774 4.05303 27.3901 4.21722 27.4764C4.37195 27.5576 4.53867 27.6313 4.67729 27.6546L4.78307 27.034ZM4.94759 27.0617L4.78307 27.034L4.67761 27.6549L4.84244 27.6826L4.94759 27.0617ZM4.75876 27.6983L4.91885 27.6857L4.87086 27.0583L4.71045 27.0706L4.75876 27.6983ZM3.96209 27.7468C4.30027 27.7295 4.66719 27.7084 4.76918 27.6974L4.70003 27.0715C4.62109 27.08 4.2788 27.1001 3.92956 27.1181L3.96209 27.7468ZM3.48086 27.7377C3.43539 27.7692 3.39181 27.7802 3.3915 27.7802L3.36813 27.7859L3.36024 27.7874L3.38834 27.7843C3.41865 27.7815 3.46381 27.778 3.52096 27.7736C3.63558 27.7654 3.7922 27.756 3.96272 27.7468L3.92956 27.1181C3.75589 27.1275 3.59517 27.137 3.47612 27.1458C3.41676 27.1499 3.36561 27.154 3.32803 27.1574C3.30025 27.1604 3.27256 27.1641 3.24498 27.1685C3.23487 27.1704 3.22486 27.1728 3.21499 27.1757C3.21278 27.1763 3.16825 27.1877 3.12215 27.2198L3.48086 27.7377ZM3.55791 27.3246C3.57748 27.3473 3.5922 27.3738 3.60117 27.4024C3.61066 27.4322 3.61514 27.4634 3.61443 27.4946C3.61243 27.565 3.58585 27.6325 3.53928 27.6854L3.06342 27.2717C3.01305 27.3295 2.98456 27.403 2.9829 27.4795C2.98193 27.5195 2.98791 27.5593 3.00058 27.5973C3.01858 27.6524 3.04795 27.6993 3.07952 27.7358L3.55791 27.3246ZM3.60432 28.4845C3.64352 28.5066 3.68697 28.5202 3.73181 28.5244C3.77666 28.5286 3.82189 28.5232 3.86451 28.5087C4.06976 28.4392 4.07923 28.2405 4.07923 28.2103C4.07932 28.1626 4.06954 28.1155 4.0505 28.0717C4.03578 28.0383 4.01912 28.0057 4.00061 27.9741C3.95589 27.8974 3.90914 27.8218 3.86041 27.7475C3.8061 27.6637 3.74673 27.5756 3.694 27.5006C3.64864 27.4336 3.59863 27.3699 3.54433 27.3098L3.09342 27.7506C3.09089 27.7481 3.09784 27.7553 3.11678 27.7802C3.13362 27.8022 3.15394 27.8299 3.17773 27.8633C3.22509 27.9301 3.2794 28.0113 3.32992 28.0891C3.38108 28.1678 3.42465 28.2386 3.45181 28.2858C3.46697 28.3126 3.47012 28.3201 3.46823 28.3151L3.46034 28.2931C3.45844 28.2874 3.4477 28.2531 3.4477 28.2065C3.44802 28.1791 3.45718 27.982 3.66053 27.9127C3.70192 27.8989 3.74574 27.8938 3.78922 27.8977C3.8327 27.9016 3.87489 27.9144 3.91314 27.9354L3.60432 28.4845ZM3.97377 28.4058C3.97377 28.3746 3.97566 28.3564 3.97693 28.3475C3.97851 28.3359 3.97819 28.3513 3.9643 28.3781C3.94769 28.4083 3.92525 28.435 3.89826 28.4566C3.87127 28.4781 3.84027 28.4941 3.80705 28.5037C3.77409 28.514 3.7394 28.5178 3.70499 28.5147C3.67058 28.5116 3.63712 28.5018 3.60653 28.4858L3.91093 27.9338C3.86785 27.9095 3.8203 27.894 3.7711 27.8883C3.7219 27.8826 3.67206 27.8869 3.62453 27.9008C3.50202 27.9376 3.43571 28.0267 3.40444 28.0865C3.34919 28.192 3.34256 28.317 3.34224 28.4036L3.97377 28.4058ZM4.40889 29.111C4.25859 28.9228 4.14333 28.754 4.06755 28.618C3.98293 28.4662 3.97377 28.4017 3.97377 28.4048L3.34224 28.4042C3.34224 28.5767 3.42718 28.7656 3.51559 28.924C3.61285 29.0987 3.74958 29.2965 3.91441 29.5033L4.40889 29.111ZM7.56875 31.4859C6.58735 31.3347 5.6429 30.6629 4.40889 29.1117L3.91409 29.503C5.17462 31.087 6.24759 31.9194 7.47244 32.1083L7.56875 31.4859ZM7.99851 31.5328C8.01903 31.5287 8.02187 31.5312 7.98651 31.5302C7.94992 31.5288 7.91338 31.5263 7.87694 31.5227C7.78631 31.5145 7.67453 31.5006 7.56433 31.4852L7.47623 32.1086C7.59212 32.1253 7.71527 32.1401 7.81947 32.1495C7.87157 32.1546 7.92209 32.158 7.96661 32.1596C8.00293 32.1606 8.06134 32.1615 8.11566 32.1514L7.99851 31.5328ZM7.71337 32.2887C7.8681 32.2452 7.99851 32.2056 8.08345 32.1769C8.12008 32.1643 8.16555 32.1486 8.19933 32.1322C8.25181 32.1082 8.29685 32.0706 8.32974 32.0233C8.35816 31.983 8.43489 31.8435 8.34553 31.6864C8.27733 31.5674 8.16302 31.5403 8.14755 31.5365C8.10586 31.5254 8.06234 31.523 8.01966 31.5293L8.09481 32.1546C8.0603 32.1578 8.02549 32.1551 7.99188 32.1467C7.97767 32.1432 7.86431 32.1165 7.79642 31.9981C7.70737 31.8419 7.78379 31.7031 7.81157 31.6634C7.84126 31.6209 7.8741 31.5973 7.88262 31.591C7.90472 31.5746 7.92367 31.5658 7.9243 31.5658C7.93125 31.562 7.92241 31.5665 7.88136 31.5803C7.81063 31.6042 7.6919 31.6408 7.54223 31.6826L7.71337 32.2887ZM6.83239 32.3447C6.83326 32.4199 6.80627 32.4931 6.7566 32.5497C6.74108 32.5675 6.72312 32.5831 6.70324 32.596C6.68871 32.6057 6.68208 32.6073 6.69598 32.6013C6.72029 32.5909 6.7686 32.5733 6.85291 32.5459C7.01932 32.4918 7.29214 32.4105 7.71558 32.2881L7.54002 31.6836C7.24444 31.7671 6.95012 31.8549 6.65714 31.9471C6.56967 31.9754 6.49862 32.0006 6.44684 32.0227C6.41551 32.0359 6.38531 32.0517 6.35653 32.0699C6.34074 32.08 6.31201 32.1004 6.2839 32.1322C6.23021 32.1921 6.20073 32.2698 6.20117 32.3501L6.83239 32.3447ZM6.97732 32.4036C6.91733 32.3406 6.86365 32.2808 6.82639 32.2364C6.81327 32.2213 6.80063 32.2058 6.7885 32.1898C6.80229 32.2111 6.81273 32.2344 6.81944 32.2588C6.82865 32.2894 6.83312 32.3213 6.8327 32.3532L6.20117 32.3419C6.19959 32.4197 6.22896 32.4779 6.23086 32.482C6.23907 32.4999 6.24727 32.5141 6.25201 32.522C6.26212 32.5384 6.27317 32.5535 6.28106 32.5645C6.29843 32.5875 6.3199 32.6142 6.34295 32.6413C6.38968 32.6967 6.45189 32.7666 6.5201 32.8378L6.97732 32.4036ZM6.77334 33.1608C6.78976 33.1759 6.8166 33.2001 6.84596 33.22C6.85481 33.2257 6.86933 33.2351 6.88796 33.2442C6.94027 33.2705 6.99885 33.2818 7.05721 33.2769C7.11558 33.272 7.17144 33.2511 7.2186 33.2164C7.26576 33.1818 7.30237 33.1348 7.32438 33.0807C7.34639 33.0266 7.35294 32.9675 7.34329 32.9099C7.33382 32.851 7.30888 32.8075 7.30635 32.8022C7.29902 32.7891 7.29123 32.7763 7.28298 32.7638C7.26945 32.7434 7.25512 32.7236 7.24004 32.7043C7.18068 32.6275 7.08184 32.5122 6.97669 32.403L6.52073 32.8384C6.61293 32.9344 6.69629 33.032 6.7386 33.0874C6.74913 33.1011 6.75492 33.1088 6.75597 33.1107C6.75692 33.112 6.75376 33.1079 6.74966 33.0997C6.73486 33.0714 6.72474 33.0409 6.71966 33.0094C6.71234 32.9623 6.71585 32.9142 6.72993 32.8687C6.74401 32.8232 6.7683 32.7815 6.80095 32.7467C6.83359 32.7119 6.87374 32.685 6.91836 32.668C6.96298 32.651 7.01089 32.6444 7.05847 32.6486C7.10819 32.6535 7.15602 32.6701 7.19804 32.697C7.21383 32.7074 7.21857 32.7134 7.20341 32.6996L6.77334 33.1608ZM7.1892 33.1542C7.1892 33.134 7.19583 33.117 7.19457 33.1199C7.17703 33.1484 7.15342 33.1726 7.12542 33.191C7.0721 33.2254 7.00892 33.2412 6.94566 33.2361C6.8824 33.2309 6.82261 33.2051 6.77555 33.1627L7.2012 32.6977C7.14422 32.6457 7.07135 32.6143 6.99432 32.6086C6.91728 32.6029 6.84056 32.6231 6.7765 32.6662C6.69661 32.7188 6.65335 32.7921 6.63251 32.8324C6.58514 32.9243 6.55767 33.0402 6.55767 33.1532L7.1892 33.1542ZM9.81857 35.1562C9.31493 34.9513 8.63604 34.5089 8.07745 34.0553C7.79957 33.8301 7.56212 33.6104 7.39729 33.4259C7.33162 33.355 7.27224 33.2785 7.21983 33.1973C7.17815 33.1284 7.1892 33.1199 7.1892 33.1542L6.55767 33.1532C6.55767 33.2974 6.62272 33.4297 6.67987 33.5238C6.74303 33.6277 6.82891 33.7366 6.92617 33.8449C7.12068 34.0628 7.38561 34.3059 7.67864 34.5436C8.26091 35.0165 8.99506 35.501 9.57954 35.7393L9.81857 35.1562ZM10.6977 35.3511C10.3797 35.3231 10.0481 35.2507 9.81921 35.1566L9.57891 35.739C9.88267 35.8637 10.2799 35.9465 10.6418 35.9783L10.6977 35.3511ZM10.4713 35.4201C10.4344 35.4494 10.3983 35.4796 10.363 35.5108C10.3471 35.5246 10.3319 35.5392 10.3175 35.5545C10.2942 35.5786 10.2745 35.6059 10.2588 35.6354C10.2406 35.6696 10.2289 35.7069 10.2243 35.7453L10.8511 35.8215C10.8432 35.8822 10.8176 35.9394 10.7776 35.9858L10.7848 35.9792C10.8014 35.9645 10.8292 35.9413 10.8682 35.9097L10.4713 35.4201ZM10.2221 35.7928C10.2243 35.8657 10.251 35.9357 10.2979 35.9915C10.3169 36.0148 10.3358 36.0328 10.3478 36.0431C10.3731 36.0652 10.4015 36.0863 10.4267 36.1039C10.4788 36.1404 10.5461 36.1826 10.6152 36.2242L10.9408 35.6845C10.8894 35.6541 10.8389 35.6221 10.7896 35.5885L10.7659 35.5709L10.7722 35.5769C10.7756 35.58 10.7808 35.586 10.788 35.5948C10.8285 35.646 10.8515 35.7088 10.8533 35.774L10.2221 35.7928ZM10.6159 36.2245C10.7409 36.2991 10.8038 36.3448 10.8211 36.3608C10.8249 36.364 10.8148 36.3558 10.8019 36.3375C10.7594 36.2756 10.7419 36.2001 10.7526 36.1259C10.7615 36.0647 10.7888 36.0075 10.831 35.9621C10.8732 35.9167 10.9282 35.8851 10.9888 35.8716C11.0156 35.8659 11.0368 35.8656 11.0466 35.8659C11.0577 35.8661 11.0647 35.8665 11.0674 35.8671L10.9822 36.4908C11.0055 36.494 11.0586 36.5006 11.1192 36.4877C11.1792 36.4751 11.3488 36.414 11.3775 36.216C11.3971 36.0803 11.3251 35.9846 11.3144 35.9695C11.2944 35.9425 11.2717 35.9176 11.2468 35.8952C11.1776 35.8325 11.0655 35.7592 10.9402 35.6842L10.6159 36.2245ZM11.0737 35.8681C10.8751 35.8372 10.7539 35.9701 10.7106 36.0346C10.6681 36.0999 10.6395 36.1732 10.6266 36.25L11.2474 36.3665C11.2509 36.3476 11.2521 36.3596 11.2348 36.3857C11.2153 36.4137 11.19 36.4373 11.1606 36.4546C11.1051 36.4875 11.0399 36.5001 10.9762 36.4902L11.0737 35.8681ZM10.6263 36.2525C10.6025 36.3774 10.6121 36.5062 10.6541 36.6262C10.6983 36.75 10.7741 36.8545 10.8657 36.9455C11.0418 37.1193 11.3125 37.2754 11.6598 37.4417L11.9326 36.8737C11.5916 36.7106 11.4053 36.5919 11.3106 36.4981C11.267 36.4553 11.2537 36.4279 11.2493 36.4156C11.2439 36.3988 11.2434 36.3808 11.2477 36.3636L10.6263 36.2525ZM11.6598 37.4417C12.7722 37.9734 13.7612 38.2385 14.6337 38.1973C15.5194 38.1557 16.2621 37.7993 16.8661 37.1394L16.3994 36.715C15.9046 37.2556 15.3173 37.5348 14.6037 37.5685C13.8768 37.6025 12.9967 37.3825 11.9326 36.8737L11.6598 37.4417ZM16.8642 37.141C17.1648 36.8173 17.3789 36.4367 17.24 36.0444L16.6448 36.2538C16.6574 36.29 16.6732 36.4203 16.401 36.7131L16.8642 37.141ZM17.2428 36.0513C17.2372 36.0346 17.2403 36.04 17.2416 36.0551C17.2431 36.0712 17.2415 36.0875 17.2368 36.103C17.2349 36.1089 17.2356 36.1036 17.2495 36.0797C17.2702 36.0445 17.2921 36.0101 17.3151 35.9764L16.7907 35.6257C16.7281 35.7185 16.6644 35.8171 16.6331 35.9175C16.5911 36.0538 16.6151 36.1634 16.6423 36.2465L17.2428 36.0513ZM17.3186 35.9707C17.3597 35.9068 17.3995 35.8438 17.4291 35.7938C17.444 35.7692 17.4582 35.7444 17.4699 35.7226C17.4826 35.6977 17.4937 35.6719 17.503 35.6455C17.5056 35.6367 17.5188 35.5967 17.5179 35.5448L16.8863 35.5514C16.8862 35.5199 16.8908 35.4886 16.8999 35.4585C16.9041 35.4457 16.9071 35.4375 16.9088 35.4339L16.911 35.4295L16.8863 35.472C16.8617 35.5133 16.8263 35.5696 16.7872 35.631L17.3186 35.9707ZM17.5179 35.541C17.5163 35.4717 17.4913 35.4207 17.4882 35.4135C17.4822 35.3999 17.4752 35.3867 17.4673 35.3741C17.4584 35.36 17.4489 35.3462 17.4389 35.3329C17.4206 35.3086 17.4015 35.2849 17.3818 35.2617C17.3391 35.2113 17.2833 35.1487 17.2229 35.0851L16.7632 35.517C16.8169 35.5737 16.8652 35.6276 16.899 35.6672C16.9158 35.6876 16.9268 35.7012 16.9318 35.7082C16.935 35.7122 16.9328 35.7097 16.9287 35.7028C16.9021 35.658 16.8876 35.6072 16.8867 35.5551L17.5179 35.541ZM17.222 35.0838C16.6694 34.5048 16.0868 34.0874 15.4774 33.8538L15.2507 34.4412C15.7508 34.6333 16.258 34.9875 16.7645 35.518L17.222 35.0838ZM15.2122 33.7955C15.1765 33.8742 15.1474 33.9167 15.1291 33.9369L15.599 34.3578C15.677 34.2712 15.7379 34.1654 15.7878 34.0546L15.2122 33.7955ZM15.4591 32.7282C15.4436 33.0245 15.3176 33.5543 15.2106 33.7993L15.7894 34.0508C15.9277 33.7347 16.0704 33.1306 16.0897 32.7613L15.4591 32.7282ZM15.5004 31.9767C15.4821 32.261 15.4648 32.6001 15.4591 32.731L16.09 32.7584C16.0953 32.6319 16.1127 32.2969 16.1307 32.017L15.5004 31.9767ZM15.3925 30.5914C15.5102 31.1222 15.5361 31.4317 15.5004 31.9767L16.1307 32.0176C16.1702 31.4112 16.1392 31.0422 16.0088 30.4557L15.3925 30.5914ZM14.0615 27.7383C14.7966 28.8478 15.1989 29.7196 15.3925 30.5914L16.0088 30.4554C15.7928 29.4832 15.3492 28.5386 14.5882 27.3911L14.0615 27.7383ZM13.8177 26.5989C13.803 26.65 13.7751 26.6963 13.7369 26.7334C13.6987 26.7704 13.6515 26.7969 13.5999 26.8102C13.5332 26.8276 13.4625 26.8214 13.4 26.7926C13.3599 26.7737 13.3435 26.7529 13.3615 26.7705C13.3848 26.7932 13.4297 26.8448 13.4985 26.9342C13.6327 27.1077 13.8253 27.3819 14.0615 27.7383L14.5885 27.3914C14.3492 27.0299 14.1464 26.7415 13.9993 26.5501C13.9394 26.4694 13.8739 26.3928 13.8035 26.3209C13.7648 26.2813 13.7198 26.2483 13.6703 26.2233C13.5994 26.1895 13.5189 26.1814 13.4426 26.2003C13.3871 26.2145 13.3364 26.2431 13.2955 26.2831C13.2546 26.3231 13.2251 26.3732 13.2099 26.4283L13.8177 26.5989ZM13.7281 27.2242L13.7922 26.7771C13.8117 26.6439 13.8215 26.5838 13.8206 26.5873L13.2067 26.4399C13.1915 26.5214 13.1785 26.6033 13.1676 26.6855C13.1496 26.807 13.1265 26.9673 13.1028 27.1364L13.7281 27.2242ZM13.6289 29.021C13.6466 27.9845 13.6605 27.7226 13.7284 27.2226L13.1022 27.1376C13.0286 27.6769 13.0151 27.97 12.9974 29.0106L13.6289 29.021ZM13.7536 31.3602C13.6273 30.7129 13.603 30.3411 13.6289 29.0219L12.9974 29.0096C12.9715 30.3427 12.9949 30.7674 13.1338 31.4802L13.7536 31.3602ZM14.9144 33.741C14.3681 33.1891 13.9481 32.3397 13.7536 31.3593L13.1341 31.4814C13.3463 32.5525 13.8121 33.5241 14.4651 34.1834L14.9144 33.741ZM14.9273 33.7543L14.915 33.7417L14.4644 34.1828L14.4802 34.1988L14.9273 33.7543ZM14.7461 33.6645C14.5895 33.6431 14.4314 33.6341 14.2734 33.6375L14.2866 34.2668C14.4119 34.2643 14.5367 34.2714 14.6611 34.2882L14.7461 33.6645ZM14.274 33.6375C13.7678 33.6469 13.2014 33.7927 12.632 34.0405L12.8847 34.6172C13.4025 34.3918 13.8856 34.2744 14.286 34.2671L14.274 33.6375ZM12.4653 34.2911C12.4662 34.2352 12.4826 34.1808 12.5127 34.1336C12.5209 34.1211 12.5269 34.1151 12.5253 34.117L12.9917 34.541C13.0043 34.5275 13.0214 34.5077 13.0375 34.4834C13.0752 34.4292 13.0958 34.3646 13.0965 34.2986L12.4653 34.2911ZM12.3017 34.0691C12.3573 34.1636 12.4069 34.2517 12.4423 34.3172C12.4599 34.3504 12.4726 34.3748 12.4802 34.3906L12.4839 34.3984C12.4831 34.397 12.481 34.3912 12.4776 34.3811C12.4759 34.3757 12.4738 34.3669 12.4713 34.355C12.4671 34.3339 12.4651 34.3125 12.4653 34.2911L13.0968 34.2989C13.0975 34.2457 13.0839 34.2042 13.0823 34.1988C13.0789 34.187 13.0748 34.1755 13.07 34.1642C13.0637 34.1488 13.0569 34.1336 13.0498 34.1185C13.0335 34.0854 13.0165 34.0525 12.999 34.02C12.9498 33.9292 12.899 33.8394 12.8464 33.7505L12.3017 34.0691ZM10.2941 32.2578C11.0665 32.5311 11.7504 33.1321 12.3017 34.0691L12.8464 33.7505C12.2399 32.7194 11.4508 31.999 10.5057 31.6644L10.2941 32.2578ZM8.73487 32.0998C8.88991 32.084 9.20694 32.0963 9.54196 32.1306C9.88015 32.1653 10.1754 32.2163 10.2954 32.2582L10.5047 31.6641C10.3058 31.5948 9.94235 31.5387 9.60638 31.5041C9.26693 31.4695 8.89433 31.4506 8.66982 31.4736L8.73487 32.0998ZM8.43331 31.4603C8.37052 31.4714 8.30839 31.4843 8.24638 31.4991C8.2348 31.502 8.22144 31.5058 8.20628 31.5104C8.20028 31.5126 8.16302 31.5243 8.12418 31.5491C8.11723 31.5535 8.03608 31.6017 7.99788 31.7066C7.97357 31.772 7.97172 31.8436 7.99264 31.9101C8.01356 31.9767 8.05605 32.0344 8.11344 32.0743C8.16649 32.1118 8.21796 32.1225 8.2287 32.1247C8.24796 32.1291 8.26438 32.131 8.27354 32.1319C8.32343 32.1363 8.39511 32.1313 8.45194 32.1269C8.52225 32.1212 8.61635 32.1122 8.73487 32.0998L8.66951 31.4736C8.55373 31.4857 8.46468 31.4941 8.40237 31.4988C8.32627 31.5051 8.31553 31.5035 8.33164 31.5051C8.34331 31.5062 8.3549 31.508 8.36637 31.5104C8.40985 31.5204 8.45069 31.5395 8.48619 31.5665C8.52168 31.5934 8.55101 31.6276 8.57222 31.6668C8.59343 31.7059 8.60603 31.7491 8.6092 31.7935C8.61236 31.8378 8.60601 31.8824 8.59057 31.9241C8.55204 32.0277 8.47215 32.0746 8.46679 32.0784C8.4474 32.0904 8.42675 32.1004 8.40521 32.108C8.40079 32.1095 8.39953 32.1099 8.40395 32.1086C8.42353 32.1036 8.46931 32.0941 8.54825 32.0793L8.43331 31.4603ZM8.72256 31.3709C8.73077 31.364 8.72982 31.3668 8.7115 31.376C8.68916 31.3871 8.66617 31.3969 8.64267 31.4053C8.5833 31.4273 8.50973 31.4468 8.43647 31.4597L8.5451 32.08C8.65467 32.0611 8.76424 32.0315 8.86023 31.9965C8.94675 31.965 9.05411 31.9172 9.134 31.8489L8.72256 31.3709ZM8.80181 31.1512C8.80623 31.1732 8.80529 31.2176 8.78666 31.2708C8.77603 31.3066 8.75648 31.3391 8.72982 31.3653L9.12705 31.8548C9.25146 31.7547 9.33482 31.6143 9.38219 31.4802C9.42987 31.3454 9.45229 31.1842 9.42103 31.0284L8.80181 31.1512ZM9.05442 30.6506C9.00737 30.6755 8.90728 30.7296 8.84444 30.8379C8.77213 30.9629 8.78823 31.0866 8.80276 31.1556L9.42008 31.0243C9.41724 31.0104 9.43555 31.0762 9.39134 31.1531C9.37914 31.1752 9.36261 31.1947 9.34272 31.2104C9.33577 31.2157 9.33514 31.2151 9.34935 31.2072L9.05442 30.6506ZM8.99695 30.8483C8.99588 30.7804 9.01804 30.7141 9.05979 30.6603C9.07305 30.6443 9.08284 30.6364 9.08316 30.6361C9.08505 30.6348 9.08032 30.6383 9.07274 30.6418L9.33103 31.2163C9.38408 31.1927 9.43492 31.1622 9.47692 31.1285C9.49744 31.1125 9.52365 31.0892 9.54828 31.0592C9.56059 31.0444 9.57765 31.0215 9.59249 30.9912C9.60638 30.9642 9.62975 30.9094 9.62817 30.8367L8.99695 30.8483ZM8.8937 30.6056C8.92685 30.6906 8.95685 30.7709 8.97832 30.831L9.00169 30.8993L9.00453 30.9088L9.00201 30.8971C9.00169 30.8952 8.99632 30.871 8.99695 30.8385L9.62848 30.8464C9.62848 30.8118 9.62312 30.7841 9.62217 30.7781L9.61585 30.7498L9.60385 30.7098C9.59425 30.6798 9.58414 30.65 9.57354 30.6204C9.54441 30.5393 9.51419 30.4586 9.48292 30.3782L8.8937 30.6056ZM6.30317 27.9609C7.46865 28.3173 8.3389 29.1841 8.89402 30.6062L9.48229 30.3776C8.87349 28.8179 7.87757 27.7837 6.4882 27.3589L6.30317 27.9609ZM5.99624 27.1745C5.97572 27.1792 5.94698 27.1867 5.91793 27.1977C5.90246 27.2037 5.82636 27.2311 5.76605 27.3035C5.7195 27.3593 5.69302 27.4289 5.69085 27.5014C5.68867 27.5739 5.71093 27.645 5.75405 27.7034C5.80173 27.7689 5.86362 27.8022 5.8813 27.8117C5.93151 27.8391 5.99561 27.8621 6.05403 27.8822C6.11844 27.904 6.2017 27.9303 6.30317 27.9609L6.4882 27.3589C6.41103 27.3357 6.33418 27.3113 6.2577 27.2859C6.19675 27.2654 6.18033 27.2573 6.18349 27.2588C6.18633 27.2604 6.19517 27.2651 6.20717 27.2739C6.22912 27.2908 6.24848 27.3107 6.26464 27.3331C6.30415 27.3877 6.3244 27.4538 6.32223 27.5211C6.32006 27.5884 6.29559 27.653 6.25264 27.705C6.2231 27.7406 6.18527 27.7685 6.14244 27.7862C6.1336 27.7893 6.1317 27.7893 6.14339 27.7868L5.99624 27.1745ZM6.07424 26.9796C6.0676 27.0734 6.04487 27.1275 6.02782 27.1527C6.02397 27.1594 6.01894 27.1652 6.01298 27.17L6.00856 27.1716L6.13076 27.7893C6.5182 27.7131 6.68114 27.3514 6.70419 27.0236L6.07424 26.9796ZM6.3679 26.5463C6.31517 26.5633 6.26686 26.591 6.22539 26.6276C6.18393 26.6642 6.15052 26.709 6.12728 26.7592C6.09034 26.8354 6.07676 26.9166 6.0736 26.9878L6.70419 27.0155C6.70513 26.9985 6.70766 27.0082 6.69629 27.0325C6.68168 27.0603 6.66155 27.085 6.63713 27.1049C6.61271 27.1248 6.5845 27.1396 6.5542 27.1483L6.3679 26.5463ZM6.39347 26.5397L6.3919 26.5401L6.53083 27.1543H6.53241L6.39347 26.5397ZM6.29275 26.598C6.31969 26.5734 6.35139 26.5545 6.3859 26.5426C6.39411 26.5398 6.39863 26.5385 6.39947 26.5385L6.39347 26.5397L6.53304 27.1537C6.53746 27.153 6.56336 27.1474 6.58925 27.1386C6.61767 27.1291 6.66882 27.1083 6.71776 27.0639L6.29275 26.598ZM6.11655 26.4286C6.16391 26.6175 6.18886 26.717 6.19959 26.7749C6.20528 26.8058 6.20212 26.8004 6.20307 26.7796C6.20827 26.7098 6.24042 26.6447 6.29275 26.598L6.71776 27.0639C6.81092 26.9796 6.83049 26.8741 6.83365 26.8118C6.83551 26.7613 6.83127 26.7107 6.82102 26.6613C6.80523 26.5781 6.77334 26.4525 6.72913 26.2759L6.11655 26.4286ZM6.11276 26.4113L6.11655 26.4286L6.72913 26.2759L6.72471 26.2586L6.11276 26.4113ZM3.96619 23.3366C5.08589 24.0273 5.74616 24.9643 6.11276 26.4119L6.72503 26.2576C6.32369 24.6724 5.57501 23.5884 4.29837 22.801L3.96619 23.3366ZM4.10734 22.6634C4.08514 22.6543 4.06254 22.6469 4.03913 22.6414C3.96914 22.6245 3.89547 22.6319 3.83019 22.6622C3.76491 22.6925 3.71189 22.744 3.67979 22.8083C3.6059 22.9556 3.67506 23.0828 3.68327 23.0985C3.70221 23.1341 3.72368 23.1584 3.73189 23.1675C3.75147 23.1889 3.77136 23.2053 3.78178 23.2138C3.82568 23.249 3.8942 23.2937 3.96966 23.3388L4.2949 22.7988C4.25857 22.7772 4.22288 22.7545 4.18786 22.7308L4.18091 22.7255L4.17838 22.7239L4.18312 22.7277L4.19986 22.7444C4.21618 22.7628 4.23027 22.7831 4.24185 22.8048C4.2488 22.818 4.31764 22.9433 4.24469 23.0897C4.21383 23.1515 4.16329 23.2012 4.10101 23.2313C4.03872 23.2613 3.96821 23.2699 3.90051 23.2557C3.87936 23.2509 3.86672 23.2453 3.87083 23.2468L4.10734 22.6634ZM4.5352 22.75C4.437 22.7362 4.33532 22.7185 4.25227 22.7012C4.21785 22.6941 4.18363 22.686 4.14965 22.677C4.1187 22.6688 4.11365 22.6656 4.12281 22.6701L3.85536 23.2402C3.92798 23.2742 4.03755 23.2997 4.12249 23.3174C4.2207 23.3378 4.33595 23.358 4.44552 23.3734L4.5352 22.75ZM4.8677 22.7677C4.85854 22.7717 4.83265 22.7925 4.5352 22.75L4.44552 23.3734C4.72813 23.4137 4.9318 23.431 5.1301 23.3403L4.8677 22.7677ZM4.92296 22.6719C4.91885 22.6524 4.92296 22.6474 4.9198 22.6619C4.90997 22.6997 4.89125 22.7347 4.86517 22.7639C4.85317 22.7771 4.85002 22.7765 4.85949 22.7717L5.13831 23.3366C5.28988 23.2619 5.39629 23.1244 5.45849 23.0069C5.51881 22.8923 5.57596 22.7223 5.54217 22.551L4.92296 22.6719ZM5.23114 22.206C5.17356 22.2147 5.11882 22.2368 5.07133 22.2704C5.02384 22.304 4.98492 22.3483 4.95769 22.3996C4.91453 22.4845 4.90236 22.5816 4.92327 22.6745L5.54186 22.5485C5.55016 22.5981 5.54156 22.6489 5.51691 22.6927C5.4987 22.7276 5.47273 22.7579 5.44099 22.7812C5.40925 22.8046 5.37257 22.8204 5.33377 22.8275L5.23114 22.206ZM4.98548 22.0127C5.00221 22.1292 5.01421 22.217 5.02179 22.2841C5.02969 22.3533 5.03127 22.388 5.03095 22.4037C5.03032 22.4283 5.02558 22.376 5.06758 22.3143C5.09098 22.279 5.12291 22.2502 5.16041 22.2305C5.19199 22.2135 5.21788 22.2085 5.22578 22.2069L5.33914 22.8265C5.40071 22.8152 5.51281 22.7815 5.5908 22.6666C5.65395 22.5734 5.6609 22.4727 5.66216 22.4198C5.665 22.3102 5.64227 22.1449 5.61038 21.9233L4.98548 22.0127ZM4.0025 19.5966C4.50931 20.2609 4.84623 21.077 4.9858 22.0142L5.61038 21.9217C5.45692 20.8903 5.08305 19.9722 4.5052 19.2153L4.0025 19.5966ZM4.14839 18.6631C4.1367 18.8325 4.11618 18.959 4.08997 19.05C4.06313 19.1435 4.03629 19.1772 4.02903 19.1848L4.47836 19.6271C4.58888 19.5157 4.65456 19.3709 4.69687 19.2241C4.73981 19.0746 4.76539 18.8999 4.77834 18.7053L4.14839 18.6631ZM4.17681 17.5933C4.17778 17.9512 4.1682 18.3092 4.14807 18.6666L4.77865 18.7018C4.79949 18.3322 4.80928 17.9621 4.80802 17.5914L4.17681 17.5933ZM4.08302 16.5024C4.13639 16.7111 4.15723 16.8008 4.16828 16.923C4.17965 17.0546 4.17965 17.2249 4.17681 17.5898L4.80834 17.5949C4.81086 17.2422 4.81212 17.0363 4.79728 16.8676C4.7815 16.6884 4.74771 16.5534 4.69498 16.3468L4.08302 16.5024ZM2.0915 13.2803C3.19099 14.3737 3.79757 15.3715 4.08271 16.5014L4.69529 16.3481C4.37542 15.0802 3.6959 13.9862 2.53799 12.8345L2.0915 13.2803ZM1.19914 12.3858C1.14736 12.378 1.11073 12.3588 1.10568 12.3559C1.09321 12.3495 1.08118 12.3422 1.06968 12.3342L1.07094 12.3352L1.0741 12.338L1.0861 12.3474C1.10652 12.3646 1.13599 12.3903 1.17451 12.4243C1.25125 12.4919 1.35482 12.5858 1.46754 12.6894C1.69426 12.8975 1.94972 13.1383 2.09086 13.2797L2.53893 12.8354C2.32832 12.6285 2.11399 12.4254 1.89604 12.2262C1.78173 12.1214 1.67469 12.0247 1.59385 11.9533C1.55375 11.9177 1.51838 11.8871 1.49123 11.8645C1.47795 11.8532 1.46437 11.8423 1.45049 11.8317C1.43176 11.8178 1.41203 11.8053 1.39144 11.7943C1.38481 11.7911 1.34724 11.7713 1.29451 11.7634L1.19914 12.3858ZM1.56448 12.661C1.5596 12.5229 1.55623 12.3848 1.55438 12.2467C1.55396 12.1936 1.55427 12.156 1.55533 12.134C1.55596 12.1211 1.55627 12.122 1.55533 12.1305C1.55501 12.1315 1.55217 12.1538 1.54206 12.1821C1.51744 12.2501 1.47006 12.3074 1.40792 12.3445C1.34579 12.3816 1.27271 12.3962 1.20104 12.3858L1.29229 11.7631C1.21918 11.7523 1.14489 11.7673 1.08169 11.8055C1.0185 11.8438 0.970692 11.9028 0.946532 11.9725C0.935165 12.0049 0.93106 12.0329 0.929797 12.0417C0.926639 12.066 0.92506 12.0905 0.924429 12.1078C0.922803 12.1558 0.922277 12.2038 0.92285 12.2517C0.923797 12.3644 0.927902 12.5171 0.93327 12.6815L1.56448 12.661ZM7.46392 25.072C7.42129 23.8224 7.86336 22.4519 8.86497 20.8704L8.33101 20.5342C7.2893 22.1789 6.78408 23.6744 6.8327 25.0931L7.46392 25.072ZM7.46676 25.1869L7.4636 25.0751L6.8327 25.0899L6.83491 25.2023L7.46676 25.1869ZM7.46928 25.2889L7.46676 25.1869L6.83523 25.2026L6.83776 25.3046L7.46928 25.2889ZM7.48255 25.8949C7.48034 25.7363 7.47434 25.4967 7.46928 25.2889L6.83776 25.3046C6.84312 25.5143 6.84912 25.7492 6.85102 25.9031L7.48255 25.8949ZM7.70737 27.0687C7.55865 26.7066 7.48949 26.3464 7.48255 25.8943L6.85102 25.9041C6.85923 26.4226 6.93975 26.8621 7.12321 27.3076L7.70737 27.0687ZM7.95525 27.505C7.96788 27.5107 7.94041 27.5003 7.88357 27.4162C7.83147 27.3391 7.77147 27.2248 7.70737 27.0687L7.12321 27.3076C7.19646 27.4871 7.27541 27.6432 7.36003 27.7682C7.4396 27.8866 7.54633 28.0094 7.68843 28.0755L7.95525 27.505ZM8.92464 26.024C8.79581 26.4229 8.5492 26.8442 8.29817 27.143C8.17186 27.2931 8.05692 27.398 7.96882 27.4547C7.85894 27.5252 7.87946 27.4691 7.95714 27.5057L7.68716 28.0749C7.92935 28.1892 8.17186 28.0736 8.31143 27.9836C8.47247 27.8797 8.63446 27.7232 8.78223 27.5472C9.07937 27.1933 9.36956 26.7016 9.52586 26.217L8.92464 26.024ZM9.12737 25.1236C9.11789 25.0883 9.12168 25.0691 9.12105 25.094C9.11991 25.1186 9.1178 25.1432 9.11473 25.1677C9.07503 25.4575 9.01167 25.7436 8.92528 26.0231L9.52554 26.2183C9.62493 25.8989 9.69728 25.5718 9.74184 25.2404C9.7469 25.1963 9.751 25.1529 9.75226 25.1135C9.75481 25.0625 9.75003 25.0114 9.73805 24.9618L9.12737 25.1236ZM9.14315 24.6989C9.13052 24.7697 9.12137 24.8431 9.11694 24.9064C9.11473 24.9378 9.11316 24.97 9.11347 25.0002C9.11347 25.0238 9.1141 25.0685 9.12516 25.1145L9.74026 24.9709C9.74405 24.9873 9.745 24.998 9.745 24.9989V24.9958C9.74458 24.987 9.74521 24.9723 9.7469 24.9517C9.75071 24.9039 9.7564 24.8563 9.76458 24.8091L9.14315 24.6989ZM9.18452 23.9111C9.17915 24.2527 9.15642 24.612 9.14189 24.7061L9.76616 24.8018C9.78795 24.6611 9.81068 24.2641 9.81668 23.9212L9.18452 23.9111ZM9.03706 21.9976C9.15831 22.7296 9.19873 23.2686 9.18452 23.9093L9.81636 23.9231C9.83152 23.2387 9.787 22.6606 9.66006 21.8949L9.03706 21.9976ZM8.92622 20.4722C8.81002 20.4564 8.74592 20.3831 8.73455 20.3702C8.72027 20.3541 8.70768 20.3365 8.69698 20.3179C8.6875 20.3006 8.68245 20.2874 8.68214 20.287L8.68656 20.3015C8.69435 20.3284 8.7055 20.3714 8.72003 20.4306C8.74845 20.5471 8.78508 20.7108 8.82423 20.895C8.90317 21.264 8.98938 21.7041 9.03706 21.9966L9.66038 21.8959C9.56836 21.3548 9.45947 20.8167 9.33388 20.2823C9.32132 20.2298 9.30763 20.1775 9.29283 20.1255C9.28655 20.1039 9.27949 20.0825 9.27167 20.0613C9.2573 20.021 9.2352 19.9839 9.20662 19.9521C9.19399 19.9382 9.12894 19.8642 9.01211 19.8482L8.92622 20.4722ZM8.86623 20.8685C8.95812 20.7209 9.04432 20.5887 9.10842 20.4951C9.14084 20.4477 9.16515 20.4136 9.18136 20.3928L9.18862 20.3837C9.18768 20.3843 9.1782 20.395 9.16242 20.4079C9.12952 20.4338 9.09175 20.4528 9.05133 20.4639C9.01092 20.4749 8.9687 20.4777 8.92717 20.4722L9.01085 19.8482C8.96742 19.8421 8.92352 19.8451 8.88133 19.8571C8.83915 19.869 8.79991 19.8895 8.76613 19.9174C8.75082 19.9294 8.73666 19.9428 8.72382 19.9574C8.7074 19.9747 8.69224 19.9942 8.67961 20.0103C8.65372 20.0443 8.62183 20.089 8.58709 20.14C8.51668 20.243 8.42542 20.3828 8.32974 20.5361L8.86623 20.8685ZM10.2344 27.9619C10.2392 26.6912 10.4561 25.7045 11.0854 24.1699L10.5006 23.9316C9.84857 25.5215 9.60828 26.5892 9.60291 27.9597L10.2344 27.9619ZM9.6629 28.4316C9.66953 28.42 9.71279 28.3387 9.8151 28.2956C9.87306 28.2713 9.93695 28.2649 9.9986 28.2771C10.0603 28.2892 10.1169 28.3195 10.1612 28.3639C10.206 28.4089 10.2246 28.4558 10.2288 28.4662C10.2338 28.4786 10.238 28.4912 10.2414 28.504C10.2461 28.5238 10.2461 28.5349 10.2449 28.5204C10.2421 28.4837 10.2404 28.447 10.2395 28.4102C10.2363 28.3019 10.2344 28.1435 10.2344 27.9609L9.60291 27.9606C9.60291 28.1464 9.60449 28.3116 9.60828 28.4297C9.61017 28.4867 9.61238 28.539 9.61585 28.5771C9.61712 28.5915 9.62027 28.6233 9.62785 28.6548C9.64102 28.7098 9.66851 28.7603 9.70754 28.8013C9.74658 28.8422 9.79577 28.8722 9.85015 28.8881C9.92372 28.9092 9.99793 28.9023 10.0611 28.8755C10.164 28.8321 10.2082 28.7499 10.2158 28.737L9.6629 28.4316ZM10.2562 28.715C10.2613 28.6816 10.2698 28.6255 10.2679 28.5761C10.2666 28.5161 10.2487 28.4576 10.2161 28.407C10.1796 28.3495 10.1253 28.3053 10.0614 28.2811C9.87825 28.2115 9.7469 28.3305 9.73048 28.346C9.69669 28.3771 9.6768 28.4089 9.66953 28.4203L10.2089 28.748C10.206 28.7527 10.1899 28.7795 10.1593 28.8078C10.1457 28.8204 10.0172 28.9385 9.83594 28.8695C9.79049 28.8522 9.74973 28.8246 9.71689 28.7888C9.68406 28.753 9.66005 28.71 9.6468 28.6633C9.63796 28.6309 9.63733 28.6057 9.63669 28.6004C9.63606 28.5808 9.63859 28.5796 9.63259 28.618L10.2562 28.715ZM10.7687 30.6742C10.6219 30.3975 10.476 29.9872 10.3753 29.5908C10.3289 29.4126 10.2931 29.2318 10.2679 29.0493C10.2464 28.8847 10.2461 28.7741 10.2556 28.7187L9.63322 28.6139C9.60796 28.7634 9.61806 28.9486 9.64143 29.1302C9.66606 29.3191 9.70869 29.5307 9.763 29.7454C9.87099 30.1711 10.0323 30.6333 10.2104 30.9686L10.7687 30.6742ZM10.9825 30.9793C10.9616 30.9938 10.9623 30.9875 10.9796 30.9865C10.9992 30.9856 11.0074 30.9928 10.9973 30.9865C10.9645 30.9626 10.9357 30.9336 10.9121 30.9006C10.8575 30.8287 10.8092 30.7524 10.7678 30.6723L10.2111 30.9705C10.3349 31.2003 10.4788 31.4062 10.6626 31.5208C10.7624 31.5828 10.8799 31.6215 11.0093 31.6153C11.1282 31.6083 11.2427 31.5679 11.3396 31.4988L10.9825 30.9793ZM11.6573 29.6573C11.5888 29.9076 11.4564 30.2218 11.3115 30.4932C11.2398 30.6279 11.1678 30.7463 11.1037 30.8363C11.0717 30.8817 11.044 30.9171 11.0204 30.9428C10.9957 30.9701 10.9834 30.9786 10.9847 30.9777L11.3374 31.5003C11.4454 31.4279 11.542 31.3092 11.6194 31.2003C11.7031 31.0822 11.7886 30.9399 11.8692 30.7888C12.0292 30.4888 12.1824 30.1302 12.2667 29.8232L11.6573 29.6573ZM11.8155 28.9933C11.8041 28.9644 11.7971 28.9341 11.7946 28.9032C11.7943 28.8963 11.7946 28.8938 11.7943 28.8991C11.7939 28.9086 11.7921 28.9275 11.7889 28.9558C11.7826 29.0115 11.7713 29.088 11.7567 29.1746C11.7302 29.3373 11.6969 29.4989 11.657 29.6588L12.2667 29.8216C12.3055 29.6774 12.3491 29.4611 12.3794 29.2788C12.3952 29.1866 12.4082 29.0984 12.4164 29.0282C12.4205 28.9936 12.4236 28.959 12.4252 28.9284C12.426 28.9102 12.426 28.8919 12.4252 28.8736C12.4252 28.8655 12.4236 28.8122 12.4 28.7549L11.8155 28.9933ZM11.8218 28.3715C11.8095 28.4943 11.7997 28.6117 11.794 28.702C11.7913 28.7422 11.7897 28.7824 11.7889 28.8226C11.7889 28.839 11.7889 28.8585 11.7902 28.8777C11.7904 28.8876 11.7918 28.9012 11.7943 28.9187C11.7959 28.9265 11.8022 28.9703 11.8272 29.0185L12.3883 28.7301C12.4024 28.7578 12.4126 28.7876 12.418 28.8182C12.4198 28.8296 12.4202 28.8374 12.4205 28.8387V28.8302C12.4205 28.8113 12.4218 28.7815 12.4246 28.7408C12.4293 28.6608 12.4382 28.5519 12.4498 28.4338L11.8218 28.3715ZM11.1359 24.4706C11.7094 26.1053 11.9194 27.3517 11.8215 28.3727L12.4505 28.4325C12.5604 27.2824 12.3197 25.9368 11.7321 24.2628L11.1359 24.4706ZM10.8375 23.6517C10.9415 23.9227 11.0406 24.1952 11.1353 24.4694L11.7324 24.2638C11.6353 23.9832 11.5332 23.7042 11.4271 23.4269L10.8375 23.6517ZM10.7753 23.5006L10.8404 23.659L11.4246 23.4197L11.3592 23.2616L10.7753 23.5006ZM11.0854 24.1699L11.3598 23.5003L10.7747 23.2619L10.5006 23.9316L11.0854 24.1699ZM16.8077 31.4836C16.8166 31.4918 16.9018 31.5718 17.0373 31.5655C17.2346 31.5567 17.3095 31.3968 17.3262 31.3461C17.3436 31.2929 17.3429 31.2472 17.3429 31.2327C17.3422 31.215 17.3407 31.1974 17.3385 31.1798C17.329 31.1207 17.3162 31.0621 17.3 31.0045C17.2393 30.785 17.1744 30.5667 17.1055 30.3496L16.5024 30.536C16.5965 30.8389 16.6571 31.0426 16.6896 31.165C16.6974 31.195 16.7033 31.2189 16.7073 31.2365C16.7117 31.2554 16.7127 31.2629 16.7127 31.2626L16.712 31.2573L16.7114 31.2431C16.7114 31.2374 16.7101 31.1984 16.7262 31.1496C16.7414 31.1033 16.814 30.9456 17.0082 30.9368C17.1408 30.9305 17.222 31.0089 17.2264 31.0126L16.8077 31.4836ZM17.2965 31.4317C17.2965 31.4036 17.2971 31.3813 17.2984 31.365C17.2997 31.3473 17.3009 31.3413 17.3006 31.3439C17.3003 31.3451 17.2987 31.3533 17.2943 31.3659C17.2845 31.3927 17.2706 31.4178 17.2533 31.4405C17.2268 31.4747 17.1934 31.5028 17.1553 31.5232C17.1171 31.5435 17.0751 31.5556 17.0319 31.5586C16.9886 31.5618 16.945 31.5557 16.9042 31.5409C16.8633 31.526 16.8258 31.5026 16.7948 31.4723L17.2387 31.0243C17.2059 30.9917 17.1665 30.9664 17.1231 30.9503C17.0797 30.9341 17.0333 30.9273 16.9871 30.9305C16.941 30.9338 16.8961 30.9469 16.8555 30.9689C16.8149 30.9909 16.7794 31.0213 16.7515 31.058C16.6991 31.1263 16.6852 31.2016 16.6814 31.2198C16.6688 31.2828 16.665 31.3587 16.665 31.432L17.2965 31.4317ZM18.1747 33.7218C17.9394 33.2613 17.73 32.7882 17.5466 32.3047C17.4755 32.1188 17.4125 31.93 17.3578 31.7387C17.312 31.5731 17.2965 31.4733 17.2965 31.4317L16.665 31.432C16.665 31.5649 16.7016 31.7352 16.7493 31.9065C16.7992 32.0869 16.8699 32.2981 16.9552 32.5251C17.1468 33.0309 17.366 33.5259 17.612 34.0077L18.1747 33.7218ZM20.0168 35.9002C19.3433 35.479 18.6843 34.7243 18.175 33.7225L17.612 34.0071C18.1586 35.0819 18.8867 35.9361 19.6815 36.4335L20.0168 35.9002ZM19.9076 35.8574C19.6504 35.8099 19.3881 35.7959 19.1273 35.8155L19.1728 36.4436C19.3794 36.4279 19.5869 36.4389 19.7907 36.4764L19.9076 35.8574ZM18.8457 36.0444L19.4538 36.2154V36.2147L18.8457 36.0444ZM19.1295 35.8161C17.9659 35.8908 16.7142 36.6407 15.3748 37.9451L15.8168 38.3956C17.1241 37.1218 18.2372 36.5044 19.1703 36.4442L19.1295 35.8161ZM15.3719 37.9489L15.1664 38.1548L15.6151 38.5981L15.8203 38.3922L15.3719 37.9489ZM15.2434 38.6547L15.5238 38.803L15.8191 38.2464L15.539 38.0984L15.2434 38.6547ZM15.5225 38.8021C15.5945 38.8408 15.6444 38.8717 15.6681 38.889C15.6871 38.9025 15.6694 38.8927 15.6466 38.8644C15.5979 38.8013 15.5758 38.7216 15.5851 38.6425C15.593 38.5745 15.6232 38.5111 15.671 38.4621C15.7188 38.4131 15.7812 38.3812 15.8491 38.3714L15.934 38.9954C15.9843 38.9893 16.0325 38.9713 16.0745 38.943C16.1165 38.9146 16.1512 38.8767 16.1756 38.8324C16.2 38.7881 16.2135 38.7386 16.215 38.6881C16.2165 38.6375 16.2059 38.5874 16.1841 38.5417C16.1727 38.5168 16.1582 38.4936 16.1408 38.4724C16.111 38.4365 16.0764 38.4048 16.0379 38.3783C15.9685 38.3298 15.8956 38.2861 15.8203 38.2473L15.5225 38.8021ZM15.8358 38.3736C15.7828 38.3837 15.7325 38.4043 15.6876 38.4342C15.6428 38.464 15.6044 38.5025 15.5747 38.5474C15.5349 38.6075 15.5071 38.6746 15.4926 38.7451C15.466 38.8663 15.4704 39.0108 15.5178 39.1443L16.1127 38.9343C16.1074 38.916 16.1066 38.8967 16.1099 38.878C16.1115 38.8704 16.1105 38.8814 16.0966 38.9022C16.0608 38.9509 16.0073 38.9835 15.9476 38.9932L15.8358 38.3736ZM15.5175 39.1434C15.5784 39.3175 15.7089 39.4469 15.8535 39.5473C15.9997 39.649 16.1885 39.7403 16.4124 39.8291L16.6454 39.2438C16.4405 39.1626 16.3031 39.0924 16.2147 39.031C16.1839 39.0104 16.1556 38.9863 16.1304 38.9592C16.1241 38.9523 16.1186 38.9447 16.114 38.9365L16.113 38.9349L15.5175 39.1434ZM16.4133 39.8291C17.5169 40.2629 18.4888 40.4543 19.3405 40.37C20.2034 40.2846 20.9221 39.9185 21.5094 39.2803L21.0443 38.8547C20.5593 39.3817 19.9824 39.6739 19.2783 39.7434C18.5634 39.814 17.6975 39.6572 16.6448 39.2435L16.4133 39.8291ZM21.5101 39.2794C21.6418 39.1381 21.759 38.9837 21.8593 38.8188C21.9446 38.673 22.0128 38.5118 22.0257 38.3497L21.3958 38.2999C21.3936 38.3282 21.3762 38.3947 21.314 38.5011C21.254 38.6031 21.164 38.7234 21.0434 38.8556L21.5101 39.2794ZM22.0251 38.355C22.0355 38.2483 22.0384 38.1393 22.0241 38.0502C22.0145 37.9792 21.9871 37.9118 21.9446 37.8541C21.8945 37.7888 21.8222 37.7441 21.7413 37.7284C21.6604 37.7128 21.5763 37.7272 21.5053 37.7691L21.8255 38.3122C21.7638 38.3478 21.6912 38.36 21.6211 38.3465C21.5511 38.3329 21.4883 38.2946 21.4444 38.2385C21.4248 38.2131 21.4102 38.1841 21.4015 38.1532L21.4008 38.15V38.1491V38.1522L21.4018 38.1614L21.4024 38.1925C21.4024 38.2192 21.4001 38.2532 21.3961 38.2946L22.0251 38.355ZM21.4858 37.7817C21.4776 37.787 21.4861 37.7811 21.4987 37.7741C21.5407 37.7519 21.5872 37.7396 21.6348 37.7381C21.6823 37.7366 21.7295 37.746 21.7728 37.7656C21.9086 37.827 21.9471 37.9504 21.9547 38.0128C21.961 38.0669 21.9509 38.1082 21.9484 38.1182C21.9424 38.1437 21.9345 38.1589 21.9379 38.1513C21.9496 38.1255 21.9888 38.0524 22.0901 37.8702L21.5379 37.5651C21.445 37.7326 21.3876 37.8365 21.3623 37.8925C21.3566 37.9051 21.3434 37.935 21.3345 37.9703C21.3314 37.9851 21.3206 38.0301 21.3276 38.0871C21.3337 38.1394 21.3528 38.1893 21.383 38.2325C21.4133 38.2756 21.4539 38.3105 21.501 38.3342C21.5482 38.3579 21.6005 38.3695 21.6533 38.368C21.7061 38.3665 21.7577 38.352 21.8034 38.3257C21.824 38.3144 21.8419 38.3018 21.8451 38.2996L21.4858 37.7817ZM22.0924 37.867C22.128 37.8009 22.1625 37.7335 22.189 37.6768C22.2019 37.6488 22.2149 37.6195 22.2253 37.5918C22.2306 37.5778 22.236 37.5613 22.2417 37.5424C22.2452 37.5292 22.255 37.4917 22.2553 37.4454L21.6241 37.4432C21.6244 37.4204 21.6273 37.3977 21.6326 37.3755L21.6342 37.3705C21.6287 37.3845 21.6227 37.3982 21.6162 37.4117C21.5969 37.453 21.5688 37.5084 21.5363 37.5682L22.0924 37.867ZM22.2553 37.4445C22.2553 37.3705 22.2326 37.3116 22.2158 37.2767C22.1993 37.2433 22.1795 37.2117 22.1568 37.1822C22.1144 37.1284 22.0677 37.078 22.0172 37.0317C21.8752 36.9034 21.7272 36.782 21.5735 36.6678L21.1905 37.1687C21.374 37.3082 21.5035 37.4139 21.584 37.4898C21.625 37.5282 21.6452 37.5519 21.6534 37.5622C21.6569 37.5673 21.6528 37.5626 21.6465 37.5493C21.6315 37.5163 21.6239 37.4804 21.6241 37.4442L22.2553 37.4445ZM21.5745 36.6684C21.4019 36.5354 21.2217 36.4124 21.0349 36.3001L20.7109 36.8406C20.8643 36.9321 21.0242 37.0412 21.1899 37.1677L21.5745 36.6684ZM20.9553 36.2645L20.9231 36.2594L20.823 36.8812L20.8653 36.8875L20.9553 36.2645ZM21.2502 36.1247C21.2278 36.2897 21.1943 36.2843 21.2174 36.2698C21.2231 36.266 21.2142 36.2742 21.17 36.2777C21.1245 36.2815 21.0563 36.2786 20.9553 36.2645L20.8653 36.8875C21.0955 36.9206 21.35 36.9313 21.5552 36.8016C21.7794 36.6602 21.8476 36.4181 21.8761 36.21L21.2502 36.1247ZM21.464 35.779C21.3677 35.8325 21.3187 35.9175 21.2985 35.9594C21.2723 36.0129 21.2534 36.0765 21.248 36.1442L21.8776 36.1905C21.8766 36.2061 21.8729 36.2214 21.8663 36.2355C21.8606 36.2471 21.8535 36.258 21.8451 36.2679C21.8246 36.293 21.799 36.3138 21.7706 36.3293L21.464 35.779ZM21.3108 35.648C21.3273 35.8105 21.3326 35.8952 21.3317 35.9392C21.331 35.9616 21.3291 35.9537 21.3355 35.932C21.352 35.8782 21.3861 35.8314 21.4324 35.7991L21.8022 36.3092C21.8852 36.2494 21.924 36.1691 21.9417 36.108C21.9582 36.0523 21.9619 35.9969 21.9629 35.9534C21.9651 35.8656 21.9556 35.7444 21.9395 35.5847L21.3108 35.648ZM17.2814 30.769C18.6391 31.3495 19.5842 31.989 20.2195 32.7625C20.8511 33.5307 21.1962 34.4557 21.3108 35.6464L21.9395 35.5863C21.8161 34.3002 21.4352 33.2483 20.708 32.3633C19.9849 31.483 18.9398 30.7929 17.5302 30.1903L17.2814 30.769ZM16.6284 30.4938C16.8464 30.5811 17.0627 30.6723 17.2773 30.7674L17.534 30.1922C17.3122 30.0938 17.0886 29.9995 16.8633 29.9095L16.6284 30.4938ZM17.1058 30.3505C17.09 30.2999 17.0754 30.2489 17.0622 30.1975C17.0575 30.178 17.0569 30.1723 17.0572 30.1755L17.0584 30.1881C17.0593 30.2006 17.0594 30.2131 17.0587 30.2256C17.0581 30.2353 17.0556 30.286 17.0272 30.3433C16.9984 30.4013 16.9522 30.4489 16.8951 30.4795C16.8379 30.5101 16.7726 30.5223 16.7082 30.5143L16.7834 29.889C16.7184 29.881 16.6525 29.8934 16.5948 29.9244C16.5372 29.9554 16.4906 30.0036 16.4616 30.0622C16.4323 30.121 16.4291 30.1739 16.4285 30.1871C16.4263 30.224 16.4307 30.2551 16.432 30.2652C16.4361 30.2936 16.443 30.3235 16.449 30.3477C16.4616 30.4 16.4809 30.4673 16.5017 30.535L17.1058 30.3505Z" fill="black" fill-opacity="0.18"/>
</g>
</g>
<defs>
<radialGradient id="paint0_radial_1073_14654" cx="0" cy="0" r="1" gradientTransform="matrix(-68.7822 19.5887 -12.9055 -45.0498 47.069 15.0674)" gradientUnits="userSpaceOnUse">
<stop offset="0.521" stop-color="#AA8A39"/>
<stop offset="0.582" stop-color="#FED238"/>
<stop offset="0.652" stop-color="#AA8C3F"/>
</radialGradient>
<clipPath id="clip0_1073_14654">
<rect width="22" height="40" fill="white"/>
</clipPath>
</defs>
</svg>
