<svg width="16" height="23" viewBox="0 0 16 23" fill="none" xmlns="http://www.w3.org/2000/svg">
<path d="M10.6413 14.0992L8.99428 15.7468V11.4799H4.7513L6.39888 9.83234H10.6413V14.0992Z" fill="#1D925B"/>
<path d="M7.52539 14.9055H5.5676V12.9477H7.52539V14.9055Z" fill="#1D925B"/>
<path fill-rule="evenodd" clip-rule="evenodd" d="M14.5968 13.7718C14.5968 17.5675 8.02704 20.487 8.02704 20.487C7.97919 20.4656 1.45671 17.5525 1.45669 13.7718V5.87903H14.5968V13.7718ZM4.09981 11.4788V16.3733H8.99428L12.5275 12.8401V7.94558H7.63304L4.09981 11.4788Z" fill="#1D925B"/>
<path d="M0 0V13.8317C0 15.8862 1.30215 17.8829 3.86954 19.7648C5.61572 21.045 7.34693 21.8203 7.41877 21.8522L7.9995 22.1106L8.58023 21.8522C8.65307 21.8203 10.3833 21.045 12.1305 19.7648C14.6978 17.8819 16 15.8862 16 13.8317V0H0ZM15.5789 13.8327C15.5789 15.7456 14.3346 17.6284 11.882 19.4275C10.1717 20.6818 8.48145 21.4391 8.4096 21.47L7.9995 21.6526L7.5894 21.47C7.51855 21.4381 5.82825 20.6818 4.11699 19.4275C1.66336 17.6284 0.420081 15.7466 0.420081 13.8327V0.420081H15.5779V13.8317L15.5789 13.8327Z" fill="black"/>
<path d="M6.8351 4.94904C6.49584 4.47408 5.96001 4.16775 5.35932 4.16775H1.45686V4.80635H5.35932C5.66765 4.80635 5.95003 4.92609 6.16955 5.12266H6.94486C6.91093 5.06279 6.87501 5.00392 6.8351 4.94904Z" fill="black"/>
<path d="M8.06441 4.80737C7.97859 4.60881 7.87382 4.42122 7.75209 4.2466C7.62836 4.06799 7.48767 3.90335 7.33101 3.75567C6.80117 3.25078 6.1027 2.94445 5.33937 2.94445H1.45686V3.58305H5.34037C6.00391 3.58305 6.6056 3.87142 7.04164 4.3384C7.20828 4.51701 7.35097 4.72056 7.46272 4.94407C7.49166 5.00195 7.5176 5.06182 7.54255 5.12268H8.18414C8.15022 5.01492 8.11031 4.90915 8.0654 4.80737H8.06441Z" fill="black"/>
<path d="M14.6499 2.29699V1.65838H10.8881C9.80252 1.65838 8.81069 2.10042 8.06432 2.82483C7.31696 2.10042 6.32712 1.65838 5.24149 1.65838H1.45677V2.29699H5.24149C6.16747 2.29699 7.01262 2.67117 7.65122 3.28582C7.8009 3.42951 7.93959 3.58617 8.06532 3.7548C8.18107 3.90946 8.28484 4.0731 8.37763 4.24572C8.49538 4.46624 8.59316 4.69973 8.669 4.9442C8.68696 5.00307 8.70392 5.06194 8.71889 5.12281H9.96017C10.1797 4.92524 10.4621 4.8065 10.7704 4.8065H14.6509V4.1679H10.7704C10.1687 4.1679 9.63389 4.47522 9.29363 4.95018C9.23975 4.73964 9.1709 4.53509 9.08908 4.33852C9.52512 3.87254 10.1268 3.58417 10.6367 3.58417H14.6509V2.94557H10.7904C10.027 2.94557 9.32855 3.2519 8.79772 3.75679C8.70093 3.59315 8.59416 3.4365 8.47841 3.28782C9.11702 2.67217 9.96317 2.29799 10.8891 2.29799H14.6509L14.6499 2.29699Z" fill="black"/>
</svg>
