<svg width="16" height="18" viewBox="0 0 16 18" fill="none" xmlns="http://www.w3.org/2000/svg">
<path d="M7.41956 17.749C7.34704 17.7178 5.61632 16.9635 3.86985 15.7174C1.30181 13.8854 0 11.943 0 9.94327V0H16V9.94327C16 11.943 14.6982 13.8854 12.1308 15.7174C10.3844 16.9635 8.65364 17.7178 8.58113 17.749L8.00034 18L7.41956 17.749ZM8.00034 17.5527L8.41011 17.3756C8.48125 17.345 10.1716 16.6081 11.8825 15.3879C14.3363 13.6371 15.58 11.8052 15.58 9.94394V0.409394H0.420711V9.94327C0.420711 11.8052 1.66506 13.6371 4.11818 15.3872C5.82907 16.6074 7.51943 17.3443 7.59058 17.3749L8.00034 17.552V17.5527ZM1.42973 1.39127V9.94327C1.42973 13.6365 8.00034 16.4783 8.00034 16.4783C8.00034 16.4783 14.571 13.6365 14.571 9.94327V1.39127H1.42973Z" fill="#0245B9"/>
<path d="M7.4476 3.02752L3.51892 6.85052V12.1453H8.96011L12.8888 8.32234V3.02752H7.4476ZM7.32789 10.5564H5.15114V8.43817H7.32789V10.5564ZM10.7914 9.68432L8.96011 11.4663V6.84985H4.24336L6.07465 5.06783H10.7914V9.68432Z" fill="white"/>
</svg>
